%TF.GenerationSoftware,KiCad,Pcbnew,9.0.7*%
%TF.CreationDate,2026-01-20T22:52:20-08:00*%
%TF.ProjectId,PCBs,50434273-2e6b-4696-9361-645f70636258,rev?*%
%TF.SameCoordinates,Original*%
%TF.FileFunction,Copper,L3,Inr*%
%TF.FilePolarity,Positive*%
%FSLAX46Y46*%
G04 Gerber Fmt 4.6, Leading zero omitted, Abs format (unit mm)*
G04 Created by KiCad (PCBNEW 9.0.7) date 2026-01-20 22:52:20*
%MOMM*%
%LPD*%
G01*
G04 APERTURE LIST*
%TA.AperFunction,ComponentPad*%
%ADD10C,2.000000*%
%TD*%
%TA.AperFunction,ViaPad*%
%ADD11C,0.800000*%
%TD*%
G04 APERTURE END LIST*
D10*
%TO.N,GND*%
%TO.C,P1*%
X136400000Y-117100000D03*
%TO.N,VCCIN*%
X136400000Y-112100000D03*
%TD*%
%TO.N,GND*%
%TO.C,P2*%
X166000000Y-117200000D03*
%TO.N,VCCOUT*%
X166000000Y-112200000D03*
%TD*%
D11*
%TO.N,VCCOUT*%
X148400000Y-115700000D03*
X156400000Y-113700000D03*
X150660000Y-110800000D03*
X155400000Y-115700000D03*
%TO.N,GND*%
X158250000Y-119300000D03*
X157800000Y-118750000D03*
X158750000Y-118750000D03*
X142850000Y-115650000D03*
X143300000Y-116200000D03*
X143800000Y-115650000D03*
X146450000Y-114750000D03*
X146450000Y-114175000D03*
X146450000Y-115325000D03*
%TO.N,VCCIN*%
X144500000Y-114200000D03*
X144500000Y-113625000D03*
%TD*%
%TA.AperFunction,Conductor*%
%TO.N,VCCIN*%
G36*
X172004418Y-107000816D02*
G01*
X172188771Y-107014001D01*
X172199293Y-107015208D01*
X172238342Y-107021392D01*
X172245235Y-107022688D01*
X172404658Y-107057368D01*
X172416578Y-107060592D01*
X172446235Y-107070228D01*
X172451162Y-107071946D01*
X172612703Y-107132198D01*
X172625644Y-107137887D01*
X172633722Y-107142002D01*
X172634751Y-107142527D01*
X172637863Y-107144169D01*
X172802914Y-107234293D01*
X172817784Y-107243849D01*
X172887073Y-107295719D01*
X172974867Y-107361441D01*
X172988237Y-107373027D01*
X173126972Y-107511762D01*
X173138558Y-107525132D01*
X173256148Y-107682213D01*
X173265710Y-107697093D01*
X173310462Y-107779050D01*
X173355815Y-107862109D01*
X173357461Y-107865228D01*
X173362104Y-107874338D01*
X173367807Y-107887311D01*
X173428039Y-108048799D01*
X173429788Y-108053815D01*
X173439400Y-108083398D01*
X173442635Y-108095358D01*
X173477304Y-108254731D01*
X173478612Y-108261692D01*
X173484788Y-108300688D01*
X173485998Y-108311238D01*
X173499184Y-108495582D01*
X173499500Y-108504429D01*
X173499500Y-120995570D01*
X173499184Y-121004417D01*
X173485998Y-121188760D01*
X173484788Y-121199310D01*
X173478612Y-121238306D01*
X173477304Y-121245267D01*
X173442635Y-121404640D01*
X173439400Y-121416600D01*
X173429788Y-121446183D01*
X173428039Y-121451199D01*
X173367807Y-121612687D01*
X173362105Y-121625656D01*
X173362105Y-121625657D01*
X173357476Y-121634740D01*
X173355829Y-121637862D01*
X173265710Y-121802906D01*
X173256144Y-121817791D01*
X173138558Y-121974867D01*
X173126972Y-121988237D01*
X172988237Y-122126972D01*
X172974867Y-122138558D01*
X172817791Y-122256144D01*
X172802906Y-122265710D01*
X172637862Y-122355829D01*
X172634740Y-122357476D01*
X172625657Y-122362105D01*
X172612687Y-122367807D01*
X172451199Y-122428039D01*
X172446183Y-122429788D01*
X172416600Y-122439400D01*
X172404640Y-122442635D01*
X172245267Y-122477304D01*
X172238306Y-122478612D01*
X172199310Y-122484788D01*
X172188760Y-122485998D01*
X172004418Y-122499184D01*
X171995571Y-122499500D01*
X130504429Y-122499500D01*
X130495582Y-122499184D01*
X130311238Y-122485998D01*
X130300688Y-122484788D01*
X130261692Y-122478612D01*
X130254731Y-122477304D01*
X130095358Y-122442635D01*
X130083398Y-122439400D01*
X130053815Y-122429788D01*
X130048799Y-122428039D01*
X129887311Y-122367807D01*
X129874338Y-122362104D01*
X129865228Y-122357461D01*
X129862109Y-122355815D01*
X129797105Y-122320321D01*
X129697088Y-122265707D01*
X129682213Y-122256148D01*
X129525132Y-122138558D01*
X129511762Y-122126972D01*
X129373027Y-121988237D01*
X129361441Y-121974867D01*
X129243849Y-121817784D01*
X129234293Y-121802914D01*
X129144169Y-121637862D01*
X129142527Y-121634751D01*
X129137893Y-121625657D01*
X129137887Y-121625644D01*
X129132198Y-121612703D01*
X129071946Y-121451162D01*
X129070228Y-121446235D01*
X129060592Y-121416578D01*
X129057368Y-121404658D01*
X129022688Y-121245235D01*
X129021392Y-121238342D01*
X129015208Y-121199293D01*
X129014001Y-121188771D01*
X129000816Y-121004417D01*
X129000500Y-120995572D01*
X129000500Y-118661304D01*
X156899500Y-118661304D01*
X156899500Y-118838695D01*
X156934103Y-119012658D01*
X156934106Y-119012667D01*
X157001983Y-119176540D01*
X157001990Y-119176553D01*
X157100535Y-119324034D01*
X157100538Y-119324038D01*
X157225961Y-119449461D01*
X157225965Y-119449464D01*
X157348515Y-119531350D01*
X157393320Y-119584962D01*
X157394185Y-119587000D01*
X157451983Y-119726540D01*
X157451990Y-119726553D01*
X157550535Y-119874034D01*
X157550538Y-119874038D01*
X157675961Y-119999461D01*
X157675965Y-119999464D01*
X157823446Y-120098009D01*
X157823459Y-120098016D01*
X157946363Y-120148923D01*
X157987334Y-120165894D01*
X157987336Y-120165894D01*
X157987341Y-120165896D01*
X158161304Y-120200499D01*
X158161307Y-120200500D01*
X158161309Y-120200500D01*
X158338693Y-120200500D01*
X158338694Y-120200499D01*
X158396682Y-120188964D01*
X158512658Y-120165896D01*
X158512661Y-120165894D01*
X158512666Y-120165894D01*
X158676547Y-120098013D01*
X158824035Y-119999464D01*
X158949464Y-119874035D01*
X159048013Y-119726547D01*
X159091004Y-119622754D01*
X159134843Y-119568354D01*
X159158107Y-119555650D01*
X159176547Y-119548013D01*
X159324035Y-119449464D01*
X159449464Y-119324035D01*
X159548013Y-119176547D01*
X159615894Y-119012666D01*
X159650500Y-118838691D01*
X159650500Y-118661309D01*
X159650500Y-118661306D01*
X159650499Y-118661304D01*
X159615896Y-118487341D01*
X159615893Y-118487332D01*
X159548016Y-118323459D01*
X159548009Y-118323446D01*
X159449464Y-118175965D01*
X159449461Y-118175961D01*
X159324038Y-118050538D01*
X159324034Y-118050535D01*
X159176553Y-117951990D01*
X159176540Y-117951983D01*
X159012667Y-117884106D01*
X159012658Y-117884103D01*
X158838694Y-117849500D01*
X158838691Y-117849500D01*
X158661309Y-117849500D01*
X158661306Y-117849500D01*
X158487341Y-117884103D01*
X158487332Y-117884106D01*
X158322452Y-117952401D01*
X158252982Y-117959870D01*
X158227548Y-117952401D01*
X158062667Y-117884106D01*
X158062658Y-117884103D01*
X157888694Y-117849500D01*
X157888691Y-117849500D01*
X157711309Y-117849500D01*
X157711306Y-117849500D01*
X157537341Y-117884103D01*
X157537332Y-117884106D01*
X157373459Y-117951983D01*
X157373446Y-117951990D01*
X157225965Y-118050535D01*
X157225961Y-118050538D01*
X157100538Y-118175961D01*
X157100535Y-118175965D01*
X157001990Y-118323446D01*
X157001983Y-118323459D01*
X156934106Y-118487332D01*
X156934103Y-118487341D01*
X156899500Y-118661304D01*
X129000500Y-118661304D01*
X129000500Y-116981902D01*
X134899500Y-116981902D01*
X134899500Y-117218097D01*
X134936446Y-117451368D01*
X135009433Y-117675996D01*
X135097839Y-117849500D01*
X135116657Y-117886433D01*
X135255483Y-118077510D01*
X135422490Y-118244517D01*
X135613567Y-118383343D01*
X135712991Y-118434002D01*
X135824003Y-118490566D01*
X135824005Y-118490566D01*
X135824008Y-118490568D01*
X135944412Y-118529689D01*
X136048631Y-118563553D01*
X136281903Y-118600500D01*
X136281908Y-118600500D01*
X136518097Y-118600500D01*
X136751368Y-118563553D01*
X136832209Y-118537286D01*
X136975992Y-118490568D01*
X137186433Y-118383343D01*
X137377510Y-118244517D01*
X137544517Y-118077510D01*
X137683343Y-117886433D01*
X137790568Y-117675992D01*
X137863553Y-117451368D01*
X137884662Y-117318092D01*
X137900500Y-117218097D01*
X137900500Y-116981902D01*
X137863553Y-116748631D01*
X137815422Y-116600500D01*
X137790568Y-116524008D01*
X137790566Y-116524005D01*
X137790566Y-116524003D01*
X137683342Y-116313566D01*
X137654621Y-116274035D01*
X137544517Y-116122490D01*
X137377510Y-115955483D01*
X137186433Y-115816657D01*
X137172253Y-115809432D01*
X136975996Y-115709433D01*
X136912307Y-115688739D01*
X136827396Y-115661150D01*
X136751368Y-115636446D01*
X136518097Y-115599500D01*
X136518092Y-115599500D01*
X136281908Y-115599500D01*
X136281903Y-115599500D01*
X136048631Y-115636446D01*
X135824003Y-115709433D01*
X135613566Y-115816657D01*
X135504550Y-115895862D01*
X135422490Y-115955483D01*
X135422488Y-115955485D01*
X135422487Y-115955485D01*
X135255485Y-116122487D01*
X135255485Y-116122488D01*
X135255483Y-116122490D01*
X135205783Y-116190896D01*
X135116657Y-116313566D01*
X135009433Y-116524003D01*
X134936446Y-116748631D01*
X134899500Y-116981902D01*
X129000500Y-116981902D01*
X129000500Y-115561304D01*
X141949500Y-115561304D01*
X141949500Y-115738695D01*
X141984103Y-115912658D01*
X141984106Y-115912667D01*
X142051983Y-116076540D01*
X142051990Y-116076553D01*
X142150535Y-116224034D01*
X142150538Y-116224038D01*
X142275961Y-116349461D01*
X142275965Y-116349464D01*
X142398515Y-116431350D01*
X142443320Y-116484962D01*
X142444185Y-116487000D01*
X142501983Y-116626540D01*
X142501990Y-116626553D01*
X142600535Y-116774034D01*
X142600538Y-116774038D01*
X142725961Y-116899461D01*
X142725965Y-116899464D01*
X142873446Y-116998009D01*
X142873459Y-116998016D01*
X142996363Y-117048923D01*
X143037334Y-117065894D01*
X143037336Y-117065894D01*
X143037341Y-117065896D01*
X143211304Y-117100499D01*
X143211307Y-117100500D01*
X143211309Y-117100500D01*
X143388693Y-117100500D01*
X143388694Y-117100499D01*
X143482189Y-117081902D01*
X164499500Y-117081902D01*
X164499500Y-117318097D01*
X164536446Y-117551368D01*
X164609433Y-117775996D01*
X164665704Y-117886433D01*
X164716657Y-117986433D01*
X164855483Y-118177510D01*
X165022490Y-118344517D01*
X165213567Y-118483343D01*
X165312991Y-118534002D01*
X165424003Y-118590566D01*
X165424005Y-118590566D01*
X165424008Y-118590568D01*
X165544412Y-118629689D01*
X165648631Y-118663553D01*
X165881903Y-118700500D01*
X165881908Y-118700500D01*
X166118097Y-118700500D01*
X166351368Y-118663553D01*
X166358274Y-118661309D01*
X166575992Y-118590568D01*
X166786433Y-118483343D01*
X166977510Y-118344517D01*
X167144517Y-118177510D01*
X167283343Y-117986433D01*
X167390568Y-117775992D01*
X167463553Y-117551368D01*
X167500500Y-117318097D01*
X167500500Y-117081902D01*
X167463553Y-116848631D01*
X167391393Y-116626547D01*
X167390568Y-116624008D01*
X167390566Y-116624005D01*
X167390566Y-116624003D01*
X167320759Y-116487000D01*
X167283343Y-116413567D01*
X167144517Y-116222490D01*
X166977510Y-116055483D01*
X166786433Y-115916657D01*
X166751846Y-115899034D01*
X166575996Y-115809433D01*
X166351368Y-115736446D01*
X166118097Y-115699500D01*
X166118092Y-115699500D01*
X165881908Y-115699500D01*
X165881903Y-115699500D01*
X165648631Y-115736446D01*
X165424003Y-115809433D01*
X165213566Y-115916657D01*
X165104550Y-115995862D01*
X165022490Y-116055483D01*
X165022488Y-116055485D01*
X165022487Y-116055485D01*
X164855485Y-116222487D01*
X164855485Y-116222488D01*
X164855483Y-116222490D01*
X164818034Y-116274034D01*
X164716657Y-116413566D01*
X164609433Y-116624003D01*
X164536446Y-116848631D01*
X164499500Y-117081902D01*
X143482189Y-117081902D01*
X143562658Y-117065896D01*
X143562661Y-117065894D01*
X143562666Y-117065894D01*
X143726547Y-116998013D01*
X143874035Y-116899464D01*
X143999464Y-116774035D01*
X144098013Y-116626547D01*
X144141004Y-116522754D01*
X144184843Y-116468354D01*
X144208107Y-116455650D01*
X144226547Y-116448013D01*
X144374035Y-116349464D01*
X144499464Y-116224035D01*
X144598013Y-116076547D01*
X144665894Y-115912666D01*
X144668606Y-115899035D01*
X144688964Y-115796682D01*
X144700500Y-115738691D01*
X144700500Y-115561309D01*
X144700500Y-115561306D01*
X144700499Y-115561304D01*
X144665896Y-115387341D01*
X144665893Y-115387332D01*
X144598016Y-115223459D01*
X144598009Y-115223446D01*
X144499464Y-115075965D01*
X144499461Y-115075961D01*
X144374038Y-114950538D01*
X144374034Y-114950535D01*
X144226553Y-114851990D01*
X144226540Y-114851983D01*
X144062667Y-114784106D01*
X144062658Y-114784103D01*
X143888694Y-114749500D01*
X143888691Y-114749500D01*
X143711309Y-114749500D01*
X143711306Y-114749500D01*
X143537341Y-114784103D01*
X143537332Y-114784106D01*
X143372452Y-114852401D01*
X143302982Y-114859870D01*
X143277548Y-114852401D01*
X143112667Y-114784106D01*
X143112658Y-114784103D01*
X142938694Y-114749500D01*
X142938691Y-114749500D01*
X142761309Y-114749500D01*
X142761306Y-114749500D01*
X142587341Y-114784103D01*
X142587332Y-114784106D01*
X142423459Y-114851983D01*
X142423446Y-114851990D01*
X142275965Y-114950535D01*
X142275961Y-114950538D01*
X142150538Y-115075961D01*
X142150535Y-115075965D01*
X142051990Y-115223446D01*
X142051983Y-115223459D01*
X141984106Y-115387332D01*
X141984103Y-115387341D01*
X141949500Y-115561304D01*
X129000500Y-115561304D01*
X129000500Y-114086304D01*
X145549500Y-114086304D01*
X145549500Y-114263695D01*
X145584233Y-114438309D01*
X145584233Y-114486691D01*
X145549500Y-114661304D01*
X145549500Y-114838695D01*
X145584233Y-115013309D01*
X145584233Y-115061691D01*
X145549500Y-115236304D01*
X145549500Y-115413695D01*
X145584103Y-115587658D01*
X145584106Y-115587667D01*
X145651983Y-115751540D01*
X145651990Y-115751553D01*
X145750535Y-115899034D01*
X145750538Y-115899038D01*
X145875961Y-116024461D01*
X145875965Y-116024464D01*
X146023446Y-116123009D01*
X146023459Y-116123016D01*
X146146363Y-116173923D01*
X146187334Y-116190894D01*
X146187336Y-116190894D01*
X146187341Y-116190896D01*
X146361304Y-116225499D01*
X146361307Y-116225500D01*
X146361309Y-116225500D01*
X146538693Y-116225500D01*
X146538694Y-116225499D01*
X146596682Y-116213964D01*
X146712658Y-116190896D01*
X146712661Y-116190894D01*
X146712666Y-116190894D01*
X146876547Y-116123013D01*
X147024035Y-116024464D01*
X147149464Y-115899035D01*
X147248013Y-115751547D01*
X147260938Y-115720340D01*
X147304779Y-115665938D01*
X147371073Y-115643872D01*
X147438772Y-115661150D01*
X147486383Y-115712287D01*
X147499500Y-115767793D01*
X147499500Y-115788695D01*
X147534103Y-115962658D01*
X147534106Y-115962667D01*
X147601983Y-116126540D01*
X147601990Y-116126553D01*
X147700535Y-116274034D01*
X147700538Y-116274038D01*
X147825961Y-116399461D01*
X147825965Y-116399464D01*
X147973446Y-116498009D01*
X147973459Y-116498016D01*
X148036211Y-116524008D01*
X148137334Y-116565894D01*
X148137336Y-116565894D01*
X148137341Y-116565896D01*
X148311304Y-116600499D01*
X148311307Y-116600500D01*
X148311309Y-116600500D01*
X148488693Y-116600500D01*
X148488694Y-116600499D01*
X148546682Y-116588964D01*
X148662658Y-116565896D01*
X148662661Y-116565894D01*
X148662666Y-116565894D01*
X148826547Y-116498013D01*
X148974035Y-116399464D01*
X149099464Y-116274035D01*
X149198013Y-116126547D01*
X149199479Y-116123009D01*
X149218726Y-116076540D01*
X149265894Y-115962666D01*
X149267323Y-115955485D01*
X149300499Y-115788695D01*
X149300500Y-115788693D01*
X149300500Y-115611306D01*
X149300499Y-115611304D01*
X154499500Y-115611304D01*
X154499500Y-115788695D01*
X154534103Y-115962658D01*
X154534106Y-115962667D01*
X154601983Y-116126540D01*
X154601990Y-116126553D01*
X154700535Y-116274034D01*
X154700538Y-116274038D01*
X154825961Y-116399461D01*
X154825965Y-116399464D01*
X154973446Y-116498009D01*
X154973459Y-116498016D01*
X155036211Y-116524008D01*
X155137334Y-116565894D01*
X155137336Y-116565894D01*
X155137341Y-116565896D01*
X155311304Y-116600499D01*
X155311307Y-116600500D01*
X155311309Y-116600500D01*
X155488693Y-116600500D01*
X155488694Y-116600499D01*
X155546682Y-116588964D01*
X155662658Y-116565896D01*
X155662661Y-116565894D01*
X155662666Y-116565894D01*
X155826547Y-116498013D01*
X155974035Y-116399464D01*
X156099464Y-116274035D01*
X156198013Y-116126547D01*
X156199479Y-116123009D01*
X156218726Y-116076540D01*
X156265894Y-115962666D01*
X156267323Y-115955485D01*
X156300499Y-115788695D01*
X156300500Y-115788693D01*
X156300500Y-115611306D01*
X156300499Y-115611304D01*
X156265896Y-115437341D01*
X156265893Y-115437332D01*
X156256102Y-115413695D01*
X156242613Y-115381127D01*
X156198016Y-115273459D01*
X156198009Y-115273446D01*
X156099464Y-115125965D01*
X156099461Y-115125961D01*
X155974038Y-115000538D01*
X155974034Y-115000535D01*
X155826553Y-114901990D01*
X155826540Y-114901983D01*
X155662667Y-114834106D01*
X155662658Y-114834103D01*
X155488694Y-114799500D01*
X155488691Y-114799500D01*
X155311309Y-114799500D01*
X155311306Y-114799500D01*
X155137341Y-114834103D01*
X155137332Y-114834106D01*
X154973459Y-114901983D01*
X154973446Y-114901990D01*
X154825965Y-115000535D01*
X154825961Y-115000538D01*
X154700538Y-115125961D01*
X154700535Y-115125965D01*
X154601990Y-115273446D01*
X154601983Y-115273459D01*
X154534106Y-115437332D01*
X154534103Y-115437341D01*
X154499500Y-115611304D01*
X149300499Y-115611304D01*
X149265896Y-115437341D01*
X149265893Y-115437332D01*
X149256102Y-115413695D01*
X149242613Y-115381127D01*
X149198016Y-115273459D01*
X149198009Y-115273446D01*
X149099464Y-115125965D01*
X149099461Y-115125961D01*
X148974038Y-115000538D01*
X148974034Y-115000535D01*
X148826553Y-114901990D01*
X148826540Y-114901983D01*
X148662667Y-114834106D01*
X148662658Y-114834103D01*
X148488694Y-114799500D01*
X148488691Y-114799500D01*
X148311309Y-114799500D01*
X148311306Y-114799500D01*
X148137341Y-114834103D01*
X148137332Y-114834106D01*
X147973459Y-114901983D01*
X147973446Y-114901990D01*
X147825965Y-115000535D01*
X147825961Y-115000538D01*
X147700538Y-115125961D01*
X147700535Y-115125965D01*
X147601990Y-115273446D01*
X147601983Y-115273459D01*
X147589061Y-115304658D01*
X147545220Y-115359062D01*
X147478926Y-115381127D01*
X147411227Y-115363848D01*
X147363616Y-115312711D01*
X147352233Y-115277862D01*
X147350500Y-115267603D01*
X147350500Y-115236309D01*
X147315894Y-115062334D01*
X147315772Y-115062039D01*
X147315116Y-115058156D01*
X147315766Y-115052684D01*
X147315766Y-115013308D01*
X147328253Y-114950536D01*
X147337910Y-114901987D01*
X147350500Y-114838693D01*
X147350500Y-114661306D01*
X147315766Y-114486692D01*
X147315766Y-114438308D01*
X147350500Y-114263693D01*
X147350500Y-114086306D01*
X147350499Y-114086304D01*
X147315896Y-113912341D01*
X147315893Y-113912332D01*
X147248016Y-113748459D01*
X147248012Y-113748452D01*
X147248008Y-113748446D01*
X147156372Y-113611304D01*
X155499500Y-113611304D01*
X155499500Y-113788695D01*
X155534103Y-113962658D01*
X155534106Y-113962667D01*
X155601983Y-114126540D01*
X155601990Y-114126553D01*
X155700535Y-114274034D01*
X155700538Y-114274038D01*
X155825961Y-114399461D01*
X155825965Y-114399464D01*
X155973446Y-114498009D01*
X155973459Y-114498016D01*
X156096363Y-114548923D01*
X156137334Y-114565894D01*
X156137336Y-114565894D01*
X156137341Y-114565896D01*
X156311304Y-114600499D01*
X156311307Y-114600500D01*
X156311309Y-114600500D01*
X156488693Y-114600500D01*
X156488694Y-114600499D01*
X156546682Y-114588964D01*
X156662658Y-114565896D01*
X156662661Y-114565894D01*
X156662666Y-114565894D01*
X156826547Y-114498013D01*
X156974035Y-114399464D01*
X157099464Y-114274035D01*
X157198013Y-114126547D01*
X157265894Y-113962666D01*
X157275905Y-113912341D01*
X157300499Y-113788695D01*
X157300500Y-113788693D01*
X157300500Y-113611306D01*
X157300499Y-113611304D01*
X157265896Y-113437341D01*
X157265893Y-113437332D01*
X157198016Y-113273459D01*
X157198009Y-113273446D01*
X157099464Y-113125965D01*
X157099461Y-113125961D01*
X156974038Y-113000538D01*
X156974034Y-113000535D01*
X156826553Y-112901990D01*
X156826540Y-112901983D01*
X156662667Y-112834106D01*
X156662658Y-112834103D01*
X156488694Y-112799500D01*
X156488691Y-112799500D01*
X156311309Y-112799500D01*
X156311306Y-112799500D01*
X156137341Y-112834103D01*
X156137332Y-112834106D01*
X155973459Y-112901983D01*
X155973446Y-112901990D01*
X155825965Y-113000535D01*
X155825961Y-113000538D01*
X155700538Y-113125961D01*
X155700535Y-113125965D01*
X155601990Y-113273446D01*
X155601983Y-113273459D01*
X155534106Y-113437332D01*
X155534103Y-113437341D01*
X155499500Y-113611304D01*
X147156372Y-113611304D01*
X147149464Y-113600965D01*
X147149461Y-113600961D01*
X147024038Y-113475538D01*
X147024034Y-113475535D01*
X146876553Y-113376990D01*
X146876540Y-113376983D01*
X146712667Y-113309106D01*
X146712658Y-113309103D01*
X146538694Y-113274500D01*
X146538691Y-113274500D01*
X146361309Y-113274500D01*
X146361306Y-113274500D01*
X146187341Y-113309103D01*
X146187332Y-113309106D01*
X146023459Y-113376983D01*
X146023446Y-113376990D01*
X145875965Y-113475535D01*
X145875961Y-113475538D01*
X145750538Y-113600961D01*
X145750535Y-113600965D01*
X145651990Y-113748446D01*
X145651983Y-113748459D01*
X145584106Y-113912332D01*
X145584103Y-113912341D01*
X145549500Y-114086304D01*
X129000500Y-114086304D01*
X129000500Y-111981947D01*
X134900000Y-111981947D01*
X134900000Y-112218052D01*
X134936934Y-112451247D01*
X135009897Y-112675802D01*
X135117087Y-112886174D01*
X135177338Y-112969104D01*
X135177340Y-112969105D01*
X135835429Y-112311016D01*
X135840937Y-112331571D01*
X135919922Y-112468377D01*
X136031623Y-112580078D01*
X136168429Y-112659063D01*
X136188982Y-112664570D01*
X135530893Y-113322658D01*
X135613828Y-113382914D01*
X135824197Y-113490102D01*
X136048752Y-113563065D01*
X136048751Y-113563065D01*
X136281948Y-113600000D01*
X136518052Y-113600000D01*
X136751247Y-113563065D01*
X136975802Y-113490102D01*
X137186163Y-113382918D01*
X137186169Y-113382914D01*
X137269104Y-113322658D01*
X137269105Y-113322658D01*
X136611016Y-112664570D01*
X136631571Y-112659063D01*
X136768377Y-112580078D01*
X136880078Y-112468377D01*
X136959063Y-112331571D01*
X136964570Y-112311017D01*
X137622658Y-112969105D01*
X137622658Y-112969104D01*
X137682914Y-112886169D01*
X137682918Y-112886163D01*
X137790102Y-112675802D01*
X137863065Y-112451247D01*
X137900000Y-112218052D01*
X137900000Y-112081902D01*
X164499500Y-112081902D01*
X164499500Y-112318097D01*
X164536446Y-112551368D01*
X164609433Y-112775996D01*
X164673631Y-112901990D01*
X164716657Y-112986433D01*
X164855483Y-113177510D01*
X165022490Y-113344517D01*
X165213567Y-113483343D01*
X165312991Y-113534002D01*
X165424003Y-113590566D01*
X165424005Y-113590566D01*
X165424008Y-113590568D01*
X165544412Y-113629689D01*
X165648631Y-113663553D01*
X165881903Y-113700500D01*
X165881908Y-113700500D01*
X166118097Y-113700500D01*
X166351368Y-113663553D01*
X166575992Y-113590568D01*
X166786433Y-113483343D01*
X166977510Y-113344517D01*
X167144517Y-113177510D01*
X167283343Y-112986433D01*
X167390568Y-112775992D01*
X167463553Y-112551368D01*
X167500500Y-112318097D01*
X167500500Y-112081902D01*
X167463553Y-111848631D01*
X167415422Y-111700500D01*
X167390568Y-111624008D01*
X167390566Y-111624005D01*
X167390566Y-111624003D01*
X167283342Y-111413566D01*
X167254621Y-111374035D01*
X167144517Y-111222490D01*
X166977510Y-111055483D01*
X166786433Y-110916657D01*
X166575996Y-110809433D01*
X166351368Y-110736446D01*
X166118097Y-110699500D01*
X166118092Y-110699500D01*
X165881908Y-110699500D01*
X165881903Y-110699500D01*
X165648631Y-110736446D01*
X165424003Y-110809433D01*
X165213566Y-110916657D01*
X165104550Y-110995862D01*
X165022490Y-111055483D01*
X165022488Y-111055485D01*
X165022487Y-111055485D01*
X164855485Y-111222487D01*
X164855485Y-111222488D01*
X164855483Y-111222490D01*
X164795862Y-111304550D01*
X164716657Y-111413566D01*
X164609433Y-111624003D01*
X164536446Y-111848631D01*
X164499500Y-112081902D01*
X137900000Y-112081902D01*
X137900000Y-111981947D01*
X137863065Y-111748752D01*
X137790102Y-111524197D01*
X137682914Y-111313828D01*
X137622658Y-111230894D01*
X137622658Y-111230893D01*
X136964570Y-111888982D01*
X136959063Y-111868429D01*
X136880078Y-111731623D01*
X136768377Y-111619922D01*
X136631571Y-111540937D01*
X136611016Y-111535429D01*
X137269105Y-110877340D01*
X137269104Y-110877338D01*
X137186173Y-110817085D01*
X137183459Y-110815703D01*
X137183458Y-110815702D01*
X137183456Y-110815702D01*
X136978563Y-110711304D01*
X149759500Y-110711304D01*
X149759500Y-110888695D01*
X149794103Y-111062658D01*
X149794106Y-111062667D01*
X149861983Y-111226540D01*
X149861990Y-111226553D01*
X149960535Y-111374034D01*
X149960538Y-111374038D01*
X150085961Y-111499461D01*
X150085965Y-111499464D01*
X150233446Y-111598009D01*
X150233459Y-111598016D01*
X150296211Y-111624008D01*
X150397334Y-111665894D01*
X150397336Y-111665894D01*
X150397341Y-111665896D01*
X150571304Y-111700499D01*
X150571307Y-111700500D01*
X150571309Y-111700500D01*
X150748693Y-111700500D01*
X150748694Y-111700499D01*
X150806682Y-111688964D01*
X150922658Y-111665896D01*
X150922661Y-111665894D01*
X150922666Y-111665894D01*
X151086547Y-111598013D01*
X151234035Y-111499464D01*
X151359464Y-111374035D01*
X151458013Y-111226547D01*
X151459694Y-111222490D01*
X151467958Y-111202535D01*
X151525894Y-111062666D01*
X151527323Y-111055485D01*
X151560499Y-110888695D01*
X151560500Y-110888693D01*
X151560500Y-110711306D01*
X151560499Y-110711304D01*
X151525896Y-110537341D01*
X151525893Y-110537332D01*
X151458016Y-110373459D01*
X151458009Y-110373446D01*
X151359464Y-110225965D01*
X151359461Y-110225961D01*
X151234038Y-110100538D01*
X151234034Y-110100535D01*
X151086553Y-110001990D01*
X151086540Y-110001983D01*
X150922667Y-109934106D01*
X150922658Y-109934103D01*
X150748694Y-109899500D01*
X150748691Y-109899500D01*
X150571309Y-109899500D01*
X150571306Y-109899500D01*
X150397341Y-109934103D01*
X150397332Y-109934106D01*
X150233459Y-110001983D01*
X150233446Y-110001990D01*
X150085965Y-110100535D01*
X150085961Y-110100538D01*
X149960538Y-110225961D01*
X149960535Y-110225965D01*
X149861990Y-110373446D01*
X149861983Y-110373459D01*
X149794106Y-110537332D01*
X149794103Y-110537341D01*
X149759500Y-110711304D01*
X136978563Y-110711304D01*
X136975802Y-110709897D01*
X136751247Y-110636934D01*
X136751248Y-110636934D01*
X136518052Y-110600000D01*
X136281948Y-110600000D01*
X136048752Y-110636934D01*
X135824197Y-110709897D01*
X135613830Y-110817084D01*
X135530894Y-110877340D01*
X136188983Y-111535429D01*
X136168429Y-111540937D01*
X136031623Y-111619922D01*
X135919922Y-111731623D01*
X135840937Y-111868429D01*
X135835429Y-111888983D01*
X135177340Y-111230894D01*
X135117084Y-111313830D01*
X135009897Y-111524197D01*
X134936934Y-111748752D01*
X134900000Y-111981947D01*
X129000500Y-111981947D01*
X129000500Y-108504427D01*
X129000816Y-108495581D01*
X129014002Y-108311220D01*
X129015207Y-108300711D01*
X129021394Y-108261644D01*
X129022685Y-108254777D01*
X129057370Y-108095331D01*
X129060588Y-108083431D01*
X129070237Y-108053734D01*
X129071935Y-108048867D01*
X129132203Y-107887282D01*
X129137880Y-107874367D01*
X129142553Y-107865196D01*
X129144151Y-107862169D01*
X129234295Y-107697082D01*
X129243845Y-107682221D01*
X129361448Y-107525123D01*
X129373020Y-107511769D01*
X129511769Y-107373020D01*
X129525123Y-107361448D01*
X129682221Y-107243845D01*
X129697082Y-107234295D01*
X129862169Y-107144151D01*
X129865196Y-107142553D01*
X129874367Y-107137880D01*
X129887282Y-107132203D01*
X130048867Y-107071935D01*
X130053734Y-107070237D01*
X130083431Y-107060588D01*
X130095331Y-107057370D01*
X130254777Y-107022685D01*
X130261644Y-107021394D01*
X130300711Y-107015207D01*
X130311223Y-107014001D01*
X130495582Y-107000816D01*
X130504428Y-107000500D01*
X171995572Y-107000500D01*
X172004418Y-107000816D01*
G37*
%TD.AperFunction*%
%TD*%
M02*
