%TF.GenerationSoftware,KiCad,Pcbnew,9.0.7*%
%TF.CreationDate,2026-01-20T23:43:31-08:00*%
%TF.ProjectId,PCBs,50434273-2e6b-4696-9361-645f70636258,rev?*%
%TF.SameCoordinates,Original*%
%TF.FileFunction,Legend,Top*%
%TF.FilePolarity,Positive*%
%FSLAX46Y46*%
G04 Gerber Fmt 4.6, Leading zero omitted, Abs format (unit mm)*
G04 Created by KiCad (PCBNEW 9.0.7) date 2026-01-20 23:43:31*
%MOMM*%
%LPD*%
G01*
G04 APERTURE LIST*
%ADD10C,0.075000*%
%ADD11C,0.300000*%
%ADD12C,0.150000*%
%ADD13C,0.250000*%
%ADD14C,0.120000*%
G04 APERTURE END LIST*
D10*
X144677913Y-118249667D02*
X144735056Y-118268715D01*
X144735056Y-118268715D02*
X144754103Y-118287763D01*
X144754103Y-118287763D02*
X144773151Y-118325858D01*
X144773151Y-118325858D02*
X144773151Y-118383001D01*
X144773151Y-118383001D02*
X144754103Y-118421096D01*
X144754103Y-118421096D02*
X144735056Y-118440144D01*
X144735056Y-118440144D02*
X144696961Y-118459191D01*
X144696961Y-118459191D02*
X144544580Y-118459191D01*
X144544580Y-118459191D02*
X144544580Y-118059191D01*
X144544580Y-118059191D02*
X144677913Y-118059191D01*
X144677913Y-118059191D02*
X144716008Y-118078239D01*
X144716008Y-118078239D02*
X144735056Y-118097286D01*
X144735056Y-118097286D02*
X144754103Y-118135382D01*
X144754103Y-118135382D02*
X144754103Y-118173477D01*
X144754103Y-118173477D02*
X144735056Y-118211572D01*
X144735056Y-118211572D02*
X144716008Y-118230620D01*
X144716008Y-118230620D02*
X144677913Y-118249667D01*
X144677913Y-118249667D02*
X144544580Y-118249667D01*
X145116008Y-118192524D02*
X145116008Y-118459191D01*
X144944580Y-118192524D02*
X144944580Y-118402048D01*
X144944580Y-118402048D02*
X144963627Y-118440144D01*
X144963627Y-118440144D02*
X145001722Y-118459191D01*
X145001722Y-118459191D02*
X145058865Y-118459191D01*
X145058865Y-118459191D02*
X145096961Y-118440144D01*
X145096961Y-118440144D02*
X145116008Y-118421096D01*
X145477913Y-118440144D02*
X145439818Y-118459191D01*
X145439818Y-118459191D02*
X145363627Y-118459191D01*
X145363627Y-118459191D02*
X145325532Y-118440144D01*
X145325532Y-118440144D02*
X145306485Y-118421096D01*
X145306485Y-118421096D02*
X145287437Y-118383001D01*
X145287437Y-118383001D02*
X145287437Y-118268715D01*
X145287437Y-118268715D02*
X145306485Y-118230620D01*
X145306485Y-118230620D02*
X145325532Y-118211572D01*
X145325532Y-118211572D02*
X145363627Y-118192524D01*
X145363627Y-118192524D02*
X145439818Y-118192524D01*
X145439818Y-118192524D02*
X145477913Y-118211572D01*
X145649342Y-118459191D02*
X145649342Y-118059191D01*
X145687437Y-118306810D02*
X145801723Y-118459191D01*
X145801723Y-118192524D02*
X145649342Y-118344905D01*
X146506485Y-118421096D02*
X146487437Y-118440144D01*
X146487437Y-118440144D02*
X146430295Y-118459191D01*
X146430295Y-118459191D02*
X146392199Y-118459191D01*
X146392199Y-118459191D02*
X146335056Y-118440144D01*
X146335056Y-118440144D02*
X146296961Y-118402048D01*
X146296961Y-118402048D02*
X146277914Y-118363953D01*
X146277914Y-118363953D02*
X146258866Y-118287763D01*
X146258866Y-118287763D02*
X146258866Y-118230620D01*
X146258866Y-118230620D02*
X146277914Y-118154429D01*
X146277914Y-118154429D02*
X146296961Y-118116334D01*
X146296961Y-118116334D02*
X146335056Y-118078239D01*
X146335056Y-118078239D02*
X146392199Y-118059191D01*
X146392199Y-118059191D02*
X146430295Y-118059191D01*
X146430295Y-118059191D02*
X146487437Y-118078239D01*
X146487437Y-118078239D02*
X146506485Y-118097286D01*
X146735056Y-118459191D02*
X146696961Y-118440144D01*
X146696961Y-118440144D02*
X146677914Y-118421096D01*
X146677914Y-118421096D02*
X146658866Y-118383001D01*
X146658866Y-118383001D02*
X146658866Y-118268715D01*
X146658866Y-118268715D02*
X146677914Y-118230620D01*
X146677914Y-118230620D02*
X146696961Y-118211572D01*
X146696961Y-118211572D02*
X146735056Y-118192524D01*
X146735056Y-118192524D02*
X146792199Y-118192524D01*
X146792199Y-118192524D02*
X146830295Y-118211572D01*
X146830295Y-118211572D02*
X146849342Y-118230620D01*
X146849342Y-118230620D02*
X146868390Y-118268715D01*
X146868390Y-118268715D02*
X146868390Y-118383001D01*
X146868390Y-118383001D02*
X146849342Y-118421096D01*
X146849342Y-118421096D02*
X146830295Y-118440144D01*
X146830295Y-118440144D02*
X146792199Y-118459191D01*
X146792199Y-118459191D02*
X146735056Y-118459191D01*
X147039819Y-118192524D02*
X147039819Y-118459191D01*
X147039819Y-118230620D02*
X147058866Y-118211572D01*
X147058866Y-118211572D02*
X147096961Y-118192524D01*
X147096961Y-118192524D02*
X147154104Y-118192524D01*
X147154104Y-118192524D02*
X147192200Y-118211572D01*
X147192200Y-118211572D02*
X147211247Y-118249667D01*
X147211247Y-118249667D02*
X147211247Y-118459191D01*
X147363628Y-118192524D02*
X147458866Y-118459191D01*
X147458866Y-118459191D02*
X147554105Y-118192524D01*
X147858867Y-118440144D02*
X147820771Y-118459191D01*
X147820771Y-118459191D02*
X147744581Y-118459191D01*
X147744581Y-118459191D02*
X147706486Y-118440144D01*
X147706486Y-118440144D02*
X147687438Y-118402048D01*
X147687438Y-118402048D02*
X147687438Y-118249667D01*
X147687438Y-118249667D02*
X147706486Y-118211572D01*
X147706486Y-118211572D02*
X147744581Y-118192524D01*
X147744581Y-118192524D02*
X147820771Y-118192524D01*
X147820771Y-118192524D02*
X147858867Y-118211572D01*
X147858867Y-118211572D02*
X147877914Y-118249667D01*
X147877914Y-118249667D02*
X147877914Y-118287763D01*
X147877914Y-118287763D02*
X147687438Y-118325858D01*
X148049343Y-118459191D02*
X148049343Y-118192524D01*
X148049343Y-118268715D02*
X148068390Y-118230620D01*
X148068390Y-118230620D02*
X148087438Y-118211572D01*
X148087438Y-118211572D02*
X148125533Y-118192524D01*
X148125533Y-118192524D02*
X148163628Y-118192524D01*
X148239819Y-118192524D02*
X148392200Y-118192524D01*
X148296962Y-118059191D02*
X148296962Y-118402048D01*
X148296962Y-118402048D02*
X148316009Y-118440144D01*
X148316009Y-118440144D02*
X148354104Y-118459191D01*
X148354104Y-118459191D02*
X148392200Y-118459191D01*
X148677914Y-118440144D02*
X148639818Y-118459191D01*
X148639818Y-118459191D02*
X148563628Y-118459191D01*
X148563628Y-118459191D02*
X148525533Y-118440144D01*
X148525533Y-118440144D02*
X148506485Y-118402048D01*
X148506485Y-118402048D02*
X148506485Y-118249667D01*
X148506485Y-118249667D02*
X148525533Y-118211572D01*
X148525533Y-118211572D02*
X148563628Y-118192524D01*
X148563628Y-118192524D02*
X148639818Y-118192524D01*
X148639818Y-118192524D02*
X148677914Y-118211572D01*
X148677914Y-118211572D02*
X148696961Y-118249667D01*
X148696961Y-118249667D02*
X148696961Y-118287763D01*
X148696961Y-118287763D02*
X148506485Y-118325858D01*
X148868390Y-118459191D02*
X148868390Y-118192524D01*
X148868390Y-118268715D02*
X148887437Y-118230620D01*
X148887437Y-118230620D02*
X148906485Y-118211572D01*
X148906485Y-118211572D02*
X148944580Y-118192524D01*
X148944580Y-118192524D02*
X148982675Y-118192524D01*
X149363628Y-118059191D02*
X149496961Y-118459191D01*
X149496961Y-118459191D02*
X149630294Y-118059191D01*
X149973151Y-118459191D02*
X149744580Y-118459191D01*
X149858866Y-118459191D02*
X149858866Y-118059191D01*
X149858866Y-118059191D02*
X149820770Y-118116334D01*
X149820770Y-118116334D02*
X149782675Y-118154429D01*
X149782675Y-118154429D02*
X149744580Y-118173477D01*
X150144580Y-118421096D02*
X150163627Y-118440144D01*
X150163627Y-118440144D02*
X150144580Y-118459191D01*
X150144580Y-118459191D02*
X150125532Y-118440144D01*
X150125532Y-118440144D02*
X150144580Y-118421096D01*
X150144580Y-118421096D02*
X150144580Y-118459191D01*
X150411246Y-118059191D02*
X150449341Y-118059191D01*
X150449341Y-118059191D02*
X150487437Y-118078239D01*
X150487437Y-118078239D02*
X150506484Y-118097286D01*
X150506484Y-118097286D02*
X150525532Y-118135382D01*
X150525532Y-118135382D02*
X150544579Y-118211572D01*
X150544579Y-118211572D02*
X150544579Y-118306810D01*
X150544579Y-118306810D02*
X150525532Y-118383001D01*
X150525532Y-118383001D02*
X150506484Y-118421096D01*
X150506484Y-118421096D02*
X150487437Y-118440144D01*
X150487437Y-118440144D02*
X150449341Y-118459191D01*
X150449341Y-118459191D02*
X150411246Y-118459191D01*
X150411246Y-118459191D02*
X150373151Y-118440144D01*
X150373151Y-118440144D02*
X150354103Y-118421096D01*
X150354103Y-118421096D02*
X150335056Y-118383001D01*
X150335056Y-118383001D02*
X150316008Y-118306810D01*
X150316008Y-118306810D02*
X150316008Y-118211572D01*
X150316008Y-118211572D02*
X150335056Y-118135382D01*
X150335056Y-118135382D02*
X150354103Y-118097286D01*
X150354103Y-118097286D02*
X150373151Y-118078239D01*
X150373151Y-118078239D02*
X150411246Y-118059191D01*
X150792198Y-118059191D02*
X150830293Y-118059191D01*
X150830293Y-118059191D02*
X150868389Y-118078239D01*
X150868389Y-118078239D02*
X150887436Y-118097286D01*
X150887436Y-118097286D02*
X150906484Y-118135382D01*
X150906484Y-118135382D02*
X150925531Y-118211572D01*
X150925531Y-118211572D02*
X150925531Y-118306810D01*
X150925531Y-118306810D02*
X150906484Y-118383001D01*
X150906484Y-118383001D02*
X150887436Y-118421096D01*
X150887436Y-118421096D02*
X150868389Y-118440144D01*
X150868389Y-118440144D02*
X150830293Y-118459191D01*
X150830293Y-118459191D02*
X150792198Y-118459191D01*
X150792198Y-118459191D02*
X150754103Y-118440144D01*
X150754103Y-118440144D02*
X150735055Y-118421096D01*
X150735055Y-118421096D02*
X150716008Y-118383001D01*
X150716008Y-118383001D02*
X150696960Y-118306810D01*
X150696960Y-118306810D02*
X150696960Y-118211572D01*
X150696960Y-118211572D02*
X150716008Y-118135382D01*
X150716008Y-118135382D02*
X150735055Y-118097286D01*
X150735055Y-118097286D02*
X150754103Y-118078239D01*
X150754103Y-118078239D02*
X150792198Y-118059191D01*
X151611245Y-118459191D02*
X151382674Y-118459191D01*
X151496960Y-118459191D02*
X151496960Y-118059191D01*
X151496960Y-118059191D02*
X151458864Y-118116334D01*
X151458864Y-118116334D02*
X151420769Y-118154429D01*
X151420769Y-118154429D02*
X151382674Y-118173477D01*
X152068388Y-118040144D02*
X151725531Y-118554429D01*
X152182674Y-118097286D02*
X152201722Y-118078239D01*
X152201722Y-118078239D02*
X152239817Y-118059191D01*
X152239817Y-118059191D02*
X152335055Y-118059191D01*
X152335055Y-118059191D02*
X152373150Y-118078239D01*
X152373150Y-118078239D02*
X152392198Y-118097286D01*
X152392198Y-118097286D02*
X152411245Y-118135382D01*
X152411245Y-118135382D02*
X152411245Y-118173477D01*
X152411245Y-118173477D02*
X152392198Y-118230620D01*
X152392198Y-118230620D02*
X152163626Y-118459191D01*
X152163626Y-118459191D02*
X152411245Y-118459191D01*
X152658864Y-118059191D02*
X152696959Y-118059191D01*
X152696959Y-118059191D02*
X152735055Y-118078239D01*
X152735055Y-118078239D02*
X152754102Y-118097286D01*
X152754102Y-118097286D02*
X152773150Y-118135382D01*
X152773150Y-118135382D02*
X152792197Y-118211572D01*
X152792197Y-118211572D02*
X152792197Y-118306810D01*
X152792197Y-118306810D02*
X152773150Y-118383001D01*
X152773150Y-118383001D02*
X152754102Y-118421096D01*
X152754102Y-118421096D02*
X152735055Y-118440144D01*
X152735055Y-118440144D02*
X152696959Y-118459191D01*
X152696959Y-118459191D02*
X152658864Y-118459191D01*
X152658864Y-118459191D02*
X152620769Y-118440144D01*
X152620769Y-118440144D02*
X152601721Y-118421096D01*
X152601721Y-118421096D02*
X152582674Y-118383001D01*
X152582674Y-118383001D02*
X152563626Y-118306810D01*
X152563626Y-118306810D02*
X152563626Y-118211572D01*
X152563626Y-118211572D02*
X152582674Y-118135382D01*
X152582674Y-118135382D02*
X152601721Y-118097286D01*
X152601721Y-118097286D02*
X152620769Y-118078239D01*
X152620769Y-118078239D02*
X152658864Y-118059191D01*
X153249340Y-118040144D02*
X152906483Y-118554429D01*
X153363626Y-118097286D02*
X153382674Y-118078239D01*
X153382674Y-118078239D02*
X153420769Y-118059191D01*
X153420769Y-118059191D02*
X153516007Y-118059191D01*
X153516007Y-118059191D02*
X153554102Y-118078239D01*
X153554102Y-118078239D02*
X153573150Y-118097286D01*
X153573150Y-118097286D02*
X153592197Y-118135382D01*
X153592197Y-118135382D02*
X153592197Y-118173477D01*
X153592197Y-118173477D02*
X153573150Y-118230620D01*
X153573150Y-118230620D02*
X153344578Y-118459191D01*
X153344578Y-118459191D02*
X153592197Y-118459191D01*
X153935054Y-118059191D02*
X153858864Y-118059191D01*
X153858864Y-118059191D02*
X153820768Y-118078239D01*
X153820768Y-118078239D02*
X153801721Y-118097286D01*
X153801721Y-118097286D02*
X153763626Y-118154429D01*
X153763626Y-118154429D02*
X153744578Y-118230620D01*
X153744578Y-118230620D02*
X153744578Y-118383001D01*
X153744578Y-118383001D02*
X153763626Y-118421096D01*
X153763626Y-118421096D02*
X153782673Y-118440144D01*
X153782673Y-118440144D02*
X153820768Y-118459191D01*
X153820768Y-118459191D02*
X153896959Y-118459191D01*
X153896959Y-118459191D02*
X153935054Y-118440144D01*
X153935054Y-118440144D02*
X153954102Y-118421096D01*
X153954102Y-118421096D02*
X153973149Y-118383001D01*
X153973149Y-118383001D02*
X153973149Y-118287763D01*
X153973149Y-118287763D02*
X153954102Y-118249667D01*
X153954102Y-118249667D02*
X153935054Y-118230620D01*
X153935054Y-118230620D02*
X153896959Y-118211572D01*
X153896959Y-118211572D02*
X153820768Y-118211572D01*
X153820768Y-118211572D02*
X153782673Y-118230620D01*
X153782673Y-118230620D02*
X153763626Y-118249667D01*
X153763626Y-118249667D02*
X153744578Y-118287763D01*
X144544580Y-119103169D02*
X144544580Y-118703169D01*
X144735056Y-118836502D02*
X144735056Y-119103169D01*
X144735056Y-118874598D02*
X144754103Y-118855550D01*
X144754103Y-118855550D02*
X144792198Y-118836502D01*
X144792198Y-118836502D02*
X144849341Y-118836502D01*
X144849341Y-118836502D02*
X144887437Y-118855550D01*
X144887437Y-118855550D02*
X144906484Y-118893645D01*
X144906484Y-118893645D02*
X144906484Y-119103169D01*
X145096961Y-118836502D02*
X145096961Y-119236502D01*
X145096961Y-118855550D02*
X145135056Y-118836502D01*
X145135056Y-118836502D02*
X145211246Y-118836502D01*
X145211246Y-118836502D02*
X145249342Y-118855550D01*
X145249342Y-118855550D02*
X145268389Y-118874598D01*
X145268389Y-118874598D02*
X145287437Y-118912693D01*
X145287437Y-118912693D02*
X145287437Y-119026979D01*
X145287437Y-119026979D02*
X145268389Y-119065074D01*
X145268389Y-119065074D02*
X145249342Y-119084122D01*
X145249342Y-119084122D02*
X145211246Y-119103169D01*
X145211246Y-119103169D02*
X145135056Y-119103169D01*
X145135056Y-119103169D02*
X145096961Y-119084122D01*
X145630294Y-118836502D02*
X145630294Y-119103169D01*
X145458866Y-118836502D02*
X145458866Y-119046026D01*
X145458866Y-119046026D02*
X145477913Y-119084122D01*
X145477913Y-119084122D02*
X145516008Y-119103169D01*
X145516008Y-119103169D02*
X145573151Y-119103169D01*
X145573151Y-119103169D02*
X145611247Y-119084122D01*
X145611247Y-119084122D02*
X145630294Y-119065074D01*
X145763628Y-118836502D02*
X145916009Y-118836502D01*
X145820771Y-118703169D02*
X145820771Y-119046026D01*
X145820771Y-119046026D02*
X145839818Y-119084122D01*
X145839818Y-119084122D02*
X145877913Y-119103169D01*
X145877913Y-119103169D02*
X145916009Y-119103169D01*
X146316008Y-118703169D02*
X146563627Y-118703169D01*
X146563627Y-118703169D02*
X146430294Y-118855550D01*
X146430294Y-118855550D02*
X146487437Y-118855550D01*
X146487437Y-118855550D02*
X146525532Y-118874598D01*
X146525532Y-118874598D02*
X146544580Y-118893645D01*
X146544580Y-118893645D02*
X146563627Y-118931741D01*
X146563627Y-118931741D02*
X146563627Y-119026979D01*
X146563627Y-119026979D02*
X146544580Y-119065074D01*
X146544580Y-119065074D02*
X146525532Y-119084122D01*
X146525532Y-119084122D02*
X146487437Y-119103169D01*
X146487437Y-119103169D02*
X146373151Y-119103169D01*
X146373151Y-119103169D02*
X146335056Y-119084122D01*
X146335056Y-119084122D02*
X146316008Y-119065074D01*
X146735056Y-118950788D02*
X147039818Y-118950788D01*
X147439817Y-119103169D02*
X147211246Y-119103169D01*
X147325532Y-119103169D02*
X147325532Y-118703169D01*
X147325532Y-118703169D02*
X147287436Y-118760312D01*
X147287436Y-118760312D02*
X147249341Y-118798407D01*
X147249341Y-118798407D02*
X147211246Y-118817455D01*
X147573150Y-118703169D02*
X147839817Y-118703169D01*
X147839817Y-118703169D02*
X147668388Y-119103169D01*
X147935055Y-118703169D02*
X148068388Y-119103169D01*
X148068388Y-119103169D02*
X148201721Y-118703169D01*
X148639817Y-118950788D02*
X148944579Y-118950788D01*
X149135055Y-118836502D02*
X149439817Y-118950788D01*
X149439817Y-118950788D02*
X149135055Y-119065074D01*
X150068388Y-118893645D02*
X149935055Y-118893645D01*
X149935055Y-119103169D02*
X149935055Y-118703169D01*
X149935055Y-118703169D02*
X150125531Y-118703169D01*
X150277912Y-119103169D02*
X150277912Y-118836502D01*
X150277912Y-118703169D02*
X150258864Y-118722217D01*
X150258864Y-118722217D02*
X150277912Y-118741264D01*
X150277912Y-118741264D02*
X150296959Y-118722217D01*
X150296959Y-118722217D02*
X150277912Y-118703169D01*
X150277912Y-118703169D02*
X150277912Y-118741264D01*
X150430292Y-119103169D02*
X150639816Y-118836502D01*
X150430292Y-118836502D02*
X150639816Y-119103169D01*
X150944579Y-119084122D02*
X150906483Y-119103169D01*
X150906483Y-119103169D02*
X150830293Y-119103169D01*
X150830293Y-119103169D02*
X150792198Y-119084122D01*
X150792198Y-119084122D02*
X150773150Y-119046026D01*
X150773150Y-119046026D02*
X150773150Y-118893645D01*
X150773150Y-118893645D02*
X150792198Y-118855550D01*
X150792198Y-118855550D02*
X150830293Y-118836502D01*
X150830293Y-118836502D02*
X150906483Y-118836502D01*
X150906483Y-118836502D02*
X150944579Y-118855550D01*
X150944579Y-118855550D02*
X150963626Y-118893645D01*
X150963626Y-118893645D02*
X150963626Y-118931741D01*
X150963626Y-118931741D02*
X150773150Y-118969836D01*
X151306483Y-119103169D02*
X151306483Y-118703169D01*
X151306483Y-119084122D02*
X151268388Y-119103169D01*
X151268388Y-119103169D02*
X151192197Y-119103169D01*
X151192197Y-119103169D02*
X151154102Y-119084122D01*
X151154102Y-119084122D02*
X151135055Y-119065074D01*
X151135055Y-119065074D02*
X151116007Y-119026979D01*
X151116007Y-119026979D02*
X151116007Y-118912693D01*
X151116007Y-118912693D02*
X151135055Y-118874598D01*
X151135055Y-118874598D02*
X151154102Y-118855550D01*
X151154102Y-118855550D02*
X151192197Y-118836502D01*
X151192197Y-118836502D02*
X151268388Y-118836502D01*
X151268388Y-118836502D02*
X151306483Y-118855550D01*
X151763626Y-118703169D02*
X152011245Y-118703169D01*
X152011245Y-118703169D02*
X151877912Y-118855550D01*
X151877912Y-118855550D02*
X151935055Y-118855550D01*
X151935055Y-118855550D02*
X151973150Y-118874598D01*
X151973150Y-118874598D02*
X151992198Y-118893645D01*
X151992198Y-118893645D02*
X152011245Y-118931741D01*
X152011245Y-118931741D02*
X152011245Y-119026979D01*
X152011245Y-119026979D02*
X151992198Y-119065074D01*
X151992198Y-119065074D02*
X151973150Y-119084122D01*
X151973150Y-119084122D02*
X151935055Y-119103169D01*
X151935055Y-119103169D02*
X151820769Y-119103169D01*
X151820769Y-119103169D02*
X151782674Y-119084122D01*
X151782674Y-119084122D02*
X151763626Y-119065074D01*
X152182674Y-119065074D02*
X152201721Y-119084122D01*
X152201721Y-119084122D02*
X152182674Y-119103169D01*
X152182674Y-119103169D02*
X152163626Y-119084122D01*
X152163626Y-119084122D02*
X152182674Y-119065074D01*
X152182674Y-119065074D02*
X152182674Y-119103169D01*
X152335054Y-118703169D02*
X152582673Y-118703169D01*
X152582673Y-118703169D02*
X152449340Y-118855550D01*
X152449340Y-118855550D02*
X152506483Y-118855550D01*
X152506483Y-118855550D02*
X152544578Y-118874598D01*
X152544578Y-118874598D02*
X152563626Y-118893645D01*
X152563626Y-118893645D02*
X152582673Y-118931741D01*
X152582673Y-118931741D02*
X152582673Y-119026979D01*
X152582673Y-119026979D02*
X152563626Y-119065074D01*
X152563626Y-119065074D02*
X152544578Y-119084122D01*
X152544578Y-119084122D02*
X152506483Y-119103169D01*
X152506483Y-119103169D02*
X152392197Y-119103169D01*
X152392197Y-119103169D02*
X152354102Y-119084122D01*
X152354102Y-119084122D02*
X152335054Y-119065074D01*
X152696959Y-118703169D02*
X152830292Y-119103169D01*
X152830292Y-119103169D02*
X152963625Y-118703169D01*
X144735056Y-119347147D02*
X144544580Y-119347147D01*
X144544580Y-119347147D02*
X144525532Y-119537623D01*
X144525532Y-119537623D02*
X144544580Y-119518576D01*
X144544580Y-119518576D02*
X144582675Y-119499528D01*
X144582675Y-119499528D02*
X144677913Y-119499528D01*
X144677913Y-119499528D02*
X144716008Y-119518576D01*
X144716008Y-119518576D02*
X144735056Y-119537623D01*
X144735056Y-119537623D02*
X144754103Y-119575719D01*
X144754103Y-119575719D02*
X144754103Y-119670957D01*
X144754103Y-119670957D02*
X144735056Y-119709052D01*
X144735056Y-119709052D02*
X144716008Y-119728100D01*
X144716008Y-119728100D02*
X144677913Y-119747147D01*
X144677913Y-119747147D02*
X144582675Y-119747147D01*
X144582675Y-119747147D02*
X144544580Y-119728100D01*
X144544580Y-119728100D02*
X144525532Y-119709052D01*
X145001722Y-119347147D02*
X145039817Y-119347147D01*
X145039817Y-119347147D02*
X145077913Y-119366195D01*
X145077913Y-119366195D02*
X145096960Y-119385242D01*
X145096960Y-119385242D02*
X145116008Y-119423338D01*
X145116008Y-119423338D02*
X145135055Y-119499528D01*
X145135055Y-119499528D02*
X145135055Y-119594766D01*
X145135055Y-119594766D02*
X145116008Y-119670957D01*
X145116008Y-119670957D02*
X145096960Y-119709052D01*
X145096960Y-119709052D02*
X145077913Y-119728100D01*
X145077913Y-119728100D02*
X145039817Y-119747147D01*
X145039817Y-119747147D02*
X145001722Y-119747147D01*
X145001722Y-119747147D02*
X144963627Y-119728100D01*
X144963627Y-119728100D02*
X144944579Y-119709052D01*
X144944579Y-119709052D02*
X144925532Y-119670957D01*
X144925532Y-119670957D02*
X144906484Y-119594766D01*
X144906484Y-119594766D02*
X144906484Y-119499528D01*
X144906484Y-119499528D02*
X144925532Y-119423338D01*
X144925532Y-119423338D02*
X144944579Y-119385242D01*
X144944579Y-119385242D02*
X144963627Y-119366195D01*
X144963627Y-119366195D02*
X145001722Y-119347147D01*
X145382674Y-119347147D02*
X145420769Y-119347147D01*
X145420769Y-119347147D02*
X145458865Y-119366195D01*
X145458865Y-119366195D02*
X145477912Y-119385242D01*
X145477912Y-119385242D02*
X145496960Y-119423338D01*
X145496960Y-119423338D02*
X145516007Y-119499528D01*
X145516007Y-119499528D02*
X145516007Y-119594766D01*
X145516007Y-119594766D02*
X145496960Y-119670957D01*
X145496960Y-119670957D02*
X145477912Y-119709052D01*
X145477912Y-119709052D02*
X145458865Y-119728100D01*
X145458865Y-119728100D02*
X145420769Y-119747147D01*
X145420769Y-119747147D02*
X145382674Y-119747147D01*
X145382674Y-119747147D02*
X145344579Y-119728100D01*
X145344579Y-119728100D02*
X145325531Y-119709052D01*
X145325531Y-119709052D02*
X145306484Y-119670957D01*
X145306484Y-119670957D02*
X145287436Y-119594766D01*
X145287436Y-119594766D02*
X145287436Y-119499528D01*
X145287436Y-119499528D02*
X145306484Y-119423338D01*
X145306484Y-119423338D02*
X145325531Y-119385242D01*
X145325531Y-119385242D02*
X145344579Y-119366195D01*
X145344579Y-119366195D02*
X145382674Y-119347147D01*
X145687436Y-119747147D02*
X145687436Y-119480480D01*
X145687436Y-119518576D02*
X145706483Y-119499528D01*
X145706483Y-119499528D02*
X145744578Y-119480480D01*
X145744578Y-119480480D02*
X145801721Y-119480480D01*
X145801721Y-119480480D02*
X145839817Y-119499528D01*
X145839817Y-119499528D02*
X145858864Y-119537623D01*
X145858864Y-119537623D02*
X145858864Y-119747147D01*
X145858864Y-119537623D02*
X145877912Y-119499528D01*
X145877912Y-119499528D02*
X145916007Y-119480480D01*
X145916007Y-119480480D02*
X145973150Y-119480480D01*
X145973150Y-119480480D02*
X146011245Y-119499528D01*
X146011245Y-119499528D02*
X146030293Y-119537623D01*
X146030293Y-119537623D02*
X146030293Y-119747147D01*
X146201721Y-119632861D02*
X146392197Y-119632861D01*
X146163626Y-119747147D02*
X146296959Y-119347147D01*
X146296959Y-119347147D02*
X146430292Y-119747147D01*
D11*
X159479510Y-110254400D02*
X160622368Y-110254400D01*
X160050939Y-110825828D02*
X160050939Y-109682971D01*
X141954510Y-119304400D02*
X143097368Y-119304400D01*
X141904510Y-110229400D02*
X143047368Y-110229400D01*
X142475939Y-110800828D02*
X142475939Y-109657971D01*
X159504510Y-119304400D02*
X160647368Y-119304400D01*
D10*
X150866666Y-111327409D02*
X150700000Y-111089314D01*
X150580952Y-111327409D02*
X150580952Y-110827409D01*
X150580952Y-110827409D02*
X150771428Y-110827409D01*
X150771428Y-110827409D02*
X150819047Y-110851219D01*
X150819047Y-110851219D02*
X150842857Y-110875028D01*
X150842857Y-110875028D02*
X150866666Y-110922647D01*
X150866666Y-110922647D02*
X150866666Y-110994076D01*
X150866666Y-110994076D02*
X150842857Y-111041695D01*
X150842857Y-111041695D02*
X150819047Y-111065504D01*
X150819047Y-111065504D02*
X150771428Y-111089314D01*
X150771428Y-111089314D02*
X150580952Y-111089314D01*
X151342857Y-111327409D02*
X151057143Y-111327409D01*
X151200000Y-111327409D02*
X151200000Y-110827409D01*
X151200000Y-110827409D02*
X151152381Y-110898838D01*
X151152381Y-110898838D02*
X151104762Y-110946457D01*
X151104762Y-110946457D02*
X151057143Y-110970266D01*
X144740476Y-111267409D02*
X144502381Y-111267409D01*
X144502381Y-111267409D02*
X144502381Y-110767409D01*
X144907143Y-111005504D02*
X145073810Y-111005504D01*
X145145238Y-111267409D02*
X144907143Y-111267409D01*
X144907143Y-111267409D02*
X144907143Y-110767409D01*
X144907143Y-110767409D02*
X145145238Y-110767409D01*
X145359524Y-111267409D02*
X145359524Y-110767409D01*
X145359524Y-110767409D02*
X145478572Y-110767409D01*
X145478572Y-110767409D02*
X145550000Y-110791219D01*
X145550000Y-110791219D02*
X145597619Y-110838838D01*
X145597619Y-110838838D02*
X145621429Y-110886457D01*
X145621429Y-110886457D02*
X145645238Y-110981695D01*
X145645238Y-110981695D02*
X145645238Y-111053123D01*
X145645238Y-111053123D02*
X145621429Y-111148361D01*
X145621429Y-111148361D02*
X145597619Y-111195980D01*
X145597619Y-111195980D02*
X145550000Y-111243600D01*
X145550000Y-111243600D02*
X145478572Y-111267409D01*
X145478572Y-111267409D02*
X145359524Y-111267409D01*
X146121429Y-111267409D02*
X145835715Y-111267409D01*
X145978572Y-111267409D02*
X145978572Y-110767409D01*
X145978572Y-110767409D02*
X145930953Y-110838838D01*
X145930953Y-110838838D02*
X145883334Y-110886457D01*
X145883334Y-110886457D02*
X145835715Y-110910266D01*
X142105952Y-111777409D02*
X142105952Y-111277409D01*
X142105952Y-111277409D02*
X142296428Y-111277409D01*
X142296428Y-111277409D02*
X142344047Y-111301219D01*
X142344047Y-111301219D02*
X142367857Y-111325028D01*
X142367857Y-111325028D02*
X142391666Y-111372647D01*
X142391666Y-111372647D02*
X142391666Y-111444076D01*
X142391666Y-111444076D02*
X142367857Y-111491695D01*
X142367857Y-111491695D02*
X142344047Y-111515504D01*
X142344047Y-111515504D02*
X142296428Y-111539314D01*
X142296428Y-111539314D02*
X142105952Y-111539314D01*
X142867857Y-111777409D02*
X142582143Y-111777409D01*
X142725000Y-111777409D02*
X142725000Y-111277409D01*
X142725000Y-111277409D02*
X142677381Y-111348838D01*
X142677381Y-111348838D02*
X142629762Y-111396457D01*
X142629762Y-111396457D02*
X142582143Y-111420266D01*
X143241666Y-117204790D02*
X143217857Y-117228600D01*
X143217857Y-117228600D02*
X143146428Y-117252409D01*
X143146428Y-117252409D02*
X143098809Y-117252409D01*
X143098809Y-117252409D02*
X143027381Y-117228600D01*
X143027381Y-117228600D02*
X142979762Y-117180980D01*
X142979762Y-117180980D02*
X142955952Y-117133361D01*
X142955952Y-117133361D02*
X142932143Y-117038123D01*
X142932143Y-117038123D02*
X142932143Y-116966695D01*
X142932143Y-116966695D02*
X142955952Y-116871457D01*
X142955952Y-116871457D02*
X142979762Y-116823838D01*
X142979762Y-116823838D02*
X143027381Y-116776219D01*
X143027381Y-116776219D02*
X143098809Y-116752409D01*
X143098809Y-116752409D02*
X143146428Y-116752409D01*
X143146428Y-116752409D02*
X143217857Y-116776219D01*
X143217857Y-116776219D02*
X143241666Y-116800028D01*
X143717857Y-117252409D02*
X143432143Y-117252409D01*
X143575000Y-117252409D02*
X143575000Y-116752409D01*
X143575000Y-116752409D02*
X143527381Y-116823838D01*
X143527381Y-116823838D02*
X143479762Y-116871457D01*
X143479762Y-116871457D02*
X143432143Y-116895266D01*
X156466666Y-118929790D02*
X156442857Y-118953600D01*
X156442857Y-118953600D02*
X156371428Y-118977409D01*
X156371428Y-118977409D02*
X156323809Y-118977409D01*
X156323809Y-118977409D02*
X156252381Y-118953600D01*
X156252381Y-118953600D02*
X156204762Y-118905980D01*
X156204762Y-118905980D02*
X156180952Y-118858361D01*
X156180952Y-118858361D02*
X156157143Y-118763123D01*
X156157143Y-118763123D02*
X156157143Y-118691695D01*
X156157143Y-118691695D02*
X156180952Y-118596457D01*
X156180952Y-118596457D02*
X156204762Y-118548838D01*
X156204762Y-118548838D02*
X156252381Y-118501219D01*
X156252381Y-118501219D02*
X156323809Y-118477409D01*
X156323809Y-118477409D02*
X156371428Y-118477409D01*
X156371428Y-118477409D02*
X156442857Y-118501219D01*
X156442857Y-118501219D02*
X156466666Y-118525028D01*
X156657143Y-118525028D02*
X156680952Y-118501219D01*
X156680952Y-118501219D02*
X156728571Y-118477409D01*
X156728571Y-118477409D02*
X156847619Y-118477409D01*
X156847619Y-118477409D02*
X156895238Y-118501219D01*
X156895238Y-118501219D02*
X156919047Y-118525028D01*
X156919047Y-118525028D02*
X156942857Y-118572647D01*
X156942857Y-118572647D02*
X156942857Y-118620266D01*
X156942857Y-118620266D02*
X156919047Y-118691695D01*
X156919047Y-118691695D02*
X156633333Y-118977409D01*
X156633333Y-118977409D02*
X156942857Y-118977409D01*
X151916666Y-112027409D02*
X151678571Y-112027409D01*
X151678571Y-112027409D02*
X151678571Y-111527409D01*
X152345238Y-112027409D02*
X152059524Y-112027409D01*
X152202381Y-112027409D02*
X152202381Y-111527409D01*
X152202381Y-111527409D02*
X152154762Y-111598838D01*
X152154762Y-111598838D02*
X152107143Y-111646457D01*
X152107143Y-111646457D02*
X152059524Y-111670266D01*
X146094047Y-116552409D02*
X146094047Y-116957171D01*
X146094047Y-116957171D02*
X146117857Y-117004790D01*
X146117857Y-117004790D02*
X146141666Y-117028600D01*
X146141666Y-117028600D02*
X146189285Y-117052409D01*
X146189285Y-117052409D02*
X146284523Y-117052409D01*
X146284523Y-117052409D02*
X146332142Y-117028600D01*
X146332142Y-117028600D02*
X146355952Y-117004790D01*
X146355952Y-117004790D02*
X146379761Y-116957171D01*
X146379761Y-116957171D02*
X146379761Y-116552409D01*
X146879762Y-117052409D02*
X146594048Y-117052409D01*
X146736905Y-117052409D02*
X146736905Y-116552409D01*
X146736905Y-116552409D02*
X146689286Y-116623838D01*
X146689286Y-116623838D02*
X146641667Y-116671457D01*
X146641667Y-116671457D02*
X146594048Y-116695266D01*
X159680952Y-111777409D02*
X159680952Y-111277409D01*
X159680952Y-111277409D02*
X159871428Y-111277409D01*
X159871428Y-111277409D02*
X159919047Y-111301219D01*
X159919047Y-111301219D02*
X159942857Y-111325028D01*
X159942857Y-111325028D02*
X159966666Y-111372647D01*
X159966666Y-111372647D02*
X159966666Y-111444076D01*
X159966666Y-111444076D02*
X159942857Y-111491695D01*
X159942857Y-111491695D02*
X159919047Y-111515504D01*
X159919047Y-111515504D02*
X159871428Y-111539314D01*
X159871428Y-111539314D02*
X159680952Y-111539314D01*
X160157143Y-111325028D02*
X160180952Y-111301219D01*
X160180952Y-111301219D02*
X160228571Y-111277409D01*
X160228571Y-111277409D02*
X160347619Y-111277409D01*
X160347619Y-111277409D02*
X160395238Y-111301219D01*
X160395238Y-111301219D02*
X160419047Y-111325028D01*
X160419047Y-111325028D02*
X160442857Y-111372647D01*
X160442857Y-111372647D02*
X160442857Y-111420266D01*
X160442857Y-111420266D02*
X160419047Y-111491695D01*
X160419047Y-111491695D02*
X160133333Y-111777409D01*
X160133333Y-111777409D02*
X160442857Y-111777409D01*
D12*
%TO.C,R1*%
X151870000Y-109500000D02*
X151160000Y-109500000D01*
X151870000Y-110500000D02*
X151870000Y-109500000D01*
X151160000Y-110500000D02*
X151870000Y-110500000D01*
X149990000Y-109500000D02*
X150700000Y-109500000D01*
X149990000Y-110500000D02*
X149990000Y-109500000D01*
X150700000Y-110500000D02*
X149990000Y-110500000D01*
D13*
%TO.C,LED1*%
X146380000Y-112890000D02*
X146380000Y-111370000D01*
X146760000Y-113270000D02*
X146380000Y-112890000D01*
X148030000Y-113270000D02*
X146760000Y-113270000D01*
X148440000Y-112860000D02*
X148030000Y-113270000D01*
X148440000Y-111390000D02*
X148440000Y-112860000D01*
X146380000Y-109050000D02*
X146380000Y-110600000D01*
X148420000Y-109050000D02*
X146380000Y-109050000D01*
X148420000Y-110600000D02*
X148420000Y-109050000D01*
X146900000Y-110850000D02*
X147900000Y-110850000D01*
X147500000Y-111250000D02*
X147900000Y-110850000D01*
X147400000Y-111350000D02*
X147500000Y-111250000D01*
X147300000Y-111250000D02*
X147400000Y-111350000D01*
X146900000Y-110850000D02*
X147300000Y-111250000D01*
%TO.C,P1*%
X139940000Y-109650000D02*
X139940000Y-119650000D01*
X138290000Y-109650000D02*
X138290000Y-119650000D01*
X133910000Y-109650000D02*
X133910000Y-119650000D01*
X139210000Y-109050000D02*
X139210000Y-109650000D01*
X139920000Y-109050000D02*
X139210000Y-109050000D01*
X139920000Y-109650000D02*
X139920000Y-109050000D01*
X131100000Y-119650000D02*
X131100000Y-109660000D01*
X141400000Y-119650000D02*
X131100000Y-119650000D01*
X141400000Y-109650000D02*
X141400000Y-119650000D01*
X131100000Y-109650000D02*
X141400000Y-109650000D01*
X132350000Y-109050000D02*
X132350000Y-109650000D01*
X133060000Y-109050000D02*
X132350000Y-109050000D01*
X133060000Y-109650000D02*
X133060000Y-109050000D01*
X133070000Y-118110000D02*
X131100000Y-118110000D01*
X133470000Y-117710000D02*
X133070000Y-118110000D01*
X133470000Y-117710000D02*
X133470000Y-117710000D01*
X133470000Y-116510000D02*
X133470000Y-117710000D01*
X133040000Y-116080000D02*
X133470000Y-116510000D01*
X131100000Y-116080000D02*
X133040000Y-116080000D01*
X133070000Y-113100000D02*
X131100000Y-113100000D01*
X133470000Y-112700000D02*
X133070000Y-113100000D01*
X133470000Y-112700000D02*
X133470000Y-112700000D01*
X133470000Y-111500000D02*
X133470000Y-112700000D01*
X133040000Y-111080000D02*
X133470000Y-111500000D01*
X131100000Y-111080000D02*
X133040000Y-111080000D01*
%TO.C,C1*%
X144010000Y-115180000D02*
X144010000Y-115980000D01*
X144010000Y-114620000D02*
X144010000Y-113820000D01*
X142590000Y-115180000D02*
X142590000Y-115980000D01*
X142590000Y-114620000D02*
X142590000Y-113820000D01*
X143700000Y-116290000D02*
X142900000Y-116290000D01*
X142900000Y-113510000D02*
X143700000Y-113510000D01*
X142590000Y-113820000D02*
G75*
G02*
X142900000Y-113510000I310000J0D01*
G01*
X143700000Y-113510000D02*
G75*
G02*
X144010000Y-113820000I0J-310000D01*
G01*
X144010000Y-115980000D02*
G75*
G02*
X143700000Y-116290000I-310000J0D01*
G01*
X142900000Y-116290000D02*
G75*
G02*
X142590000Y-115980000I0J310000D01*
G01*
D12*
%TO.C,C2*%
X159150000Y-119410000D02*
X159150000Y-118000000D01*
X157350000Y-118000000D02*
X157350000Y-119410000D01*
X157500000Y-119560000D02*
X159000000Y-119560000D01*
X159150000Y-115790000D02*
X159150000Y-117200000D01*
X157350000Y-117200000D02*
X157350000Y-115790000D01*
X157500000Y-115640000D02*
X159000000Y-115640000D01*
X157500000Y-119560000D02*
G75*
G02*
X157350000Y-119410000I0J150000D01*
G01*
X159150000Y-119410000D02*
G75*
G02*
X159000000Y-119560000I-150000J0D01*
G01*
X157350000Y-115790000D02*
G75*
G02*
X157500000Y-115640000I150000J0D01*
G01*
X159000000Y-115640000D02*
G75*
G02*
X159150000Y-115790000I0J-150000D01*
G01*
D13*
%TO.C,L1*%
X154000000Y-116950000D02*
X150000000Y-116950000D01*
X154000000Y-112450000D02*
X150000000Y-112450000D01*
D14*
%TO.C,U1*%
X145410000Y-116010000D02*
X147510000Y-116010000D01*
X147500000Y-113890000D02*
X145400000Y-113890000D01*
D13*
X145130000Y-113810000D02*
G75*
G02*
X144970000Y-113810000I-80000J0D01*
G01*
X144970000Y-113810000D02*
G75*
G02*
X145130000Y-113810000I80000J0D01*
G01*
%TO.C,P2*%
X171300000Y-118220000D02*
X169360000Y-118220000D01*
X169360000Y-118220000D02*
X168930000Y-117800000D01*
X168930000Y-117800000D02*
X168930000Y-116600000D01*
X168930000Y-116600000D02*
X168930000Y-116600000D01*
X168930000Y-116600000D02*
X169330000Y-116200000D01*
X169330000Y-116200000D02*
X171300000Y-116200000D01*
X171300000Y-113220000D02*
X169360000Y-113220000D01*
X169360000Y-113220000D02*
X168930000Y-112790000D01*
X168930000Y-112790000D02*
X168930000Y-111590000D01*
X168930000Y-111590000D02*
X168930000Y-111590000D01*
X168930000Y-111590000D02*
X169330000Y-111190000D01*
X169330000Y-111190000D02*
X171300000Y-111190000D01*
X169340000Y-119650000D02*
X169340000Y-120250000D01*
X169340000Y-120250000D02*
X170050000Y-120250000D01*
X170050000Y-120250000D02*
X170050000Y-119650000D01*
X171300000Y-119650000D02*
X161000000Y-119650000D01*
X161000000Y-119650000D02*
X161000000Y-109650000D01*
X161000000Y-109650000D02*
X171300000Y-109650000D01*
X171300000Y-109650000D02*
X171300000Y-119640000D01*
X162480000Y-119650000D02*
X162480000Y-120250000D01*
X162480000Y-120250000D02*
X163190000Y-120250000D01*
X163190000Y-120250000D02*
X163190000Y-119650000D01*
X168490000Y-119650000D02*
X168490000Y-109650000D01*
X164110000Y-119650000D02*
X164110000Y-109650000D01*
X162460000Y-119650000D02*
X162460000Y-109650000D01*
%TD*%
M02*
