%TF.GenerationSoftware,KiCad,Pcbnew,9.0.7*%
%TF.CreationDate,2026-01-19T21:44:40-08:00*%
%TF.ProjectId,PCBs,50434273-2e6b-4696-9361-645f70636258,rev?*%
%TF.SameCoordinates,Original*%
%TF.FileFunction,Legend,Top*%
%TF.FilePolarity,Positive*%
%FSLAX46Y46*%
G04 Gerber Fmt 4.6, Leading zero omitted, Abs format (unit mm)*
G04 Created by KiCad (PCBNEW 9.0.7) date 2026-01-19 21:44:40*
%MOMM*%
%LPD*%
G01*
G04 APERTURE LIST*
%ADD10C,0.040000*%
%ADD11C,0.127000*%
%ADD12C,0.100000*%
%ADD13C,0.120000*%
G04 APERTURE END LIST*
D10*
X139147743Y-91138096D02*
X139190600Y-91152382D01*
X139190600Y-91152382D02*
X139204886Y-91166668D01*
X139204886Y-91166668D02*
X139219172Y-91195239D01*
X139219172Y-91195239D02*
X139219172Y-91238096D01*
X139219172Y-91238096D02*
X139204886Y-91266668D01*
X139204886Y-91266668D02*
X139190600Y-91280954D01*
X139190600Y-91280954D02*
X139162029Y-91295239D01*
X139162029Y-91295239D02*
X139047743Y-91295239D01*
X139047743Y-91295239D02*
X139047743Y-90995239D01*
X139047743Y-90995239D02*
X139147743Y-90995239D01*
X139147743Y-90995239D02*
X139176315Y-91009525D01*
X139176315Y-91009525D02*
X139190600Y-91023811D01*
X139190600Y-91023811D02*
X139204886Y-91052382D01*
X139204886Y-91052382D02*
X139204886Y-91080954D01*
X139204886Y-91080954D02*
X139190600Y-91109525D01*
X139190600Y-91109525D02*
X139176315Y-91123811D01*
X139176315Y-91123811D02*
X139147743Y-91138096D01*
X139147743Y-91138096D02*
X139047743Y-91138096D01*
X139476315Y-91095239D02*
X139476315Y-91295239D01*
X139347743Y-91095239D02*
X139347743Y-91252382D01*
X139347743Y-91252382D02*
X139362029Y-91280954D01*
X139362029Y-91280954D02*
X139390600Y-91295239D01*
X139390600Y-91295239D02*
X139433457Y-91295239D01*
X139433457Y-91295239D02*
X139462029Y-91280954D01*
X139462029Y-91280954D02*
X139476315Y-91266668D01*
X139747744Y-91280954D02*
X139719172Y-91295239D01*
X139719172Y-91295239D02*
X139662029Y-91295239D01*
X139662029Y-91295239D02*
X139633458Y-91280954D01*
X139633458Y-91280954D02*
X139619172Y-91266668D01*
X139619172Y-91266668D02*
X139604886Y-91238096D01*
X139604886Y-91238096D02*
X139604886Y-91152382D01*
X139604886Y-91152382D02*
X139619172Y-91123811D01*
X139619172Y-91123811D02*
X139633458Y-91109525D01*
X139633458Y-91109525D02*
X139662029Y-91095239D01*
X139662029Y-91095239D02*
X139719172Y-91095239D01*
X139719172Y-91095239D02*
X139747744Y-91109525D01*
X139876315Y-91295239D02*
X139876315Y-90995239D01*
X139904887Y-91180954D02*
X139990601Y-91295239D01*
X139990601Y-91095239D02*
X139876315Y-91209525D01*
X140519172Y-91266668D02*
X140504886Y-91280954D01*
X140504886Y-91280954D02*
X140462029Y-91295239D01*
X140462029Y-91295239D02*
X140433457Y-91295239D01*
X140433457Y-91295239D02*
X140390600Y-91280954D01*
X140390600Y-91280954D02*
X140362029Y-91252382D01*
X140362029Y-91252382D02*
X140347743Y-91223811D01*
X140347743Y-91223811D02*
X140333457Y-91166668D01*
X140333457Y-91166668D02*
X140333457Y-91123811D01*
X140333457Y-91123811D02*
X140347743Y-91066668D01*
X140347743Y-91066668D02*
X140362029Y-91038096D01*
X140362029Y-91038096D02*
X140390600Y-91009525D01*
X140390600Y-91009525D02*
X140433457Y-90995239D01*
X140433457Y-90995239D02*
X140462029Y-90995239D01*
X140462029Y-90995239D02*
X140504886Y-91009525D01*
X140504886Y-91009525D02*
X140519172Y-91023811D01*
X140690600Y-91295239D02*
X140662029Y-91280954D01*
X140662029Y-91280954D02*
X140647743Y-91266668D01*
X140647743Y-91266668D02*
X140633457Y-91238096D01*
X140633457Y-91238096D02*
X140633457Y-91152382D01*
X140633457Y-91152382D02*
X140647743Y-91123811D01*
X140647743Y-91123811D02*
X140662029Y-91109525D01*
X140662029Y-91109525D02*
X140690600Y-91095239D01*
X140690600Y-91095239D02*
X140733457Y-91095239D01*
X140733457Y-91095239D02*
X140762029Y-91109525D01*
X140762029Y-91109525D02*
X140776315Y-91123811D01*
X140776315Y-91123811D02*
X140790600Y-91152382D01*
X140790600Y-91152382D02*
X140790600Y-91238096D01*
X140790600Y-91238096D02*
X140776315Y-91266668D01*
X140776315Y-91266668D02*
X140762029Y-91280954D01*
X140762029Y-91280954D02*
X140733457Y-91295239D01*
X140733457Y-91295239D02*
X140690600Y-91295239D01*
X140919172Y-91095239D02*
X140919172Y-91295239D01*
X140919172Y-91123811D02*
X140933458Y-91109525D01*
X140933458Y-91109525D02*
X140962029Y-91095239D01*
X140962029Y-91095239D02*
X141004886Y-91095239D01*
X141004886Y-91095239D02*
X141033458Y-91109525D01*
X141033458Y-91109525D02*
X141047744Y-91138096D01*
X141047744Y-91138096D02*
X141047744Y-91295239D01*
X141162030Y-91095239D02*
X141233458Y-91295239D01*
X141233458Y-91295239D02*
X141304887Y-91095239D01*
X141533458Y-91280954D02*
X141504886Y-91295239D01*
X141504886Y-91295239D02*
X141447744Y-91295239D01*
X141447744Y-91295239D02*
X141419172Y-91280954D01*
X141419172Y-91280954D02*
X141404886Y-91252382D01*
X141404886Y-91252382D02*
X141404886Y-91138096D01*
X141404886Y-91138096D02*
X141419172Y-91109525D01*
X141419172Y-91109525D02*
X141447744Y-91095239D01*
X141447744Y-91095239D02*
X141504886Y-91095239D01*
X141504886Y-91095239D02*
X141533458Y-91109525D01*
X141533458Y-91109525D02*
X141547744Y-91138096D01*
X141547744Y-91138096D02*
X141547744Y-91166668D01*
X141547744Y-91166668D02*
X141404886Y-91195239D01*
X141676315Y-91295239D02*
X141676315Y-91095239D01*
X141676315Y-91152382D02*
X141690601Y-91123811D01*
X141690601Y-91123811D02*
X141704887Y-91109525D01*
X141704887Y-91109525D02*
X141733458Y-91095239D01*
X141733458Y-91095239D02*
X141762029Y-91095239D01*
X141819172Y-91095239D02*
X141933458Y-91095239D01*
X141862029Y-90995239D02*
X141862029Y-91252382D01*
X141862029Y-91252382D02*
X141876315Y-91280954D01*
X141876315Y-91280954D02*
X141904886Y-91295239D01*
X141904886Y-91295239D02*
X141933458Y-91295239D01*
X142147744Y-91280954D02*
X142119172Y-91295239D01*
X142119172Y-91295239D02*
X142062030Y-91295239D01*
X142062030Y-91295239D02*
X142033458Y-91280954D01*
X142033458Y-91280954D02*
X142019172Y-91252382D01*
X142019172Y-91252382D02*
X142019172Y-91138096D01*
X142019172Y-91138096D02*
X142033458Y-91109525D01*
X142033458Y-91109525D02*
X142062030Y-91095239D01*
X142062030Y-91095239D02*
X142119172Y-91095239D01*
X142119172Y-91095239D02*
X142147744Y-91109525D01*
X142147744Y-91109525D02*
X142162030Y-91138096D01*
X142162030Y-91138096D02*
X142162030Y-91166668D01*
X142162030Y-91166668D02*
X142019172Y-91195239D01*
X142290601Y-91295239D02*
X142290601Y-91095239D01*
X142290601Y-91152382D02*
X142304887Y-91123811D01*
X142304887Y-91123811D02*
X142319173Y-91109525D01*
X142319173Y-91109525D02*
X142347744Y-91095239D01*
X142347744Y-91095239D02*
X142376315Y-91095239D01*
X142662029Y-90995239D02*
X142762029Y-91295239D01*
X142762029Y-91295239D02*
X142862029Y-90995239D01*
X143119172Y-91295239D02*
X142947743Y-91295239D01*
X143033458Y-91295239D02*
X143033458Y-90995239D01*
X143033458Y-90995239D02*
X143004886Y-91038096D01*
X143004886Y-91038096D02*
X142976315Y-91066668D01*
X142976315Y-91066668D02*
X142947743Y-91080954D01*
X143247743Y-91266668D02*
X143262029Y-91280954D01*
X143262029Y-91280954D02*
X143247743Y-91295239D01*
X143247743Y-91295239D02*
X143233457Y-91280954D01*
X143233457Y-91280954D02*
X143247743Y-91266668D01*
X143247743Y-91266668D02*
X143247743Y-91295239D01*
X143447743Y-90995239D02*
X143476314Y-90995239D01*
X143476314Y-90995239D02*
X143504886Y-91009525D01*
X143504886Y-91009525D02*
X143519172Y-91023811D01*
X143519172Y-91023811D02*
X143533457Y-91052382D01*
X143533457Y-91052382D02*
X143547743Y-91109525D01*
X143547743Y-91109525D02*
X143547743Y-91180954D01*
X143547743Y-91180954D02*
X143533457Y-91238096D01*
X143533457Y-91238096D02*
X143519172Y-91266668D01*
X143519172Y-91266668D02*
X143504886Y-91280954D01*
X143504886Y-91280954D02*
X143476314Y-91295239D01*
X143476314Y-91295239D02*
X143447743Y-91295239D01*
X143447743Y-91295239D02*
X143419172Y-91280954D01*
X143419172Y-91280954D02*
X143404886Y-91266668D01*
X143404886Y-91266668D02*
X143390600Y-91238096D01*
X143390600Y-91238096D02*
X143376314Y-91180954D01*
X143376314Y-91180954D02*
X143376314Y-91109525D01*
X143376314Y-91109525D02*
X143390600Y-91052382D01*
X143390600Y-91052382D02*
X143404886Y-91023811D01*
X143404886Y-91023811D02*
X143419172Y-91009525D01*
X143419172Y-91009525D02*
X143447743Y-90995239D01*
X143733457Y-90995239D02*
X143762028Y-90995239D01*
X143762028Y-90995239D02*
X143790600Y-91009525D01*
X143790600Y-91009525D02*
X143804886Y-91023811D01*
X143804886Y-91023811D02*
X143819171Y-91052382D01*
X143819171Y-91052382D02*
X143833457Y-91109525D01*
X143833457Y-91109525D02*
X143833457Y-91180954D01*
X143833457Y-91180954D02*
X143819171Y-91238096D01*
X143819171Y-91238096D02*
X143804886Y-91266668D01*
X143804886Y-91266668D02*
X143790600Y-91280954D01*
X143790600Y-91280954D02*
X143762028Y-91295239D01*
X143762028Y-91295239D02*
X143733457Y-91295239D01*
X143733457Y-91295239D02*
X143704886Y-91280954D01*
X143704886Y-91280954D02*
X143690600Y-91266668D01*
X143690600Y-91266668D02*
X143676314Y-91238096D01*
X143676314Y-91238096D02*
X143662028Y-91180954D01*
X143662028Y-91180954D02*
X143662028Y-91109525D01*
X143662028Y-91109525D02*
X143676314Y-91052382D01*
X143676314Y-91052382D02*
X143690600Y-91023811D01*
X143690600Y-91023811D02*
X143704886Y-91009525D01*
X143704886Y-91009525D02*
X143733457Y-90995239D01*
X144347742Y-91295239D02*
X144176313Y-91295239D01*
X144262028Y-91295239D02*
X144262028Y-90995239D01*
X144262028Y-90995239D02*
X144233456Y-91038096D01*
X144233456Y-91038096D02*
X144204885Y-91066668D01*
X144204885Y-91066668D02*
X144176313Y-91080954D01*
X144690599Y-90980954D02*
X144433456Y-91366668D01*
X144947742Y-91295239D02*
X144776313Y-91295239D01*
X144862028Y-91295239D02*
X144862028Y-90995239D01*
X144862028Y-90995239D02*
X144833456Y-91038096D01*
X144833456Y-91038096D02*
X144804885Y-91066668D01*
X144804885Y-91066668D02*
X144776313Y-91080954D01*
X145090599Y-91295239D02*
X145147742Y-91295239D01*
X145147742Y-91295239D02*
X145176313Y-91280954D01*
X145176313Y-91280954D02*
X145190599Y-91266668D01*
X145190599Y-91266668D02*
X145219170Y-91223811D01*
X145219170Y-91223811D02*
X145233456Y-91166668D01*
X145233456Y-91166668D02*
X145233456Y-91052382D01*
X145233456Y-91052382D02*
X145219170Y-91023811D01*
X145219170Y-91023811D02*
X145204885Y-91009525D01*
X145204885Y-91009525D02*
X145176313Y-90995239D01*
X145176313Y-90995239D02*
X145119170Y-90995239D01*
X145119170Y-90995239D02*
X145090599Y-91009525D01*
X145090599Y-91009525D02*
X145076313Y-91023811D01*
X145076313Y-91023811D02*
X145062027Y-91052382D01*
X145062027Y-91052382D02*
X145062027Y-91123811D01*
X145062027Y-91123811D02*
X145076313Y-91152382D01*
X145076313Y-91152382D02*
X145090599Y-91166668D01*
X145090599Y-91166668D02*
X145119170Y-91180954D01*
X145119170Y-91180954D02*
X145176313Y-91180954D01*
X145176313Y-91180954D02*
X145204885Y-91166668D01*
X145204885Y-91166668D02*
X145219170Y-91152382D01*
X145219170Y-91152382D02*
X145233456Y-91123811D01*
X145576313Y-90980954D02*
X145319170Y-91366668D01*
X145662027Y-91023811D02*
X145676313Y-91009525D01*
X145676313Y-91009525D02*
X145704885Y-90995239D01*
X145704885Y-90995239D02*
X145776313Y-90995239D01*
X145776313Y-90995239D02*
X145804885Y-91009525D01*
X145804885Y-91009525D02*
X145819170Y-91023811D01*
X145819170Y-91023811D02*
X145833456Y-91052382D01*
X145833456Y-91052382D02*
X145833456Y-91080954D01*
X145833456Y-91080954D02*
X145819170Y-91123811D01*
X145819170Y-91123811D02*
X145647742Y-91295239D01*
X145647742Y-91295239D02*
X145833456Y-91295239D01*
X146090599Y-90995239D02*
X146033456Y-90995239D01*
X146033456Y-90995239D02*
X146004884Y-91009525D01*
X146004884Y-91009525D02*
X145990599Y-91023811D01*
X145990599Y-91023811D02*
X145962027Y-91066668D01*
X145962027Y-91066668D02*
X145947741Y-91123811D01*
X145947741Y-91123811D02*
X145947741Y-91238096D01*
X145947741Y-91238096D02*
X145962027Y-91266668D01*
X145962027Y-91266668D02*
X145976313Y-91280954D01*
X145976313Y-91280954D02*
X146004884Y-91295239D01*
X146004884Y-91295239D02*
X146062027Y-91295239D01*
X146062027Y-91295239D02*
X146090599Y-91280954D01*
X146090599Y-91280954D02*
X146104884Y-91266668D01*
X146104884Y-91266668D02*
X146119170Y-91238096D01*
X146119170Y-91238096D02*
X146119170Y-91166668D01*
X146119170Y-91166668D02*
X146104884Y-91138096D01*
X146104884Y-91138096D02*
X146090599Y-91123811D01*
X146090599Y-91123811D02*
X146062027Y-91109525D01*
X146062027Y-91109525D02*
X146004884Y-91109525D01*
X146004884Y-91109525D02*
X145976313Y-91123811D01*
X145976313Y-91123811D02*
X145962027Y-91138096D01*
X145962027Y-91138096D02*
X145947741Y-91166668D01*
X139047743Y-91778222D02*
X139047743Y-91478222D01*
X139190600Y-91578222D02*
X139190600Y-91778222D01*
X139190600Y-91606794D02*
X139204886Y-91592508D01*
X139204886Y-91592508D02*
X139233457Y-91578222D01*
X139233457Y-91578222D02*
X139276314Y-91578222D01*
X139276314Y-91578222D02*
X139304886Y-91592508D01*
X139304886Y-91592508D02*
X139319172Y-91621079D01*
X139319172Y-91621079D02*
X139319172Y-91778222D01*
X139462029Y-91578222D02*
X139462029Y-91878222D01*
X139462029Y-91592508D02*
X139490601Y-91578222D01*
X139490601Y-91578222D02*
X139547743Y-91578222D01*
X139547743Y-91578222D02*
X139576315Y-91592508D01*
X139576315Y-91592508D02*
X139590601Y-91606794D01*
X139590601Y-91606794D02*
X139604886Y-91635365D01*
X139604886Y-91635365D02*
X139604886Y-91721079D01*
X139604886Y-91721079D02*
X139590601Y-91749651D01*
X139590601Y-91749651D02*
X139576315Y-91763937D01*
X139576315Y-91763937D02*
X139547743Y-91778222D01*
X139547743Y-91778222D02*
X139490601Y-91778222D01*
X139490601Y-91778222D02*
X139462029Y-91763937D01*
X139862030Y-91578222D02*
X139862030Y-91778222D01*
X139733458Y-91578222D02*
X139733458Y-91735365D01*
X139733458Y-91735365D02*
X139747744Y-91763937D01*
X139747744Y-91763937D02*
X139776315Y-91778222D01*
X139776315Y-91778222D02*
X139819172Y-91778222D01*
X139819172Y-91778222D02*
X139847744Y-91763937D01*
X139847744Y-91763937D02*
X139862030Y-91749651D01*
X139962030Y-91578222D02*
X140076316Y-91578222D01*
X140004887Y-91478222D02*
X140004887Y-91735365D01*
X140004887Y-91735365D02*
X140019173Y-91763937D01*
X140019173Y-91763937D02*
X140047744Y-91778222D01*
X140047744Y-91778222D02*
X140076316Y-91778222D01*
X140376316Y-91478222D02*
X140562030Y-91478222D01*
X140562030Y-91478222D02*
X140462030Y-91592508D01*
X140462030Y-91592508D02*
X140504887Y-91592508D01*
X140504887Y-91592508D02*
X140533459Y-91606794D01*
X140533459Y-91606794D02*
X140547744Y-91621079D01*
X140547744Y-91621079D02*
X140562030Y-91649651D01*
X140562030Y-91649651D02*
X140562030Y-91721079D01*
X140562030Y-91721079D02*
X140547744Y-91749651D01*
X140547744Y-91749651D02*
X140533459Y-91763937D01*
X140533459Y-91763937D02*
X140504887Y-91778222D01*
X140504887Y-91778222D02*
X140419173Y-91778222D01*
X140419173Y-91778222D02*
X140390601Y-91763937D01*
X140390601Y-91763937D02*
X140376316Y-91749651D01*
X140690601Y-91663937D02*
X140919173Y-91663937D01*
X141219173Y-91778222D02*
X141047744Y-91778222D01*
X141133459Y-91778222D02*
X141133459Y-91478222D01*
X141133459Y-91478222D02*
X141104887Y-91521079D01*
X141104887Y-91521079D02*
X141076316Y-91549651D01*
X141076316Y-91549651D02*
X141047744Y-91563937D01*
X141319173Y-91478222D02*
X141519173Y-91478222D01*
X141519173Y-91478222D02*
X141390601Y-91778222D01*
X141590601Y-91478222D02*
X141690601Y-91778222D01*
X141690601Y-91778222D02*
X141790601Y-91478222D01*
X142119172Y-91663937D02*
X142347744Y-91663937D01*
X142490601Y-91578222D02*
X142719173Y-91663937D01*
X142719173Y-91663937D02*
X142490601Y-91749651D01*
X143190601Y-91621079D02*
X143090601Y-91621079D01*
X143090601Y-91778222D02*
X143090601Y-91478222D01*
X143090601Y-91478222D02*
X143233458Y-91478222D01*
X143347744Y-91778222D02*
X143347744Y-91578222D01*
X143347744Y-91478222D02*
X143333458Y-91492508D01*
X143333458Y-91492508D02*
X143347744Y-91506794D01*
X143347744Y-91506794D02*
X143362030Y-91492508D01*
X143362030Y-91492508D02*
X143347744Y-91478222D01*
X143347744Y-91478222D02*
X143347744Y-91506794D01*
X143462030Y-91778222D02*
X143619173Y-91578222D01*
X143462030Y-91578222D02*
X143619173Y-91778222D01*
X143847744Y-91763937D02*
X143819172Y-91778222D01*
X143819172Y-91778222D02*
X143762030Y-91778222D01*
X143762030Y-91778222D02*
X143733458Y-91763937D01*
X143733458Y-91763937D02*
X143719172Y-91735365D01*
X143719172Y-91735365D02*
X143719172Y-91621079D01*
X143719172Y-91621079D02*
X143733458Y-91592508D01*
X143733458Y-91592508D02*
X143762030Y-91578222D01*
X143762030Y-91578222D02*
X143819172Y-91578222D01*
X143819172Y-91578222D02*
X143847744Y-91592508D01*
X143847744Y-91592508D02*
X143862030Y-91621079D01*
X143862030Y-91621079D02*
X143862030Y-91649651D01*
X143862030Y-91649651D02*
X143719172Y-91678222D01*
X144119173Y-91778222D02*
X144119173Y-91478222D01*
X144119173Y-91763937D02*
X144090601Y-91778222D01*
X144090601Y-91778222D02*
X144033458Y-91778222D01*
X144033458Y-91778222D02*
X144004887Y-91763937D01*
X144004887Y-91763937D02*
X143990601Y-91749651D01*
X143990601Y-91749651D02*
X143976315Y-91721079D01*
X143976315Y-91721079D02*
X143976315Y-91635365D01*
X143976315Y-91635365D02*
X143990601Y-91606794D01*
X143990601Y-91606794D02*
X144004887Y-91592508D01*
X144004887Y-91592508D02*
X144033458Y-91578222D01*
X144033458Y-91578222D02*
X144090601Y-91578222D01*
X144090601Y-91578222D02*
X144119173Y-91592508D01*
X144462030Y-91478222D02*
X144647744Y-91478222D01*
X144647744Y-91478222D02*
X144547744Y-91592508D01*
X144547744Y-91592508D02*
X144590601Y-91592508D01*
X144590601Y-91592508D02*
X144619173Y-91606794D01*
X144619173Y-91606794D02*
X144633458Y-91621079D01*
X144633458Y-91621079D02*
X144647744Y-91649651D01*
X144647744Y-91649651D02*
X144647744Y-91721079D01*
X144647744Y-91721079D02*
X144633458Y-91749651D01*
X144633458Y-91749651D02*
X144619173Y-91763937D01*
X144619173Y-91763937D02*
X144590601Y-91778222D01*
X144590601Y-91778222D02*
X144504887Y-91778222D01*
X144504887Y-91778222D02*
X144476315Y-91763937D01*
X144476315Y-91763937D02*
X144462030Y-91749651D01*
X144776315Y-91749651D02*
X144790601Y-91763937D01*
X144790601Y-91763937D02*
X144776315Y-91778222D01*
X144776315Y-91778222D02*
X144762029Y-91763937D01*
X144762029Y-91763937D02*
X144776315Y-91749651D01*
X144776315Y-91749651D02*
X144776315Y-91778222D01*
X144890601Y-91478222D02*
X145076315Y-91478222D01*
X145076315Y-91478222D02*
X144976315Y-91592508D01*
X144976315Y-91592508D02*
X145019172Y-91592508D01*
X145019172Y-91592508D02*
X145047744Y-91606794D01*
X145047744Y-91606794D02*
X145062029Y-91621079D01*
X145062029Y-91621079D02*
X145076315Y-91649651D01*
X145076315Y-91649651D02*
X145076315Y-91721079D01*
X145076315Y-91721079D02*
X145062029Y-91749651D01*
X145062029Y-91749651D02*
X145047744Y-91763937D01*
X145047744Y-91763937D02*
X145019172Y-91778222D01*
X145019172Y-91778222D02*
X144933458Y-91778222D01*
X144933458Y-91778222D02*
X144904886Y-91763937D01*
X144904886Y-91763937D02*
X144890601Y-91749651D01*
X145162029Y-91478222D02*
X145262029Y-91778222D01*
X145262029Y-91778222D02*
X145362029Y-91478222D01*
X139190600Y-91961205D02*
X139047743Y-91961205D01*
X139047743Y-91961205D02*
X139033457Y-92104062D01*
X139033457Y-92104062D02*
X139047743Y-92089777D01*
X139047743Y-92089777D02*
X139076315Y-92075491D01*
X139076315Y-92075491D02*
X139147743Y-92075491D01*
X139147743Y-92075491D02*
X139176315Y-92089777D01*
X139176315Y-92089777D02*
X139190600Y-92104062D01*
X139190600Y-92104062D02*
X139204886Y-92132634D01*
X139204886Y-92132634D02*
X139204886Y-92204062D01*
X139204886Y-92204062D02*
X139190600Y-92232634D01*
X139190600Y-92232634D02*
X139176315Y-92246920D01*
X139176315Y-92246920D02*
X139147743Y-92261205D01*
X139147743Y-92261205D02*
X139076315Y-92261205D01*
X139076315Y-92261205D02*
X139047743Y-92246920D01*
X139047743Y-92246920D02*
X139033457Y-92232634D01*
X139390600Y-91961205D02*
X139419171Y-91961205D01*
X139419171Y-91961205D02*
X139447743Y-91975491D01*
X139447743Y-91975491D02*
X139462029Y-91989777D01*
X139462029Y-91989777D02*
X139476314Y-92018348D01*
X139476314Y-92018348D02*
X139490600Y-92075491D01*
X139490600Y-92075491D02*
X139490600Y-92146920D01*
X139490600Y-92146920D02*
X139476314Y-92204062D01*
X139476314Y-92204062D02*
X139462029Y-92232634D01*
X139462029Y-92232634D02*
X139447743Y-92246920D01*
X139447743Y-92246920D02*
X139419171Y-92261205D01*
X139419171Y-92261205D02*
X139390600Y-92261205D01*
X139390600Y-92261205D02*
X139362029Y-92246920D01*
X139362029Y-92246920D02*
X139347743Y-92232634D01*
X139347743Y-92232634D02*
X139333457Y-92204062D01*
X139333457Y-92204062D02*
X139319171Y-92146920D01*
X139319171Y-92146920D02*
X139319171Y-92075491D01*
X139319171Y-92075491D02*
X139333457Y-92018348D01*
X139333457Y-92018348D02*
X139347743Y-91989777D01*
X139347743Y-91989777D02*
X139362029Y-91975491D01*
X139362029Y-91975491D02*
X139390600Y-91961205D01*
X139676314Y-91961205D02*
X139704885Y-91961205D01*
X139704885Y-91961205D02*
X139733457Y-91975491D01*
X139733457Y-91975491D02*
X139747743Y-91989777D01*
X139747743Y-91989777D02*
X139762028Y-92018348D01*
X139762028Y-92018348D02*
X139776314Y-92075491D01*
X139776314Y-92075491D02*
X139776314Y-92146920D01*
X139776314Y-92146920D02*
X139762028Y-92204062D01*
X139762028Y-92204062D02*
X139747743Y-92232634D01*
X139747743Y-92232634D02*
X139733457Y-92246920D01*
X139733457Y-92246920D02*
X139704885Y-92261205D01*
X139704885Y-92261205D02*
X139676314Y-92261205D01*
X139676314Y-92261205D02*
X139647743Y-92246920D01*
X139647743Y-92246920D02*
X139633457Y-92232634D01*
X139633457Y-92232634D02*
X139619171Y-92204062D01*
X139619171Y-92204062D02*
X139604885Y-92146920D01*
X139604885Y-92146920D02*
X139604885Y-92075491D01*
X139604885Y-92075491D02*
X139619171Y-92018348D01*
X139619171Y-92018348D02*
X139633457Y-91989777D01*
X139633457Y-91989777D02*
X139647743Y-91975491D01*
X139647743Y-91975491D02*
X139676314Y-91961205D01*
X139904885Y-92261205D02*
X139904885Y-92061205D01*
X139904885Y-92089777D02*
X139919171Y-92075491D01*
X139919171Y-92075491D02*
X139947742Y-92061205D01*
X139947742Y-92061205D02*
X139990599Y-92061205D01*
X139990599Y-92061205D02*
X140019171Y-92075491D01*
X140019171Y-92075491D02*
X140033457Y-92104062D01*
X140033457Y-92104062D02*
X140033457Y-92261205D01*
X140033457Y-92104062D02*
X140047742Y-92075491D01*
X140047742Y-92075491D02*
X140076314Y-92061205D01*
X140076314Y-92061205D02*
X140119171Y-92061205D01*
X140119171Y-92061205D02*
X140147742Y-92075491D01*
X140147742Y-92075491D02*
X140162028Y-92104062D01*
X140162028Y-92104062D02*
X140162028Y-92261205D01*
X140290599Y-92175491D02*
X140433457Y-92175491D01*
X140262028Y-92261205D02*
X140362028Y-91961205D01*
X140362028Y-91961205D02*
X140462028Y-92261205D01*
D11*
X139844790Y-98582845D02*
X139820599Y-98607036D01*
X139820599Y-98607036D02*
X139748028Y-98631226D01*
X139748028Y-98631226D02*
X139699647Y-98631226D01*
X139699647Y-98631226D02*
X139627075Y-98607036D01*
X139627075Y-98607036D02*
X139578694Y-98558655D01*
X139578694Y-98558655D02*
X139554504Y-98510274D01*
X139554504Y-98510274D02*
X139530313Y-98413512D01*
X139530313Y-98413512D02*
X139530313Y-98340940D01*
X139530313Y-98340940D02*
X139554504Y-98244178D01*
X139554504Y-98244178D02*
X139578694Y-98195797D01*
X139578694Y-98195797D02*
X139627075Y-98147416D01*
X139627075Y-98147416D02*
X139699647Y-98123226D01*
X139699647Y-98123226D02*
X139748028Y-98123226D01*
X139748028Y-98123226D02*
X139820599Y-98147416D01*
X139820599Y-98147416D02*
X139844790Y-98171607D01*
X140328599Y-98631226D02*
X140038313Y-98631226D01*
X140183456Y-98631226D02*
X140183456Y-98123226D01*
X140183456Y-98123226D02*
X140135075Y-98195797D01*
X140135075Y-98195797D02*
X140086694Y-98244178D01*
X140086694Y-98244178D02*
X140038313Y-98268369D01*
X158234504Y-100817702D02*
X158621552Y-100817702D01*
X147496409Y-94681226D02*
X147254504Y-94681226D01*
X147254504Y-94681226D02*
X147254504Y-94173226D01*
X147931837Y-94681226D02*
X147641551Y-94681226D01*
X147786694Y-94681226D02*
X147786694Y-94173226D01*
X147786694Y-94173226D02*
X147738313Y-94245797D01*
X147738313Y-94245797D02*
X147689932Y-94294178D01*
X147689932Y-94294178D02*
X147641551Y-94318369D01*
X158046504Y-91431702D02*
X158433552Y-91431702D01*
X158240028Y-91625226D02*
X158240028Y-91238178D01*
X138731932Y-93623226D02*
X139022218Y-93623226D01*
X138877075Y-94131226D02*
X138877075Y-93623226D01*
X139191552Y-94131226D02*
X139191552Y-93623226D01*
X139191552Y-93623226D02*
X139385076Y-93623226D01*
X139385076Y-93623226D02*
X139433457Y-93647416D01*
X139433457Y-93647416D02*
X139457647Y-93671607D01*
X139457647Y-93671607D02*
X139481838Y-93719988D01*
X139481838Y-93719988D02*
X139481838Y-93792559D01*
X139481838Y-93792559D02*
X139457647Y-93840940D01*
X139457647Y-93840940D02*
X139433457Y-93865131D01*
X139433457Y-93865131D02*
X139385076Y-93889321D01*
X139385076Y-93889321D02*
X139191552Y-93889321D01*
X139675361Y-94107036D02*
X139747933Y-94131226D01*
X139747933Y-94131226D02*
X139868885Y-94131226D01*
X139868885Y-94131226D02*
X139917266Y-94107036D01*
X139917266Y-94107036D02*
X139941457Y-94082845D01*
X139941457Y-94082845D02*
X139965647Y-94034464D01*
X139965647Y-94034464D02*
X139965647Y-93986083D01*
X139965647Y-93986083D02*
X139941457Y-93937702D01*
X139941457Y-93937702D02*
X139917266Y-93913512D01*
X139917266Y-93913512D02*
X139868885Y-93889321D01*
X139868885Y-93889321D02*
X139772123Y-93865131D01*
X139772123Y-93865131D02*
X139723742Y-93840940D01*
X139723742Y-93840940D02*
X139699552Y-93816750D01*
X139699552Y-93816750D02*
X139675361Y-93768369D01*
X139675361Y-93768369D02*
X139675361Y-93719988D01*
X139675361Y-93719988D02*
X139699552Y-93671607D01*
X139699552Y-93671607D02*
X139723742Y-93647416D01*
X139723742Y-93647416D02*
X139772123Y-93623226D01*
X139772123Y-93623226D02*
X139893076Y-93623226D01*
X139893076Y-93623226D02*
X139965647Y-93647416D01*
X140401076Y-93623226D02*
X140304314Y-93623226D01*
X140304314Y-93623226D02*
X140255933Y-93647416D01*
X140255933Y-93647416D02*
X140231743Y-93671607D01*
X140231743Y-93671607D02*
X140183362Y-93744178D01*
X140183362Y-93744178D02*
X140159171Y-93840940D01*
X140159171Y-93840940D02*
X140159171Y-94034464D01*
X140159171Y-94034464D02*
X140183362Y-94082845D01*
X140183362Y-94082845D02*
X140207552Y-94107036D01*
X140207552Y-94107036D02*
X140255933Y-94131226D01*
X140255933Y-94131226D02*
X140352695Y-94131226D01*
X140352695Y-94131226D02*
X140401076Y-94107036D01*
X140401076Y-94107036D02*
X140425267Y-94082845D01*
X140425267Y-94082845D02*
X140449457Y-94034464D01*
X140449457Y-94034464D02*
X140449457Y-93913512D01*
X140449457Y-93913512D02*
X140425267Y-93865131D01*
X140425267Y-93865131D02*
X140401076Y-93840940D01*
X140401076Y-93840940D02*
X140352695Y-93816750D01*
X140352695Y-93816750D02*
X140255933Y-93816750D01*
X140255933Y-93816750D02*
X140207552Y-93840940D01*
X140207552Y-93840940D02*
X140183362Y-93865131D01*
X140183362Y-93865131D02*
X140159171Y-93913512D01*
X140642981Y-93671607D02*
X140667172Y-93647416D01*
X140667172Y-93647416D02*
X140715553Y-93623226D01*
X140715553Y-93623226D02*
X140836505Y-93623226D01*
X140836505Y-93623226D02*
X140884886Y-93647416D01*
X140884886Y-93647416D02*
X140909077Y-93671607D01*
X140909077Y-93671607D02*
X140933267Y-93719988D01*
X140933267Y-93719988D02*
X140933267Y-93768369D01*
X140933267Y-93768369D02*
X140909077Y-93840940D01*
X140909077Y-93840940D02*
X140618791Y-94131226D01*
X140618791Y-94131226D02*
X140933267Y-94131226D01*
X141417077Y-94131226D02*
X141126791Y-94131226D01*
X141271934Y-94131226D02*
X141271934Y-93623226D01*
X141271934Y-93623226D02*
X141223553Y-93695797D01*
X141223553Y-93695797D02*
X141175172Y-93744178D01*
X141175172Y-93744178D02*
X141126791Y-93768369D01*
X141586411Y-93623226D02*
X141925078Y-93623226D01*
X141925078Y-93623226D02*
X141707363Y-94131226D01*
X142094411Y-93671607D02*
X142118602Y-93647416D01*
X142118602Y-93647416D02*
X142166983Y-93623226D01*
X142166983Y-93623226D02*
X142287935Y-93623226D01*
X142287935Y-93623226D02*
X142336316Y-93647416D01*
X142336316Y-93647416D02*
X142360507Y-93671607D01*
X142360507Y-93671607D02*
X142384697Y-93719988D01*
X142384697Y-93719988D02*
X142384697Y-93768369D01*
X142384697Y-93768369D02*
X142360507Y-93840940D01*
X142360507Y-93840940D02*
X142070221Y-94131226D01*
X142070221Y-94131226D02*
X142384697Y-94131226D01*
X142602412Y-94131226D02*
X142602412Y-93623226D01*
X142602412Y-93623226D02*
X142723364Y-93623226D01*
X142723364Y-93623226D02*
X142795936Y-93647416D01*
X142795936Y-93647416D02*
X142844317Y-93695797D01*
X142844317Y-93695797D02*
X142868507Y-93744178D01*
X142868507Y-93744178D02*
X142892698Y-93840940D01*
X142892698Y-93840940D02*
X142892698Y-93913512D01*
X142892698Y-93913512D02*
X142868507Y-94010274D01*
X142868507Y-94010274D02*
X142844317Y-94058655D01*
X142844317Y-94058655D02*
X142795936Y-94107036D01*
X142795936Y-94107036D02*
X142723364Y-94131226D01*
X142723364Y-94131226D02*
X142602412Y-94131226D01*
X143086221Y-94107036D02*
X143158793Y-94131226D01*
X143158793Y-94131226D02*
X143279745Y-94131226D01*
X143279745Y-94131226D02*
X143328126Y-94107036D01*
X143328126Y-94107036D02*
X143352317Y-94082845D01*
X143352317Y-94082845D02*
X143376507Y-94034464D01*
X143376507Y-94034464D02*
X143376507Y-93986083D01*
X143376507Y-93986083D02*
X143352317Y-93937702D01*
X143352317Y-93937702D02*
X143328126Y-93913512D01*
X143328126Y-93913512D02*
X143279745Y-93889321D01*
X143279745Y-93889321D02*
X143182983Y-93865131D01*
X143182983Y-93865131D02*
X143134602Y-93840940D01*
X143134602Y-93840940D02*
X143110412Y-93816750D01*
X143110412Y-93816750D02*
X143086221Y-93768369D01*
X143086221Y-93768369D02*
X143086221Y-93719988D01*
X143086221Y-93719988D02*
X143110412Y-93671607D01*
X143110412Y-93671607D02*
X143134602Y-93647416D01*
X143134602Y-93647416D02*
X143182983Y-93623226D01*
X143182983Y-93623226D02*
X143303936Y-93623226D01*
X143303936Y-93623226D02*
X143376507Y-93647416D01*
X143860317Y-93647416D02*
X143811936Y-93623226D01*
X143811936Y-93623226D02*
X143739365Y-93623226D01*
X143739365Y-93623226D02*
X143666793Y-93647416D01*
X143666793Y-93647416D02*
X143618412Y-93695797D01*
X143618412Y-93695797D02*
X143594222Y-93744178D01*
X143594222Y-93744178D02*
X143570031Y-93840940D01*
X143570031Y-93840940D02*
X143570031Y-93913512D01*
X143570031Y-93913512D02*
X143594222Y-94010274D01*
X143594222Y-94010274D02*
X143618412Y-94058655D01*
X143618412Y-94058655D02*
X143666793Y-94107036D01*
X143666793Y-94107036D02*
X143739365Y-94131226D01*
X143739365Y-94131226D02*
X143787746Y-94131226D01*
X143787746Y-94131226D02*
X143860317Y-94107036D01*
X143860317Y-94107036D02*
X143884508Y-94082845D01*
X143884508Y-94082845D02*
X143884508Y-93913512D01*
X143884508Y-93913512D02*
X143787746Y-93913512D01*
X144392508Y-94131226D02*
X144223174Y-93889321D01*
X144102222Y-94131226D02*
X144102222Y-93623226D01*
X144102222Y-93623226D02*
X144295746Y-93623226D01*
X144295746Y-93623226D02*
X144344127Y-93647416D01*
X144344127Y-93647416D02*
X144368317Y-93671607D01*
X144368317Y-93671607D02*
X144392508Y-93719988D01*
X144392508Y-93719988D02*
X144392508Y-93792559D01*
X144392508Y-93792559D02*
X144368317Y-93840940D01*
X144368317Y-93840940D02*
X144344127Y-93865131D01*
X144344127Y-93865131D02*
X144295746Y-93889321D01*
X144295746Y-93889321D02*
X144102222Y-93889321D01*
X153941266Y-91033226D02*
X154038028Y-91033226D01*
X154038028Y-91033226D02*
X154086409Y-91057416D01*
X154086409Y-91057416D02*
X154134790Y-91105797D01*
X154134790Y-91105797D02*
X154158980Y-91202559D01*
X154158980Y-91202559D02*
X154158980Y-91371893D01*
X154158980Y-91371893D02*
X154134790Y-91468655D01*
X154134790Y-91468655D02*
X154086409Y-91517036D01*
X154086409Y-91517036D02*
X154038028Y-91541226D01*
X154038028Y-91541226D02*
X153941266Y-91541226D01*
X153941266Y-91541226D02*
X153892885Y-91517036D01*
X153892885Y-91517036D02*
X153844504Y-91468655D01*
X153844504Y-91468655D02*
X153820313Y-91371893D01*
X153820313Y-91371893D02*
X153820313Y-91202559D01*
X153820313Y-91202559D02*
X153844504Y-91105797D01*
X153844504Y-91105797D02*
X153892885Y-91057416D01*
X153892885Y-91057416D02*
X153941266Y-91033226D01*
X154594408Y-91202559D02*
X154594408Y-91541226D01*
X154376694Y-91202559D02*
X154376694Y-91468655D01*
X154376694Y-91468655D02*
X154400884Y-91517036D01*
X154400884Y-91517036D02*
X154449265Y-91541226D01*
X154449265Y-91541226D02*
X154521837Y-91541226D01*
X154521837Y-91541226D02*
X154570218Y-91517036D01*
X154570218Y-91517036D02*
X154594408Y-91492845D01*
X154763741Y-91202559D02*
X154957265Y-91202559D01*
X154836313Y-91033226D02*
X154836313Y-91468655D01*
X154836313Y-91468655D02*
X154860503Y-91517036D01*
X154860503Y-91517036D02*
X154908884Y-91541226D01*
X154908884Y-91541226D02*
X154957265Y-91541226D01*
X155126599Y-91202559D02*
X155126599Y-91710559D01*
X155126599Y-91226750D02*
X155174980Y-91202559D01*
X155174980Y-91202559D02*
X155271742Y-91202559D01*
X155271742Y-91202559D02*
X155320123Y-91226750D01*
X155320123Y-91226750D02*
X155344313Y-91250940D01*
X155344313Y-91250940D02*
X155368504Y-91299321D01*
X155368504Y-91299321D02*
X155368504Y-91444464D01*
X155368504Y-91444464D02*
X155344313Y-91492845D01*
X155344313Y-91492845D02*
X155320123Y-91517036D01*
X155320123Y-91517036D02*
X155271742Y-91541226D01*
X155271742Y-91541226D02*
X155174980Y-91541226D01*
X155174980Y-91541226D02*
X155126599Y-91517036D01*
X155803932Y-91202559D02*
X155803932Y-91541226D01*
X155586218Y-91202559D02*
X155586218Y-91468655D01*
X155586218Y-91468655D02*
X155610408Y-91517036D01*
X155610408Y-91517036D02*
X155658789Y-91541226D01*
X155658789Y-91541226D02*
X155731361Y-91541226D01*
X155731361Y-91541226D02*
X155779742Y-91517036D01*
X155779742Y-91517036D02*
X155803932Y-91492845D01*
X155973265Y-91202559D02*
X156166789Y-91202559D01*
X156045837Y-91033226D02*
X156045837Y-91468655D01*
X156045837Y-91468655D02*
X156070027Y-91517036D01*
X156070027Y-91517036D02*
X156118408Y-91541226D01*
X156118408Y-91541226D02*
X156166789Y-91541226D01*
X149194790Y-99632845D02*
X149170599Y-99657036D01*
X149170599Y-99657036D02*
X149098028Y-99681226D01*
X149098028Y-99681226D02*
X149049647Y-99681226D01*
X149049647Y-99681226D02*
X148977075Y-99657036D01*
X148977075Y-99657036D02*
X148928694Y-99608655D01*
X148928694Y-99608655D02*
X148904504Y-99560274D01*
X148904504Y-99560274D02*
X148880313Y-99463512D01*
X148880313Y-99463512D02*
X148880313Y-99390940D01*
X148880313Y-99390940D02*
X148904504Y-99294178D01*
X148904504Y-99294178D02*
X148928694Y-99245797D01*
X148928694Y-99245797D02*
X148977075Y-99197416D01*
X148977075Y-99197416D02*
X149049647Y-99173226D01*
X149049647Y-99173226D02*
X149098028Y-99173226D01*
X149098028Y-99173226D02*
X149170599Y-99197416D01*
X149170599Y-99197416D02*
X149194790Y-99221607D01*
X149388313Y-99221607D02*
X149412504Y-99197416D01*
X149412504Y-99197416D02*
X149460885Y-99173226D01*
X149460885Y-99173226D02*
X149581837Y-99173226D01*
X149581837Y-99173226D02*
X149630218Y-99197416D01*
X149630218Y-99197416D02*
X149654409Y-99221607D01*
X149654409Y-99221607D02*
X149678599Y-99269988D01*
X149678599Y-99269988D02*
X149678599Y-99318369D01*
X149678599Y-99318369D02*
X149654409Y-99390940D01*
X149654409Y-99390940D02*
X149364123Y-99681226D01*
X149364123Y-99681226D02*
X149678599Y-99681226D01*
X131395504Y-100829702D02*
X131782552Y-100829702D01*
X133808504Y-91498226D02*
X133808504Y-90990226D01*
X134050409Y-91159559D02*
X134050409Y-91498226D01*
X134050409Y-91207940D02*
X134074599Y-91183750D01*
X134074599Y-91183750D02*
X134122980Y-91159559D01*
X134122980Y-91159559D02*
X134195552Y-91159559D01*
X134195552Y-91159559D02*
X134243933Y-91183750D01*
X134243933Y-91183750D02*
X134268123Y-91232131D01*
X134268123Y-91232131D02*
X134268123Y-91498226D01*
X134510028Y-91159559D02*
X134510028Y-91667559D01*
X134510028Y-91183750D02*
X134558409Y-91159559D01*
X134558409Y-91159559D02*
X134655171Y-91159559D01*
X134655171Y-91159559D02*
X134703552Y-91183750D01*
X134703552Y-91183750D02*
X134727742Y-91207940D01*
X134727742Y-91207940D02*
X134751933Y-91256321D01*
X134751933Y-91256321D02*
X134751933Y-91401464D01*
X134751933Y-91401464D02*
X134727742Y-91449845D01*
X134727742Y-91449845D02*
X134703552Y-91474036D01*
X134703552Y-91474036D02*
X134655171Y-91498226D01*
X134655171Y-91498226D02*
X134558409Y-91498226D01*
X134558409Y-91498226D02*
X134510028Y-91474036D01*
X135187361Y-91159559D02*
X135187361Y-91498226D01*
X134969647Y-91159559D02*
X134969647Y-91425655D01*
X134969647Y-91425655D02*
X134993837Y-91474036D01*
X134993837Y-91474036D02*
X135042218Y-91498226D01*
X135042218Y-91498226D02*
X135114790Y-91498226D01*
X135114790Y-91498226D02*
X135163171Y-91474036D01*
X135163171Y-91474036D02*
X135187361Y-91449845D01*
X135356694Y-91159559D02*
X135550218Y-91159559D01*
X135429266Y-90990226D02*
X135429266Y-91425655D01*
X135429266Y-91425655D02*
X135453456Y-91474036D01*
X135453456Y-91474036D02*
X135501837Y-91498226D01*
X135501837Y-91498226D02*
X135550218Y-91498226D01*
X146644790Y-92331226D02*
X146475456Y-92089321D01*
X146354504Y-92331226D02*
X146354504Y-91823226D01*
X146354504Y-91823226D02*
X146548028Y-91823226D01*
X146548028Y-91823226D02*
X146596409Y-91847416D01*
X146596409Y-91847416D02*
X146620599Y-91871607D01*
X146620599Y-91871607D02*
X146644790Y-91919988D01*
X146644790Y-91919988D02*
X146644790Y-91992559D01*
X146644790Y-91992559D02*
X146620599Y-92040940D01*
X146620599Y-92040940D02*
X146596409Y-92065131D01*
X146596409Y-92065131D02*
X146548028Y-92089321D01*
X146548028Y-92089321D02*
X146354504Y-92089321D01*
X147128599Y-92331226D02*
X146838313Y-92331226D01*
X146983456Y-92331226D02*
X146983456Y-91823226D01*
X146983456Y-91823226D02*
X146935075Y-91895797D01*
X146935075Y-91895797D02*
X146886694Y-91944178D01*
X146886694Y-91944178D02*
X146838313Y-91968369D01*
X131164504Y-91397702D02*
X131551552Y-91397702D01*
X131358028Y-91591226D02*
X131358028Y-91204178D01*
D12*
%TO.C,BuckConverter3-17V->3.3V-LED1*%
X144950000Y-94552500D02*
G75*
G02*
X144850000Y-94552500I-50000J0D01*
G01*
X144850000Y-94552500D02*
G75*
G02*
X144950000Y-94552500I50000J0D01*
G01*
D13*
%TO.C,BuckConverter3-17V->3.3V-R1*%
X146529879Y-92720000D02*
X146865121Y-92720000D01*
X146529879Y-93480000D02*
X146865121Y-93480000D01*
%TO.C,BuckConverter3-17V->3.3V-ScrewTerminalOutput1*%
X159997500Y-98390000D02*
X159387500Y-97950000D01*
X159997500Y-97510000D01*
X159997500Y-98390000D01*
G36*
X159997500Y-98390000D02*
G01*
X159387500Y-97950000D01*
X159997500Y-97510000D01*
X159997500Y-98390000D01*
G37*
X159387500Y-100170000D02*
X152147500Y-100170000D01*
X159387500Y-98250000D02*
X159387500Y-100170000D01*
X159387500Y-92230000D02*
X159387500Y-97650000D01*
X157767500Y-100170000D02*
X157767500Y-92230000D01*
X152147500Y-100170000D02*
X152147500Y-92230000D01*
X152147500Y-92230000D02*
X159387500Y-92230000D01*
%TO.C,U6*%
X141530000Y-95130000D02*
X141250000Y-95130000D01*
X141530000Y-94850000D01*
X141530000Y-95130000D01*
G36*
X141530000Y-95130000D02*
G01*
X141250000Y-95130000D01*
X141530000Y-94850000D01*
X141530000Y-95130000D01*
G37*
X141900000Y-97340000D02*
X143900000Y-97340000D01*
X141890000Y-95060000D02*
X143890000Y-95060000D01*
%TO.C,BuckConverter3-17V->3.3V-C2*%
X151575000Y-100770000D02*
X151575000Y-98450000D01*
X149925000Y-100770000D02*
X151575000Y-100770000D01*
X149925000Y-98450000D02*
X149925000Y-100770000D01*
%TO.C,BuckConverter3-17V->3.3V-C1*%
X139075000Y-94680000D02*
X139075000Y-97000000D01*
X140725000Y-94680000D02*
X139075000Y-94680000D01*
X140725000Y-97000000D02*
X140725000Y-94680000D01*
%TO.C,BuckConverter3-17V->3.3V-L1*%
X147301248Y-95090000D02*
X147823752Y-95090000D01*
X147301248Y-97310000D02*
X147823752Y-97310000D01*
%TO.C,BuckConverter3-17V->3.3V-ScrewTerminalInput1*%
X130980000Y-92230000D02*
X138220000Y-92230000D01*
X130980000Y-94150000D02*
X130980000Y-92230000D01*
X130980000Y-100170000D02*
X130980000Y-94750000D01*
X132600000Y-92230000D02*
X132600000Y-100170000D01*
X138220000Y-92230000D02*
X138220000Y-100170000D01*
X138220000Y-100170000D02*
X130980000Y-100170000D01*
X130980000Y-94450000D02*
X130370000Y-94890000D01*
X130370000Y-94010000D01*
X130980000Y-94450000D01*
G36*
X130980000Y-94450000D02*
G01*
X130370000Y-94890000D01*
X130370000Y-94010000D01*
X130980000Y-94450000D01*
G37*
%TD*%
M02*
