%TF.GenerationSoftware,KiCad,Pcbnew,9.0.7*%
%TF.CreationDate,2026-01-20T23:43:31-08:00*%
%TF.ProjectId,PCBs,50434273-2e6b-4696-9361-645f70636258,rev?*%
%TF.SameCoordinates,Original*%
%TF.FileFunction,Copper,L4,Bot*%
%TF.FilePolarity,Positive*%
%FSLAX46Y46*%
G04 Gerber Fmt 4.6, Leading zero omitted, Abs format (unit mm)*
G04 Created by KiCad (PCBNEW 9.0.7) date 2026-01-20 23:43:31*
%MOMM*%
%LPD*%
G01*
G04 APERTURE LIST*
%TA.AperFunction,ComponentPad*%
%ADD10C,2.000000*%
%TD*%
%TA.AperFunction,ViaPad*%
%ADD11C,0.800000*%
%TD*%
%TA.AperFunction,Conductor*%
%ADD12C,0.250000*%
%TD*%
G04 APERTURE END LIST*
D10*
%TO.P,P1,2,2*%
%TO.N,GND*%
X136400000Y-117100000D03*
%TO.P,P1,1,1*%
%TO.N,VCCIN*%
X136400000Y-112100000D03*
%TD*%
%TO.P,P2,1,1*%
%TO.N,GND*%
X166000000Y-117200000D03*
%TO.P,P2,2,2*%
%TO.N,VCCOUT*%
X166000000Y-112200000D03*
%TD*%
D11*
%TO.N,VCCOUT*%
X148400000Y-115700000D03*
X156400000Y-113700000D03*
X152460000Y-110000000D03*
X155400000Y-115700000D03*
%TO.N,GND*%
X158250000Y-119300000D03*
X157800000Y-118750000D03*
X158750000Y-118750000D03*
X142850000Y-115650000D03*
X143300000Y-116200000D03*
X143800000Y-115650000D03*
X146450000Y-114750000D03*
X146450000Y-114175000D03*
X146450000Y-115325000D03*
%TO.N,VCCIN*%
X144500000Y-114200000D03*
X144500000Y-113625000D03*
%TD*%
D12*
%TO.N,VCCOUT*%
X154100000Y-110000000D02*
X156400000Y-112300000D01*
X154100000Y-110000000D02*
X152460000Y-110000000D01*
X156400000Y-113700000D02*
X156400000Y-112300000D01*
X148400000Y-117100000D02*
X148400000Y-115700000D01*
X155400000Y-117100000D02*
X154500000Y-118000000D01*
X154500000Y-118000000D02*
X149300000Y-118000000D01*
X149300000Y-118000000D02*
X148400000Y-117100000D01*
X155400000Y-115700000D02*
X155400000Y-117100000D01*
%TD*%
%TA.AperFunction,Conductor*%
%TO.N,VCCOUT*%
G36*
X152550013Y-109610823D02*
G01*
X152650148Y-109637056D01*
X152651604Y-109637543D01*
X152719703Y-109665428D01*
X152737997Y-109672919D01*
X152739682Y-109673774D01*
X152869793Y-109753617D01*
X152869997Y-109753745D01*
X152959315Y-109811118D01*
X153078062Y-109857001D01*
X153156258Y-109870250D01*
X153241192Y-109874450D01*
X153249286Y-109878282D01*
X153252314Y-109886136D01*
X153252314Y-110114133D01*
X153248887Y-110122406D01*
X153241477Y-110125801D01*
X153117958Y-110134938D01*
X153117948Y-110134939D01*
X153017881Y-110161614D01*
X153017880Y-110161615D01*
X152939429Y-110200307D01*
X152939426Y-110200308D01*
X152896427Y-110228762D01*
X152869899Y-110246318D01*
X152869881Y-110246329D01*
X152869880Y-110246331D01*
X152835465Y-110269952D01*
X152834530Y-110270532D01*
X152708236Y-110340752D01*
X152706568Y-110341514D01*
X152631894Y-110368819D01*
X152630709Y-110369183D01*
X152549920Y-110389347D01*
X152541064Y-110388025D01*
X152535735Y-110380828D01*
X152535617Y-110380306D01*
X152486185Y-110134939D01*
X152459465Y-110002308D01*
X152459465Y-109997691D01*
X152535589Y-109619831D01*
X152540582Y-109612400D01*
X152549369Y-109610674D01*
X152550013Y-109610823D01*
G37*
%TD.AperFunction*%
%TD*%
%TA.AperFunction,Conductor*%
%TO.N,VCCOUT*%
G36*
X156522407Y-112911113D02*
G01*
X156525802Y-112918523D01*
X156534938Y-113042041D01*
X156534939Y-113042051D01*
X156561614Y-113142118D01*
X156561615Y-113142119D01*
X156600307Y-113220570D01*
X156600308Y-113220573D01*
X156646330Y-113290119D01*
X156669952Y-113324534D01*
X156670532Y-113325469D01*
X156740752Y-113451763D01*
X156741514Y-113453431D01*
X156768819Y-113528104D01*
X156769183Y-113529289D01*
X156789347Y-113610079D01*
X156788025Y-113618936D01*
X156780828Y-113624264D01*
X156780306Y-113624382D01*
X156402311Y-113700534D01*
X156397689Y-113700534D01*
X156019833Y-113624411D01*
X156012400Y-113619417D01*
X156010674Y-113610630D01*
X156010822Y-113609993D01*
X156037057Y-113509846D01*
X156037541Y-113508398D01*
X156072920Y-113421997D01*
X156073774Y-113420316D01*
X156153682Y-113290100D01*
X156211118Y-113200685D01*
X156257001Y-113081938D01*
X156270250Y-113003742D01*
X156274450Y-112918807D01*
X156278282Y-112910714D01*
X156286136Y-112907686D01*
X156514134Y-112907686D01*
X156522407Y-112911113D01*
G37*
%TD.AperFunction*%
%TD*%
%TA.AperFunction,Conductor*%
%TO.N,VCCOUT*%
G36*
X148780167Y-115775588D02*
G01*
X148787599Y-115780582D01*
X148789325Y-115789369D01*
X148789173Y-115790023D01*
X148762945Y-115890141D01*
X148762454Y-115891610D01*
X148727080Y-115977997D01*
X148726225Y-115979682D01*
X148646383Y-116109793D01*
X148646255Y-116109997D01*
X148588884Y-116199309D01*
X148588883Y-116199312D01*
X148543000Y-116318058D01*
X148542999Y-116318060D01*
X148542999Y-116318062D01*
X148536240Y-116357958D01*
X148529749Y-116396266D01*
X148525550Y-116481192D01*
X148521718Y-116489286D01*
X148513864Y-116492314D01*
X148285866Y-116492314D01*
X148277593Y-116488887D01*
X148274198Y-116481477D01*
X148267895Y-116396266D01*
X148265061Y-116357953D01*
X148254427Y-116318062D01*
X148238385Y-116257881D01*
X148209498Y-116199312D01*
X148199692Y-116179429D01*
X148199690Y-116179426D01*
X148199687Y-116179421D01*
X148153682Y-116109899D01*
X148130042Y-116075457D01*
X148129466Y-116074528D01*
X148059247Y-115948234D01*
X148058485Y-115946567D01*
X148038126Y-115890891D01*
X148031175Y-115871882D01*
X148030818Y-115870721D01*
X148010652Y-115789919D01*
X148011974Y-115781063D01*
X148019171Y-115775735D01*
X148019693Y-115775617D01*
X148019837Y-115775588D01*
X148397692Y-115699465D01*
X148402308Y-115699465D01*
X148780167Y-115775588D01*
G37*
%TD.AperFunction*%
%TD*%
%TA.AperFunction,Conductor*%
%TO.N,VCCOUT*%
G36*
X155780167Y-115775588D02*
G01*
X155787599Y-115780582D01*
X155789325Y-115789369D01*
X155789173Y-115790023D01*
X155762945Y-115890141D01*
X155762454Y-115891610D01*
X155727080Y-115977997D01*
X155726225Y-115979682D01*
X155646383Y-116109793D01*
X155646255Y-116109997D01*
X155588884Y-116199309D01*
X155588883Y-116199312D01*
X155543000Y-116318058D01*
X155542999Y-116318060D01*
X155542999Y-116318062D01*
X155536240Y-116357958D01*
X155529749Y-116396266D01*
X155525550Y-116481192D01*
X155521718Y-116489286D01*
X155513864Y-116492314D01*
X155285866Y-116492314D01*
X155277593Y-116488887D01*
X155274198Y-116481477D01*
X155267895Y-116396266D01*
X155265061Y-116357953D01*
X155254427Y-116318062D01*
X155238385Y-116257881D01*
X155209498Y-116199312D01*
X155199692Y-116179429D01*
X155199690Y-116179426D01*
X155199687Y-116179421D01*
X155153682Y-116109899D01*
X155130042Y-116075457D01*
X155129466Y-116074528D01*
X155059247Y-115948234D01*
X155058485Y-115946567D01*
X155038126Y-115890891D01*
X155031175Y-115871882D01*
X155030818Y-115870721D01*
X155010652Y-115789919D01*
X155011974Y-115781063D01*
X155019171Y-115775735D01*
X155019693Y-115775617D01*
X155019837Y-115775588D01*
X155397692Y-115699465D01*
X155402308Y-115699465D01*
X155780167Y-115775588D01*
G37*
%TD.AperFunction*%
%TD*%
M02*
