%TF.GenerationSoftware,KiCad,Pcbnew,9.0.7*%
%TF.CreationDate,2026-01-20T22:52:20-08:00*%
%TF.ProjectId,PCBs,50434273-2e6b-4696-9361-645f70636258,rev?*%
%TF.SameCoordinates,Original*%
%TF.FileFunction,Legend,Top*%
%TF.FilePolarity,Positive*%
%FSLAX46Y46*%
G04 Gerber Fmt 4.6, Leading zero omitted, Abs format (unit mm)*
G04 Created by KiCad (PCBNEW 9.0.7) date 2026-01-20 22:52:20*
%MOMM*%
%LPD*%
G01*
G04 APERTURE LIST*
%ADD10C,0.075000*%
%ADD11C,0.300000*%
%ADD12C,0.250000*%
%ADD13C,0.150000*%
%ADD14C,0.120000*%
%ADD15C,0.100000*%
%ADD16C,0.040000*%
G04 APERTURE END LIST*
D10*
X145367913Y-109099667D02*
X145425056Y-109118715D01*
X145425056Y-109118715D02*
X145444103Y-109137763D01*
X145444103Y-109137763D02*
X145463151Y-109175858D01*
X145463151Y-109175858D02*
X145463151Y-109233001D01*
X145463151Y-109233001D02*
X145444103Y-109271096D01*
X145444103Y-109271096D02*
X145425056Y-109290144D01*
X145425056Y-109290144D02*
X145386961Y-109309191D01*
X145386961Y-109309191D02*
X145234580Y-109309191D01*
X145234580Y-109309191D02*
X145234580Y-108909191D01*
X145234580Y-108909191D02*
X145367913Y-108909191D01*
X145367913Y-108909191D02*
X145406008Y-108928239D01*
X145406008Y-108928239D02*
X145425056Y-108947286D01*
X145425056Y-108947286D02*
X145444103Y-108985382D01*
X145444103Y-108985382D02*
X145444103Y-109023477D01*
X145444103Y-109023477D02*
X145425056Y-109061572D01*
X145425056Y-109061572D02*
X145406008Y-109080620D01*
X145406008Y-109080620D02*
X145367913Y-109099667D01*
X145367913Y-109099667D02*
X145234580Y-109099667D01*
X145806008Y-109042524D02*
X145806008Y-109309191D01*
X145634580Y-109042524D02*
X145634580Y-109252048D01*
X145634580Y-109252048D02*
X145653627Y-109290144D01*
X145653627Y-109290144D02*
X145691722Y-109309191D01*
X145691722Y-109309191D02*
X145748865Y-109309191D01*
X145748865Y-109309191D02*
X145786961Y-109290144D01*
X145786961Y-109290144D02*
X145806008Y-109271096D01*
X146167913Y-109290144D02*
X146129818Y-109309191D01*
X146129818Y-109309191D02*
X146053627Y-109309191D01*
X146053627Y-109309191D02*
X146015532Y-109290144D01*
X146015532Y-109290144D02*
X145996485Y-109271096D01*
X145996485Y-109271096D02*
X145977437Y-109233001D01*
X145977437Y-109233001D02*
X145977437Y-109118715D01*
X145977437Y-109118715D02*
X145996485Y-109080620D01*
X145996485Y-109080620D02*
X146015532Y-109061572D01*
X146015532Y-109061572D02*
X146053627Y-109042524D01*
X146053627Y-109042524D02*
X146129818Y-109042524D01*
X146129818Y-109042524D02*
X146167913Y-109061572D01*
X146339342Y-109309191D02*
X146339342Y-108909191D01*
X146377437Y-109156810D02*
X146491723Y-109309191D01*
X146491723Y-109042524D02*
X146339342Y-109194905D01*
X147196485Y-109271096D02*
X147177437Y-109290144D01*
X147177437Y-109290144D02*
X147120295Y-109309191D01*
X147120295Y-109309191D02*
X147082199Y-109309191D01*
X147082199Y-109309191D02*
X147025056Y-109290144D01*
X147025056Y-109290144D02*
X146986961Y-109252048D01*
X146986961Y-109252048D02*
X146967914Y-109213953D01*
X146967914Y-109213953D02*
X146948866Y-109137763D01*
X146948866Y-109137763D02*
X146948866Y-109080620D01*
X146948866Y-109080620D02*
X146967914Y-109004429D01*
X146967914Y-109004429D02*
X146986961Y-108966334D01*
X146986961Y-108966334D02*
X147025056Y-108928239D01*
X147025056Y-108928239D02*
X147082199Y-108909191D01*
X147082199Y-108909191D02*
X147120295Y-108909191D01*
X147120295Y-108909191D02*
X147177437Y-108928239D01*
X147177437Y-108928239D02*
X147196485Y-108947286D01*
X147425056Y-109309191D02*
X147386961Y-109290144D01*
X147386961Y-109290144D02*
X147367914Y-109271096D01*
X147367914Y-109271096D02*
X147348866Y-109233001D01*
X147348866Y-109233001D02*
X147348866Y-109118715D01*
X147348866Y-109118715D02*
X147367914Y-109080620D01*
X147367914Y-109080620D02*
X147386961Y-109061572D01*
X147386961Y-109061572D02*
X147425056Y-109042524D01*
X147425056Y-109042524D02*
X147482199Y-109042524D01*
X147482199Y-109042524D02*
X147520295Y-109061572D01*
X147520295Y-109061572D02*
X147539342Y-109080620D01*
X147539342Y-109080620D02*
X147558390Y-109118715D01*
X147558390Y-109118715D02*
X147558390Y-109233001D01*
X147558390Y-109233001D02*
X147539342Y-109271096D01*
X147539342Y-109271096D02*
X147520295Y-109290144D01*
X147520295Y-109290144D02*
X147482199Y-109309191D01*
X147482199Y-109309191D02*
X147425056Y-109309191D01*
X147729819Y-109042524D02*
X147729819Y-109309191D01*
X147729819Y-109080620D02*
X147748866Y-109061572D01*
X147748866Y-109061572D02*
X147786961Y-109042524D01*
X147786961Y-109042524D02*
X147844104Y-109042524D01*
X147844104Y-109042524D02*
X147882200Y-109061572D01*
X147882200Y-109061572D02*
X147901247Y-109099667D01*
X147901247Y-109099667D02*
X147901247Y-109309191D01*
X148053628Y-109042524D02*
X148148866Y-109309191D01*
X148148866Y-109309191D02*
X148244105Y-109042524D01*
X148548867Y-109290144D02*
X148510771Y-109309191D01*
X148510771Y-109309191D02*
X148434581Y-109309191D01*
X148434581Y-109309191D02*
X148396486Y-109290144D01*
X148396486Y-109290144D02*
X148377438Y-109252048D01*
X148377438Y-109252048D02*
X148377438Y-109099667D01*
X148377438Y-109099667D02*
X148396486Y-109061572D01*
X148396486Y-109061572D02*
X148434581Y-109042524D01*
X148434581Y-109042524D02*
X148510771Y-109042524D01*
X148510771Y-109042524D02*
X148548867Y-109061572D01*
X148548867Y-109061572D02*
X148567914Y-109099667D01*
X148567914Y-109099667D02*
X148567914Y-109137763D01*
X148567914Y-109137763D02*
X148377438Y-109175858D01*
X148739343Y-109309191D02*
X148739343Y-109042524D01*
X148739343Y-109118715D02*
X148758390Y-109080620D01*
X148758390Y-109080620D02*
X148777438Y-109061572D01*
X148777438Y-109061572D02*
X148815533Y-109042524D01*
X148815533Y-109042524D02*
X148853628Y-109042524D01*
X148929819Y-109042524D02*
X149082200Y-109042524D01*
X148986962Y-108909191D02*
X148986962Y-109252048D01*
X148986962Y-109252048D02*
X149006009Y-109290144D01*
X149006009Y-109290144D02*
X149044104Y-109309191D01*
X149044104Y-109309191D02*
X149082200Y-109309191D01*
X149367914Y-109290144D02*
X149329818Y-109309191D01*
X149329818Y-109309191D02*
X149253628Y-109309191D01*
X149253628Y-109309191D02*
X149215533Y-109290144D01*
X149215533Y-109290144D02*
X149196485Y-109252048D01*
X149196485Y-109252048D02*
X149196485Y-109099667D01*
X149196485Y-109099667D02*
X149215533Y-109061572D01*
X149215533Y-109061572D02*
X149253628Y-109042524D01*
X149253628Y-109042524D02*
X149329818Y-109042524D01*
X149329818Y-109042524D02*
X149367914Y-109061572D01*
X149367914Y-109061572D02*
X149386961Y-109099667D01*
X149386961Y-109099667D02*
X149386961Y-109137763D01*
X149386961Y-109137763D02*
X149196485Y-109175858D01*
X149558390Y-109309191D02*
X149558390Y-109042524D01*
X149558390Y-109118715D02*
X149577437Y-109080620D01*
X149577437Y-109080620D02*
X149596485Y-109061572D01*
X149596485Y-109061572D02*
X149634580Y-109042524D01*
X149634580Y-109042524D02*
X149672675Y-109042524D01*
X150053628Y-108909191D02*
X150186961Y-109309191D01*
X150186961Y-109309191D02*
X150320294Y-108909191D01*
X150663151Y-109309191D02*
X150434580Y-109309191D01*
X150548866Y-109309191D02*
X150548866Y-108909191D01*
X150548866Y-108909191D02*
X150510770Y-108966334D01*
X150510770Y-108966334D02*
X150472675Y-109004429D01*
X150472675Y-109004429D02*
X150434580Y-109023477D01*
X150834580Y-109271096D02*
X150853627Y-109290144D01*
X150853627Y-109290144D02*
X150834580Y-109309191D01*
X150834580Y-109309191D02*
X150815532Y-109290144D01*
X150815532Y-109290144D02*
X150834580Y-109271096D01*
X150834580Y-109271096D02*
X150834580Y-109309191D01*
X151101246Y-108909191D02*
X151139341Y-108909191D01*
X151139341Y-108909191D02*
X151177437Y-108928239D01*
X151177437Y-108928239D02*
X151196484Y-108947286D01*
X151196484Y-108947286D02*
X151215532Y-108985382D01*
X151215532Y-108985382D02*
X151234579Y-109061572D01*
X151234579Y-109061572D02*
X151234579Y-109156810D01*
X151234579Y-109156810D02*
X151215532Y-109233001D01*
X151215532Y-109233001D02*
X151196484Y-109271096D01*
X151196484Y-109271096D02*
X151177437Y-109290144D01*
X151177437Y-109290144D02*
X151139341Y-109309191D01*
X151139341Y-109309191D02*
X151101246Y-109309191D01*
X151101246Y-109309191D02*
X151063151Y-109290144D01*
X151063151Y-109290144D02*
X151044103Y-109271096D01*
X151044103Y-109271096D02*
X151025056Y-109233001D01*
X151025056Y-109233001D02*
X151006008Y-109156810D01*
X151006008Y-109156810D02*
X151006008Y-109061572D01*
X151006008Y-109061572D02*
X151025056Y-108985382D01*
X151025056Y-108985382D02*
X151044103Y-108947286D01*
X151044103Y-108947286D02*
X151063151Y-108928239D01*
X151063151Y-108928239D02*
X151101246Y-108909191D01*
X151482198Y-108909191D02*
X151520293Y-108909191D01*
X151520293Y-108909191D02*
X151558389Y-108928239D01*
X151558389Y-108928239D02*
X151577436Y-108947286D01*
X151577436Y-108947286D02*
X151596484Y-108985382D01*
X151596484Y-108985382D02*
X151615531Y-109061572D01*
X151615531Y-109061572D02*
X151615531Y-109156810D01*
X151615531Y-109156810D02*
X151596484Y-109233001D01*
X151596484Y-109233001D02*
X151577436Y-109271096D01*
X151577436Y-109271096D02*
X151558389Y-109290144D01*
X151558389Y-109290144D02*
X151520293Y-109309191D01*
X151520293Y-109309191D02*
X151482198Y-109309191D01*
X151482198Y-109309191D02*
X151444103Y-109290144D01*
X151444103Y-109290144D02*
X151425055Y-109271096D01*
X151425055Y-109271096D02*
X151406008Y-109233001D01*
X151406008Y-109233001D02*
X151386960Y-109156810D01*
X151386960Y-109156810D02*
X151386960Y-109061572D01*
X151386960Y-109061572D02*
X151406008Y-108985382D01*
X151406008Y-108985382D02*
X151425055Y-108947286D01*
X151425055Y-108947286D02*
X151444103Y-108928239D01*
X151444103Y-108928239D02*
X151482198Y-108909191D01*
X152301245Y-109309191D02*
X152072674Y-109309191D01*
X152186960Y-109309191D02*
X152186960Y-108909191D01*
X152186960Y-108909191D02*
X152148864Y-108966334D01*
X152148864Y-108966334D02*
X152110769Y-109004429D01*
X152110769Y-109004429D02*
X152072674Y-109023477D01*
X152758388Y-108890144D02*
X152415531Y-109404429D01*
X153101245Y-109309191D02*
X152872674Y-109309191D01*
X152986960Y-109309191D02*
X152986960Y-108909191D01*
X152986960Y-108909191D02*
X152948864Y-108966334D01*
X152948864Y-108966334D02*
X152910769Y-109004429D01*
X152910769Y-109004429D02*
X152872674Y-109023477D01*
X153291721Y-109309191D02*
X153367912Y-109309191D01*
X153367912Y-109309191D02*
X153406007Y-109290144D01*
X153406007Y-109290144D02*
X153425055Y-109271096D01*
X153425055Y-109271096D02*
X153463150Y-109213953D01*
X153463150Y-109213953D02*
X153482197Y-109137763D01*
X153482197Y-109137763D02*
X153482197Y-108985382D01*
X153482197Y-108985382D02*
X153463150Y-108947286D01*
X153463150Y-108947286D02*
X153444102Y-108928239D01*
X153444102Y-108928239D02*
X153406007Y-108909191D01*
X153406007Y-108909191D02*
X153329816Y-108909191D01*
X153329816Y-108909191D02*
X153291721Y-108928239D01*
X153291721Y-108928239D02*
X153272674Y-108947286D01*
X153272674Y-108947286D02*
X153253626Y-108985382D01*
X153253626Y-108985382D02*
X153253626Y-109080620D01*
X153253626Y-109080620D02*
X153272674Y-109118715D01*
X153272674Y-109118715D02*
X153291721Y-109137763D01*
X153291721Y-109137763D02*
X153329816Y-109156810D01*
X153329816Y-109156810D02*
X153406007Y-109156810D01*
X153406007Y-109156810D02*
X153444102Y-109137763D01*
X153444102Y-109137763D02*
X153463150Y-109118715D01*
X153463150Y-109118715D02*
X153482197Y-109080620D01*
X153939340Y-108890144D02*
X153596483Y-109404429D01*
X154053626Y-108947286D02*
X154072674Y-108928239D01*
X154072674Y-108928239D02*
X154110769Y-108909191D01*
X154110769Y-108909191D02*
X154206007Y-108909191D01*
X154206007Y-108909191D02*
X154244102Y-108928239D01*
X154244102Y-108928239D02*
X154263150Y-108947286D01*
X154263150Y-108947286D02*
X154282197Y-108985382D01*
X154282197Y-108985382D02*
X154282197Y-109023477D01*
X154282197Y-109023477D02*
X154263150Y-109080620D01*
X154263150Y-109080620D02*
X154034578Y-109309191D01*
X154034578Y-109309191D02*
X154282197Y-109309191D01*
X154625054Y-108909191D02*
X154548864Y-108909191D01*
X154548864Y-108909191D02*
X154510768Y-108928239D01*
X154510768Y-108928239D02*
X154491721Y-108947286D01*
X154491721Y-108947286D02*
X154453626Y-109004429D01*
X154453626Y-109004429D02*
X154434578Y-109080620D01*
X154434578Y-109080620D02*
X154434578Y-109233001D01*
X154434578Y-109233001D02*
X154453626Y-109271096D01*
X154453626Y-109271096D02*
X154472673Y-109290144D01*
X154472673Y-109290144D02*
X154510768Y-109309191D01*
X154510768Y-109309191D02*
X154586959Y-109309191D01*
X154586959Y-109309191D02*
X154625054Y-109290144D01*
X154625054Y-109290144D02*
X154644102Y-109271096D01*
X154644102Y-109271096D02*
X154663149Y-109233001D01*
X154663149Y-109233001D02*
X154663149Y-109137763D01*
X154663149Y-109137763D02*
X154644102Y-109099667D01*
X154644102Y-109099667D02*
X154625054Y-109080620D01*
X154625054Y-109080620D02*
X154586959Y-109061572D01*
X154586959Y-109061572D02*
X154510768Y-109061572D01*
X154510768Y-109061572D02*
X154472673Y-109080620D01*
X154472673Y-109080620D02*
X154453626Y-109099667D01*
X154453626Y-109099667D02*
X154434578Y-109137763D01*
X145234580Y-109953169D02*
X145234580Y-109553169D01*
X145425056Y-109686502D02*
X145425056Y-109953169D01*
X145425056Y-109724598D02*
X145444103Y-109705550D01*
X145444103Y-109705550D02*
X145482198Y-109686502D01*
X145482198Y-109686502D02*
X145539341Y-109686502D01*
X145539341Y-109686502D02*
X145577437Y-109705550D01*
X145577437Y-109705550D02*
X145596484Y-109743645D01*
X145596484Y-109743645D02*
X145596484Y-109953169D01*
X145786961Y-109686502D02*
X145786961Y-110086502D01*
X145786961Y-109705550D02*
X145825056Y-109686502D01*
X145825056Y-109686502D02*
X145901246Y-109686502D01*
X145901246Y-109686502D02*
X145939342Y-109705550D01*
X145939342Y-109705550D02*
X145958389Y-109724598D01*
X145958389Y-109724598D02*
X145977437Y-109762693D01*
X145977437Y-109762693D02*
X145977437Y-109876979D01*
X145977437Y-109876979D02*
X145958389Y-109915074D01*
X145958389Y-109915074D02*
X145939342Y-109934122D01*
X145939342Y-109934122D02*
X145901246Y-109953169D01*
X145901246Y-109953169D02*
X145825056Y-109953169D01*
X145825056Y-109953169D02*
X145786961Y-109934122D01*
X146320294Y-109686502D02*
X146320294Y-109953169D01*
X146148866Y-109686502D02*
X146148866Y-109896026D01*
X146148866Y-109896026D02*
X146167913Y-109934122D01*
X146167913Y-109934122D02*
X146206008Y-109953169D01*
X146206008Y-109953169D02*
X146263151Y-109953169D01*
X146263151Y-109953169D02*
X146301247Y-109934122D01*
X146301247Y-109934122D02*
X146320294Y-109915074D01*
X146453628Y-109686502D02*
X146606009Y-109686502D01*
X146510771Y-109553169D02*
X146510771Y-109896026D01*
X146510771Y-109896026D02*
X146529818Y-109934122D01*
X146529818Y-109934122D02*
X146567913Y-109953169D01*
X146567913Y-109953169D02*
X146606009Y-109953169D01*
X147006008Y-109553169D02*
X147253627Y-109553169D01*
X147253627Y-109553169D02*
X147120294Y-109705550D01*
X147120294Y-109705550D02*
X147177437Y-109705550D01*
X147177437Y-109705550D02*
X147215532Y-109724598D01*
X147215532Y-109724598D02*
X147234580Y-109743645D01*
X147234580Y-109743645D02*
X147253627Y-109781741D01*
X147253627Y-109781741D02*
X147253627Y-109876979D01*
X147253627Y-109876979D02*
X147234580Y-109915074D01*
X147234580Y-109915074D02*
X147215532Y-109934122D01*
X147215532Y-109934122D02*
X147177437Y-109953169D01*
X147177437Y-109953169D02*
X147063151Y-109953169D01*
X147063151Y-109953169D02*
X147025056Y-109934122D01*
X147025056Y-109934122D02*
X147006008Y-109915074D01*
X147425056Y-109800788D02*
X147729818Y-109800788D01*
X148129817Y-109953169D02*
X147901246Y-109953169D01*
X148015532Y-109953169D02*
X148015532Y-109553169D01*
X148015532Y-109553169D02*
X147977436Y-109610312D01*
X147977436Y-109610312D02*
X147939341Y-109648407D01*
X147939341Y-109648407D02*
X147901246Y-109667455D01*
X148263150Y-109553169D02*
X148529817Y-109553169D01*
X148529817Y-109553169D02*
X148358388Y-109953169D01*
X148625055Y-109553169D02*
X148758388Y-109953169D01*
X148758388Y-109953169D02*
X148891721Y-109553169D01*
X149329817Y-109800788D02*
X149634579Y-109800788D01*
X149825055Y-109686502D02*
X150129817Y-109800788D01*
X150129817Y-109800788D02*
X149825055Y-109915074D01*
X150758388Y-109743645D02*
X150625055Y-109743645D01*
X150625055Y-109953169D02*
X150625055Y-109553169D01*
X150625055Y-109553169D02*
X150815531Y-109553169D01*
X150967912Y-109953169D02*
X150967912Y-109686502D01*
X150967912Y-109553169D02*
X150948864Y-109572217D01*
X150948864Y-109572217D02*
X150967912Y-109591264D01*
X150967912Y-109591264D02*
X150986959Y-109572217D01*
X150986959Y-109572217D02*
X150967912Y-109553169D01*
X150967912Y-109553169D02*
X150967912Y-109591264D01*
X151120292Y-109953169D02*
X151329816Y-109686502D01*
X151120292Y-109686502D02*
X151329816Y-109953169D01*
X151634579Y-109934122D02*
X151596483Y-109953169D01*
X151596483Y-109953169D02*
X151520293Y-109953169D01*
X151520293Y-109953169D02*
X151482198Y-109934122D01*
X151482198Y-109934122D02*
X151463150Y-109896026D01*
X151463150Y-109896026D02*
X151463150Y-109743645D01*
X151463150Y-109743645D02*
X151482198Y-109705550D01*
X151482198Y-109705550D02*
X151520293Y-109686502D01*
X151520293Y-109686502D02*
X151596483Y-109686502D01*
X151596483Y-109686502D02*
X151634579Y-109705550D01*
X151634579Y-109705550D02*
X151653626Y-109743645D01*
X151653626Y-109743645D02*
X151653626Y-109781741D01*
X151653626Y-109781741D02*
X151463150Y-109819836D01*
X151996483Y-109953169D02*
X151996483Y-109553169D01*
X151996483Y-109934122D02*
X151958388Y-109953169D01*
X151958388Y-109953169D02*
X151882197Y-109953169D01*
X151882197Y-109953169D02*
X151844102Y-109934122D01*
X151844102Y-109934122D02*
X151825055Y-109915074D01*
X151825055Y-109915074D02*
X151806007Y-109876979D01*
X151806007Y-109876979D02*
X151806007Y-109762693D01*
X151806007Y-109762693D02*
X151825055Y-109724598D01*
X151825055Y-109724598D02*
X151844102Y-109705550D01*
X151844102Y-109705550D02*
X151882197Y-109686502D01*
X151882197Y-109686502D02*
X151958388Y-109686502D01*
X151958388Y-109686502D02*
X151996483Y-109705550D01*
X152453626Y-109553169D02*
X152701245Y-109553169D01*
X152701245Y-109553169D02*
X152567912Y-109705550D01*
X152567912Y-109705550D02*
X152625055Y-109705550D01*
X152625055Y-109705550D02*
X152663150Y-109724598D01*
X152663150Y-109724598D02*
X152682198Y-109743645D01*
X152682198Y-109743645D02*
X152701245Y-109781741D01*
X152701245Y-109781741D02*
X152701245Y-109876979D01*
X152701245Y-109876979D02*
X152682198Y-109915074D01*
X152682198Y-109915074D02*
X152663150Y-109934122D01*
X152663150Y-109934122D02*
X152625055Y-109953169D01*
X152625055Y-109953169D02*
X152510769Y-109953169D01*
X152510769Y-109953169D02*
X152472674Y-109934122D01*
X152472674Y-109934122D02*
X152453626Y-109915074D01*
X152872674Y-109915074D02*
X152891721Y-109934122D01*
X152891721Y-109934122D02*
X152872674Y-109953169D01*
X152872674Y-109953169D02*
X152853626Y-109934122D01*
X152853626Y-109934122D02*
X152872674Y-109915074D01*
X152872674Y-109915074D02*
X152872674Y-109953169D01*
X153025054Y-109553169D02*
X153272673Y-109553169D01*
X153272673Y-109553169D02*
X153139340Y-109705550D01*
X153139340Y-109705550D02*
X153196483Y-109705550D01*
X153196483Y-109705550D02*
X153234578Y-109724598D01*
X153234578Y-109724598D02*
X153253626Y-109743645D01*
X153253626Y-109743645D02*
X153272673Y-109781741D01*
X153272673Y-109781741D02*
X153272673Y-109876979D01*
X153272673Y-109876979D02*
X153253626Y-109915074D01*
X153253626Y-109915074D02*
X153234578Y-109934122D01*
X153234578Y-109934122D02*
X153196483Y-109953169D01*
X153196483Y-109953169D02*
X153082197Y-109953169D01*
X153082197Y-109953169D02*
X153044102Y-109934122D01*
X153044102Y-109934122D02*
X153025054Y-109915074D01*
X153386959Y-109553169D02*
X153520292Y-109953169D01*
X153520292Y-109953169D02*
X153653625Y-109553169D01*
X145425056Y-110197147D02*
X145234580Y-110197147D01*
X145234580Y-110197147D02*
X145215532Y-110387623D01*
X145215532Y-110387623D02*
X145234580Y-110368576D01*
X145234580Y-110368576D02*
X145272675Y-110349528D01*
X145272675Y-110349528D02*
X145367913Y-110349528D01*
X145367913Y-110349528D02*
X145406008Y-110368576D01*
X145406008Y-110368576D02*
X145425056Y-110387623D01*
X145425056Y-110387623D02*
X145444103Y-110425719D01*
X145444103Y-110425719D02*
X145444103Y-110520957D01*
X145444103Y-110520957D02*
X145425056Y-110559052D01*
X145425056Y-110559052D02*
X145406008Y-110578100D01*
X145406008Y-110578100D02*
X145367913Y-110597147D01*
X145367913Y-110597147D02*
X145272675Y-110597147D01*
X145272675Y-110597147D02*
X145234580Y-110578100D01*
X145234580Y-110578100D02*
X145215532Y-110559052D01*
X145691722Y-110197147D02*
X145729817Y-110197147D01*
X145729817Y-110197147D02*
X145767913Y-110216195D01*
X145767913Y-110216195D02*
X145786960Y-110235242D01*
X145786960Y-110235242D02*
X145806008Y-110273338D01*
X145806008Y-110273338D02*
X145825055Y-110349528D01*
X145825055Y-110349528D02*
X145825055Y-110444766D01*
X145825055Y-110444766D02*
X145806008Y-110520957D01*
X145806008Y-110520957D02*
X145786960Y-110559052D01*
X145786960Y-110559052D02*
X145767913Y-110578100D01*
X145767913Y-110578100D02*
X145729817Y-110597147D01*
X145729817Y-110597147D02*
X145691722Y-110597147D01*
X145691722Y-110597147D02*
X145653627Y-110578100D01*
X145653627Y-110578100D02*
X145634579Y-110559052D01*
X145634579Y-110559052D02*
X145615532Y-110520957D01*
X145615532Y-110520957D02*
X145596484Y-110444766D01*
X145596484Y-110444766D02*
X145596484Y-110349528D01*
X145596484Y-110349528D02*
X145615532Y-110273338D01*
X145615532Y-110273338D02*
X145634579Y-110235242D01*
X145634579Y-110235242D02*
X145653627Y-110216195D01*
X145653627Y-110216195D02*
X145691722Y-110197147D01*
X146072674Y-110197147D02*
X146110769Y-110197147D01*
X146110769Y-110197147D02*
X146148865Y-110216195D01*
X146148865Y-110216195D02*
X146167912Y-110235242D01*
X146167912Y-110235242D02*
X146186960Y-110273338D01*
X146186960Y-110273338D02*
X146206007Y-110349528D01*
X146206007Y-110349528D02*
X146206007Y-110444766D01*
X146206007Y-110444766D02*
X146186960Y-110520957D01*
X146186960Y-110520957D02*
X146167912Y-110559052D01*
X146167912Y-110559052D02*
X146148865Y-110578100D01*
X146148865Y-110578100D02*
X146110769Y-110597147D01*
X146110769Y-110597147D02*
X146072674Y-110597147D01*
X146072674Y-110597147D02*
X146034579Y-110578100D01*
X146034579Y-110578100D02*
X146015531Y-110559052D01*
X146015531Y-110559052D02*
X145996484Y-110520957D01*
X145996484Y-110520957D02*
X145977436Y-110444766D01*
X145977436Y-110444766D02*
X145977436Y-110349528D01*
X145977436Y-110349528D02*
X145996484Y-110273338D01*
X145996484Y-110273338D02*
X146015531Y-110235242D01*
X146015531Y-110235242D02*
X146034579Y-110216195D01*
X146034579Y-110216195D02*
X146072674Y-110197147D01*
X146377436Y-110597147D02*
X146377436Y-110330480D01*
X146377436Y-110368576D02*
X146396483Y-110349528D01*
X146396483Y-110349528D02*
X146434578Y-110330480D01*
X146434578Y-110330480D02*
X146491721Y-110330480D01*
X146491721Y-110330480D02*
X146529817Y-110349528D01*
X146529817Y-110349528D02*
X146548864Y-110387623D01*
X146548864Y-110387623D02*
X146548864Y-110597147D01*
X146548864Y-110387623D02*
X146567912Y-110349528D01*
X146567912Y-110349528D02*
X146606007Y-110330480D01*
X146606007Y-110330480D02*
X146663150Y-110330480D01*
X146663150Y-110330480D02*
X146701245Y-110349528D01*
X146701245Y-110349528D02*
X146720293Y-110387623D01*
X146720293Y-110387623D02*
X146720293Y-110597147D01*
X146891721Y-110482861D02*
X147082197Y-110482861D01*
X146853626Y-110597147D02*
X146986959Y-110197147D01*
X146986959Y-110197147D02*
X147120292Y-110597147D01*
D11*
X159479510Y-110254400D02*
X160622368Y-110254400D01*
X160050939Y-110825828D02*
X160050939Y-109682971D01*
X141954510Y-119304400D02*
X143097368Y-119304400D01*
X141904510Y-110229400D02*
X143047368Y-110229400D01*
X142475939Y-110800828D02*
X142475939Y-109657971D01*
X159504510Y-119304400D02*
X160647368Y-119304400D01*
D10*
X142105952Y-111777409D02*
X142105952Y-111277409D01*
X142105952Y-111277409D02*
X142296428Y-111277409D01*
X142296428Y-111277409D02*
X142344047Y-111301219D01*
X142344047Y-111301219D02*
X142367857Y-111325028D01*
X142367857Y-111325028D02*
X142391666Y-111372647D01*
X142391666Y-111372647D02*
X142391666Y-111444076D01*
X142391666Y-111444076D02*
X142367857Y-111491695D01*
X142367857Y-111491695D02*
X142344047Y-111515504D01*
X142344047Y-111515504D02*
X142296428Y-111539314D01*
X142296428Y-111539314D02*
X142105952Y-111539314D01*
X142867857Y-111777409D02*
X142582143Y-111777409D01*
X142725000Y-111777409D02*
X142725000Y-111277409D01*
X142725000Y-111277409D02*
X142677381Y-111348838D01*
X142677381Y-111348838D02*
X142629762Y-111396457D01*
X142629762Y-111396457D02*
X142582143Y-111420266D01*
X143241666Y-117204790D02*
X143217857Y-117228600D01*
X143217857Y-117228600D02*
X143146428Y-117252409D01*
X143146428Y-117252409D02*
X143098809Y-117252409D01*
X143098809Y-117252409D02*
X143027381Y-117228600D01*
X143027381Y-117228600D02*
X142979762Y-117180980D01*
X142979762Y-117180980D02*
X142955952Y-117133361D01*
X142955952Y-117133361D02*
X142932143Y-117038123D01*
X142932143Y-117038123D02*
X142932143Y-116966695D01*
X142932143Y-116966695D02*
X142955952Y-116871457D01*
X142955952Y-116871457D02*
X142979762Y-116823838D01*
X142979762Y-116823838D02*
X143027381Y-116776219D01*
X143027381Y-116776219D02*
X143098809Y-116752409D01*
X143098809Y-116752409D02*
X143146428Y-116752409D01*
X143146428Y-116752409D02*
X143217857Y-116776219D01*
X143217857Y-116776219D02*
X143241666Y-116800028D01*
X143717857Y-117252409D02*
X143432143Y-117252409D01*
X143575000Y-117252409D02*
X143575000Y-116752409D01*
X143575000Y-116752409D02*
X143527381Y-116823838D01*
X143527381Y-116823838D02*
X143479762Y-116871457D01*
X143479762Y-116871457D02*
X143432143Y-116895266D01*
X156466666Y-118929790D02*
X156442857Y-118953600D01*
X156442857Y-118953600D02*
X156371428Y-118977409D01*
X156371428Y-118977409D02*
X156323809Y-118977409D01*
X156323809Y-118977409D02*
X156252381Y-118953600D01*
X156252381Y-118953600D02*
X156204762Y-118905980D01*
X156204762Y-118905980D02*
X156180952Y-118858361D01*
X156180952Y-118858361D02*
X156157143Y-118763123D01*
X156157143Y-118763123D02*
X156157143Y-118691695D01*
X156157143Y-118691695D02*
X156180952Y-118596457D01*
X156180952Y-118596457D02*
X156204762Y-118548838D01*
X156204762Y-118548838D02*
X156252381Y-118501219D01*
X156252381Y-118501219D02*
X156323809Y-118477409D01*
X156323809Y-118477409D02*
X156371428Y-118477409D01*
X156371428Y-118477409D02*
X156442857Y-118501219D01*
X156442857Y-118501219D02*
X156466666Y-118525028D01*
X156657143Y-118525028D02*
X156680952Y-118501219D01*
X156680952Y-118501219D02*
X156728571Y-118477409D01*
X156728571Y-118477409D02*
X156847619Y-118477409D01*
X156847619Y-118477409D02*
X156895238Y-118501219D01*
X156895238Y-118501219D02*
X156919047Y-118525028D01*
X156919047Y-118525028D02*
X156942857Y-118572647D01*
X156942857Y-118572647D02*
X156942857Y-118620266D01*
X156942857Y-118620266D02*
X156919047Y-118691695D01*
X156919047Y-118691695D02*
X156633333Y-118977409D01*
X156633333Y-118977409D02*
X156942857Y-118977409D01*
X151916666Y-117727409D02*
X151678571Y-117727409D01*
X151678571Y-117727409D02*
X151678571Y-117227409D01*
X152345238Y-117727409D02*
X152059524Y-117727409D01*
X152202381Y-117727409D02*
X152202381Y-117227409D01*
X152202381Y-117227409D02*
X152154762Y-117298838D01*
X152154762Y-117298838D02*
X152107143Y-117346457D01*
X152107143Y-117346457D02*
X152059524Y-117370266D01*
X146094047Y-116552409D02*
X146094047Y-116957171D01*
X146094047Y-116957171D02*
X146117857Y-117004790D01*
X146117857Y-117004790D02*
X146141666Y-117028600D01*
X146141666Y-117028600D02*
X146189285Y-117052409D01*
X146189285Y-117052409D02*
X146284523Y-117052409D01*
X146284523Y-117052409D02*
X146332142Y-117028600D01*
X146332142Y-117028600D02*
X146355952Y-117004790D01*
X146355952Y-117004790D02*
X146379761Y-116957171D01*
X146379761Y-116957171D02*
X146379761Y-116552409D01*
X146879762Y-117052409D02*
X146594048Y-117052409D01*
X146736905Y-117052409D02*
X146736905Y-116552409D01*
X146736905Y-116552409D02*
X146689286Y-116623838D01*
X146689286Y-116623838D02*
X146641667Y-116671457D01*
X146641667Y-116671457D02*
X146594048Y-116695266D01*
X145440476Y-112577409D02*
X145202381Y-112577409D01*
X145202381Y-112577409D02*
X145202381Y-112077409D01*
X145607143Y-112315504D02*
X145773810Y-112315504D01*
X145845238Y-112577409D02*
X145607143Y-112577409D01*
X145607143Y-112577409D02*
X145607143Y-112077409D01*
X145607143Y-112077409D02*
X145845238Y-112077409D01*
X146059524Y-112577409D02*
X146059524Y-112077409D01*
X146059524Y-112077409D02*
X146178572Y-112077409D01*
X146178572Y-112077409D02*
X146250000Y-112101219D01*
X146250000Y-112101219D02*
X146297619Y-112148838D01*
X146297619Y-112148838D02*
X146321429Y-112196457D01*
X146321429Y-112196457D02*
X146345238Y-112291695D01*
X146345238Y-112291695D02*
X146345238Y-112363123D01*
X146345238Y-112363123D02*
X146321429Y-112458361D01*
X146321429Y-112458361D02*
X146297619Y-112505980D01*
X146297619Y-112505980D02*
X146250000Y-112553600D01*
X146250000Y-112553600D02*
X146178572Y-112577409D01*
X146178572Y-112577409D02*
X146059524Y-112577409D01*
X146821429Y-112577409D02*
X146535715Y-112577409D01*
X146678572Y-112577409D02*
X146678572Y-112077409D01*
X146678572Y-112077409D02*
X146630953Y-112148838D01*
X146630953Y-112148838D02*
X146583334Y-112196457D01*
X146583334Y-112196457D02*
X146535715Y-112220266D01*
X149066666Y-112127409D02*
X148900000Y-111889314D01*
X148780952Y-112127409D02*
X148780952Y-111627409D01*
X148780952Y-111627409D02*
X148971428Y-111627409D01*
X148971428Y-111627409D02*
X149019047Y-111651219D01*
X149019047Y-111651219D02*
X149042857Y-111675028D01*
X149042857Y-111675028D02*
X149066666Y-111722647D01*
X149066666Y-111722647D02*
X149066666Y-111794076D01*
X149066666Y-111794076D02*
X149042857Y-111841695D01*
X149042857Y-111841695D02*
X149019047Y-111865504D01*
X149019047Y-111865504D02*
X148971428Y-111889314D01*
X148971428Y-111889314D02*
X148780952Y-111889314D01*
X149542857Y-112127409D02*
X149257143Y-112127409D01*
X149400000Y-112127409D02*
X149400000Y-111627409D01*
X149400000Y-111627409D02*
X149352381Y-111698838D01*
X149352381Y-111698838D02*
X149304762Y-111746457D01*
X149304762Y-111746457D02*
X149257143Y-111770266D01*
X159680952Y-111777409D02*
X159680952Y-111277409D01*
X159680952Y-111277409D02*
X159871428Y-111277409D01*
X159871428Y-111277409D02*
X159919047Y-111301219D01*
X159919047Y-111301219D02*
X159942857Y-111325028D01*
X159942857Y-111325028D02*
X159966666Y-111372647D01*
X159966666Y-111372647D02*
X159966666Y-111444076D01*
X159966666Y-111444076D02*
X159942857Y-111491695D01*
X159942857Y-111491695D02*
X159919047Y-111515504D01*
X159919047Y-111515504D02*
X159871428Y-111539314D01*
X159871428Y-111539314D02*
X159680952Y-111539314D01*
X160157143Y-111325028D02*
X160180952Y-111301219D01*
X160180952Y-111301219D02*
X160228571Y-111277409D01*
X160228571Y-111277409D02*
X160347619Y-111277409D01*
X160347619Y-111277409D02*
X160395238Y-111301219D01*
X160395238Y-111301219D02*
X160419047Y-111325028D01*
X160419047Y-111325028D02*
X160442857Y-111372647D01*
X160442857Y-111372647D02*
X160442857Y-111420266D01*
X160442857Y-111420266D02*
X160419047Y-111491695D01*
X160419047Y-111491695D02*
X160133333Y-111777409D01*
X160133333Y-111777409D02*
X160442857Y-111777409D01*
D12*
%TO.C,P1*%
X139940000Y-109650000D02*
X139940000Y-119650000D01*
X138290000Y-109650000D02*
X138290000Y-119650000D01*
X133910000Y-109650000D02*
X133910000Y-119650000D01*
X139210000Y-109050000D02*
X139210000Y-109650000D01*
X139920000Y-109050000D02*
X139210000Y-109050000D01*
X139920000Y-109650000D02*
X139920000Y-109050000D01*
X131100000Y-119650000D02*
X131100000Y-109660000D01*
X141400000Y-119650000D02*
X131100000Y-119650000D01*
X141400000Y-109650000D02*
X141400000Y-119650000D01*
X131100000Y-109650000D02*
X141400000Y-109650000D01*
X132350000Y-109050000D02*
X132350000Y-109650000D01*
X133060000Y-109050000D02*
X132350000Y-109050000D01*
X133060000Y-109650000D02*
X133060000Y-109050000D01*
X133070000Y-118110000D02*
X131100000Y-118110000D01*
X133470000Y-117710000D02*
X133070000Y-118110000D01*
X133470000Y-117710000D02*
X133470000Y-117710000D01*
X133470000Y-116510000D02*
X133470000Y-117710000D01*
X133040000Y-116080000D02*
X133470000Y-116510000D01*
X131100000Y-116080000D02*
X133040000Y-116080000D01*
X133070000Y-113100000D02*
X131100000Y-113100000D01*
X133470000Y-112700000D02*
X133070000Y-113100000D01*
X133470000Y-112700000D02*
X133470000Y-112700000D01*
X133470000Y-111500000D02*
X133470000Y-112700000D01*
X133040000Y-111080000D02*
X133470000Y-111500000D01*
X131100000Y-111080000D02*
X133040000Y-111080000D01*
%TO.C,C1*%
X144010000Y-115180000D02*
X144010000Y-115980000D01*
X144010000Y-114620000D02*
X144010000Y-113820000D01*
X142590000Y-115180000D02*
X142590000Y-115980000D01*
X142590000Y-114620000D02*
X142590000Y-113820000D01*
X143700000Y-116290000D02*
X142900000Y-116290000D01*
X142900000Y-113510000D02*
X143700000Y-113510000D01*
X142590000Y-113820000D02*
G75*
G02*
X142900000Y-113510000I310000J0D01*
G01*
X143700000Y-113510000D02*
G75*
G02*
X144010000Y-113820000I0J-310000D01*
G01*
X144010000Y-115980000D02*
G75*
G02*
X143700000Y-116290000I-310000J0D01*
G01*
X142900000Y-116290000D02*
G75*
G02*
X142590000Y-115980000I0J310000D01*
G01*
D13*
%TO.C,C2*%
X159150000Y-119410000D02*
X159150000Y-118000000D01*
X157350000Y-118000000D02*
X157350000Y-119410000D01*
X157500000Y-119560000D02*
X159000000Y-119560000D01*
X159150000Y-115790000D02*
X159150000Y-117200000D01*
X157350000Y-117200000D02*
X157350000Y-115790000D01*
X157500000Y-115640000D02*
X159000000Y-115640000D01*
X157500000Y-119560000D02*
G75*
G02*
X157350000Y-119410000I0J150000D01*
G01*
X159150000Y-119410000D02*
G75*
G02*
X159000000Y-119560000I-150000J0D01*
G01*
X157350000Y-115790000D02*
G75*
G02*
X157500000Y-115640000I150000J0D01*
G01*
X159000000Y-115640000D02*
G75*
G02*
X159150000Y-115790000I0J-150000D01*
G01*
D12*
%TO.C,L1*%
X154000000Y-116950000D02*
X150000000Y-116950000D01*
X154000000Y-112450000D02*
X150000000Y-112450000D01*
D14*
%TO.C,U1*%
X145410000Y-116010000D02*
X147510000Y-116010000D01*
X147500000Y-113890000D02*
X145400000Y-113890000D01*
D12*
X145130000Y-113810000D02*
G75*
G02*
X144970000Y-113810000I-80000J0D01*
G01*
X144970000Y-113810000D02*
G75*
G02*
X145130000Y-113810000I80000J0D01*
G01*
D15*
%TO.C,LED1*%
X147100000Y-112150000D02*
X147100000Y-112750000D01*
X147100000Y-112750000D02*
X147200000Y-112850000D01*
X147200000Y-112850000D02*
X147580000Y-112850000D01*
X147580000Y-112850000D02*
X147700000Y-112730000D01*
X147700000Y-112730000D02*
X147700000Y-111850000D01*
X147700000Y-111850000D02*
X147100000Y-111850000D01*
X147100000Y-111850000D02*
X147100000Y-112250000D01*
D16*
X147310000Y-112330000D02*
X147510000Y-112330000D01*
X147410000Y-112330000D02*
X147410000Y-112380000D01*
D15*
X147270000Y-113010000D02*
X147620000Y-113010000D01*
D13*
%TO.C,R1*%
X148900000Y-111300000D02*
X148190000Y-111300000D01*
X148190000Y-111300000D02*
X148190000Y-110300000D01*
X148190000Y-110300000D02*
X148900000Y-110300000D01*
X149360000Y-111300000D02*
X150070000Y-111300000D01*
X150070000Y-111300000D02*
X150070000Y-110300000D01*
X150070000Y-110300000D02*
X149360000Y-110300000D01*
D12*
%TO.C,P2*%
X171300000Y-118220000D02*
X169360000Y-118220000D01*
X169360000Y-118220000D02*
X168930000Y-117800000D01*
X168930000Y-117800000D02*
X168930000Y-116600000D01*
X168930000Y-116600000D02*
X168930000Y-116600000D01*
X168930000Y-116600000D02*
X169330000Y-116200000D01*
X169330000Y-116200000D02*
X171300000Y-116200000D01*
X171300000Y-113220000D02*
X169360000Y-113220000D01*
X169360000Y-113220000D02*
X168930000Y-112790000D01*
X168930000Y-112790000D02*
X168930000Y-111590000D01*
X168930000Y-111590000D02*
X168930000Y-111590000D01*
X168930000Y-111590000D02*
X169330000Y-111190000D01*
X169330000Y-111190000D02*
X171300000Y-111190000D01*
X169340000Y-119650000D02*
X169340000Y-120250000D01*
X169340000Y-120250000D02*
X170050000Y-120250000D01*
X170050000Y-120250000D02*
X170050000Y-119650000D01*
X171300000Y-119650000D02*
X161000000Y-119650000D01*
X161000000Y-119650000D02*
X161000000Y-109650000D01*
X161000000Y-109650000D02*
X171300000Y-109650000D01*
X171300000Y-109650000D02*
X171300000Y-119640000D01*
X162480000Y-119650000D02*
X162480000Y-120250000D01*
X162480000Y-120250000D02*
X163190000Y-120250000D01*
X163190000Y-120250000D02*
X163190000Y-119650000D01*
X168490000Y-119650000D02*
X168490000Y-109650000D01*
X164110000Y-119650000D02*
X164110000Y-109650000D01*
X162460000Y-119650000D02*
X162460000Y-109650000D01*
%TD*%
M02*
