%TF.GenerationSoftware,KiCad,Pcbnew,9.0.7*%
%TF.CreationDate,2026-01-19T21:44:40-08:00*%
%TF.ProjectId,PCBs,50434273-2e6b-4696-9361-645f70636258,rev?*%
%TF.SameCoordinates,Original*%
%TF.FileFunction,Copper,L2,Inr*%
%TF.FilePolarity,Positive*%
%FSLAX46Y46*%
G04 Gerber Fmt 4.6, Leading zero omitted, Abs format (unit mm)*
G04 Created by KiCad (PCBNEW 9.0.7) date 2026-01-19 21:44:40*
%MOMM*%
%LPD*%
G01*
G04 APERTURE LIST*
G04 Aperture macros list*
%AMRoundRect*
0 Rectangle with rounded corners*
0 $1 Rounding radius*
0 $2 $3 $4 $5 $6 $7 $8 $9 X,Y pos of 4 corners*
0 Add a 4 corners polygon primitive as box body*
4,1,4,$2,$3,$4,$5,$6,$7,$8,$9,$2,$3,0*
0 Add four circle primitives for the rounded corners*
1,1,$1+$1,$2,$3*
1,1,$1+$1,$4,$5*
1,1,$1+$1,$6,$7*
1,1,$1+$1,$8,$9*
0 Add four rect primitives between the rounded corners*
20,1,$1+$1,$2,$3,$4,$5,0*
20,1,$1+$1,$4,$5,$6,$7,0*
20,1,$1+$1,$6,$7,$8,$9,0*
20,1,$1+$1,$8,$9,$2,$3,0*%
G04 Aperture macros list end*
%TA.AperFunction,ComponentPad*%
%ADD10RoundRect,0.250001X0.949999X-0.949999X0.949999X0.949999X-0.949999X0.949999X-0.949999X-0.949999X0*%
%TD*%
%TA.AperFunction,ComponentPad*%
%ADD11C,2.400000*%
%TD*%
%TA.AperFunction,HeatsinkPad*%
%ADD12C,0.600000*%
%TD*%
%TA.AperFunction,ComponentPad*%
%ADD13RoundRect,0.250001X-0.949999X0.949999X-0.949999X-0.949999X0.949999X-0.949999X0.949999X0.949999X0*%
%TD*%
%TA.AperFunction,ViaPad*%
%ADD14C,0.800000*%
%TD*%
G04 APERTURE END LIST*
D10*
%TO.N,GND*%
%TO.C,BuckConverter3-17V->3.3V-ScrewTerminalOutput1*%
X155667500Y-97950000D03*
D11*
%TO.N,VCCOUT*%
X155667500Y-94450000D03*
%TD*%
D12*
%TO.N,GND*%
%TO.C,U6*%
X142900000Y-95700000D03*
X142900000Y-96700000D03*
%TD*%
D11*
%TO.N,GND*%
%TO.C,BuckConverter3-17V->3.3V-ScrewTerminalInput1*%
X134700000Y-97950000D03*
D13*
%TO.N,VCCIN*%
X134700000Y-94450000D03*
%TD*%
D14*
%TO.N,VCCIN*%
X140900000Y-95485000D03*
%TO.N,GND*%
X140400000Y-96950000D03*
X142200000Y-95100000D03*
%TO.N,VCCIN*%
X140900000Y-94700000D03*
%TO.N,GND*%
X139900000Y-97500000D03*
X142900000Y-95100000D03*
X142900000Y-96200000D03*
X139450000Y-96950000D03*
X150300000Y-100050000D03*
X151250000Y-100050000D03*
X150750000Y-100600000D03*
%TO.N,VCCOUT*%
X151100000Y-97300000D03*
%TD*%
%TA.AperFunction,Conductor*%
%TO.N,GND*%
G36*
X159687882Y-90332252D02*
G01*
X159719018Y-90343146D01*
X159744023Y-90355189D01*
X159816592Y-90400788D01*
X159838300Y-90418100D01*
X159898898Y-90478698D01*
X159916210Y-90500407D01*
X159961808Y-90572975D01*
X159973856Y-90597991D01*
X159993041Y-90652817D01*
X160000000Y-90693773D01*
X160000000Y-101203225D01*
X159999305Y-101207313D01*
X159999839Y-101209547D01*
X159993041Y-101244180D01*
X159973856Y-101299007D01*
X159961808Y-101324024D01*
X159916210Y-101396592D01*
X159898898Y-101418301D01*
X159838301Y-101478898D01*
X159816592Y-101496211D01*
X159799603Y-101506886D01*
X159734047Y-101525891D01*
X137780672Y-101599499D01*
X137780256Y-101599500D01*
X130689961Y-101599500D01*
X130676078Y-101598720D01*
X130658614Y-101596752D01*
X130588093Y-101588806D01*
X130569882Y-101585360D01*
X130557907Y-101582151D01*
X130549049Y-101579419D01*
X130475990Y-101553855D01*
X130450972Y-101541807D01*
X130378407Y-101496211D01*
X130356698Y-101478898D01*
X130296100Y-101418300D01*
X130278788Y-101396592D01*
X130233191Y-101324026D01*
X130221143Y-101299008D01*
X130201958Y-101244180D01*
X130195573Y-101225932D01*
X130192846Y-101217091D01*
X130189638Y-101205118D01*
X130186194Y-101186919D01*
X130179199Y-101124832D01*
X130178423Y-101110150D01*
X130229379Y-93449984D01*
X132999500Y-93449984D01*
X132999500Y-95450015D01*
X133010000Y-95552795D01*
X133010001Y-95552797D01*
X133023664Y-95594030D01*
X133065186Y-95719335D01*
X133065187Y-95719337D01*
X133157286Y-95868651D01*
X133157289Y-95868655D01*
X133281344Y-95992710D01*
X133281348Y-95992713D01*
X133430662Y-96084812D01*
X133430664Y-96084813D01*
X133430666Y-96084814D01*
X133597203Y-96139999D01*
X133699992Y-96150500D01*
X133699997Y-96150500D01*
X133978674Y-96150500D01*
X134045713Y-96170185D01*
X134091468Y-96222989D01*
X134101412Y-96292147D01*
X134072387Y-96355703D01*
X134026127Y-96389061D01*
X133946497Y-96422045D01*
X133946479Y-96422054D01*
X133753511Y-96533462D01*
X133687595Y-96584042D01*
X134488941Y-97385387D01*
X134468409Y-97390889D01*
X134331592Y-97469881D01*
X134219881Y-97581592D01*
X134140889Y-97718409D01*
X134135387Y-97738940D01*
X133334042Y-96937595D01*
X133283462Y-97003511D01*
X133172054Y-97196479D01*
X133172045Y-97196497D01*
X133086763Y-97402381D01*
X133029088Y-97617632D01*
X133029085Y-97617645D01*
X133000000Y-97838575D01*
X133000000Y-98061424D01*
X133029085Y-98282354D01*
X133029088Y-98282367D01*
X133086763Y-98497618D01*
X133172045Y-98703502D01*
X133172054Y-98703520D01*
X133283464Y-98896491D01*
X133283473Y-98896504D01*
X133334040Y-98962403D01*
X133334043Y-98962403D01*
X134135387Y-98161058D01*
X134140889Y-98181591D01*
X134219881Y-98318408D01*
X134331592Y-98430119D01*
X134468409Y-98509111D01*
X134488940Y-98514612D01*
X133687595Y-99315955D01*
X133687595Y-99315956D01*
X133753507Y-99366533D01*
X133946485Y-99477949D01*
X133946497Y-99477954D01*
X134152381Y-99563236D01*
X134367632Y-99620911D01*
X134367645Y-99620914D01*
X134588575Y-99650000D01*
X134811425Y-99650000D01*
X135032354Y-99620914D01*
X135032367Y-99620911D01*
X135247618Y-99563236D01*
X135453502Y-99477954D01*
X135453514Y-99477949D01*
X135646498Y-99366530D01*
X135712403Y-99315957D01*
X135712404Y-99315956D01*
X134911059Y-98514612D01*
X134931591Y-98509111D01*
X135068408Y-98430119D01*
X135180119Y-98318408D01*
X135259111Y-98181591D01*
X135264612Y-98161059D01*
X136065956Y-98962404D01*
X136065957Y-98962403D01*
X136116530Y-98896498D01*
X136227949Y-98703514D01*
X136227954Y-98703502D01*
X136313236Y-98497618D01*
X136370911Y-98282367D01*
X136370914Y-98282354D01*
X136400000Y-98061424D01*
X136400000Y-97838575D01*
X136370914Y-97617645D01*
X136370911Y-97617632D01*
X136316844Y-97415845D01*
X142537706Y-97415845D01*
X142666652Y-97469257D01*
X142666656Y-97469258D01*
X142821202Y-97499999D01*
X142821206Y-97500000D01*
X142978794Y-97500000D01*
X142978797Y-97499999D01*
X143133343Y-97469258D01*
X143133347Y-97469257D01*
X143262293Y-97415845D01*
X143057752Y-97211304D01*
X150199500Y-97211304D01*
X150199500Y-97388695D01*
X150234103Y-97562658D01*
X150234106Y-97562667D01*
X150301983Y-97726540D01*
X150301990Y-97726553D01*
X150400535Y-97874034D01*
X150400538Y-97874038D01*
X150525961Y-97999461D01*
X150525965Y-97999464D01*
X150673446Y-98098009D01*
X150673459Y-98098016D01*
X150796363Y-98148923D01*
X150837334Y-98165894D01*
X150837336Y-98165894D01*
X150837341Y-98165896D01*
X151011304Y-98200499D01*
X151011307Y-98200500D01*
X151011309Y-98200500D01*
X151188693Y-98200500D01*
X151188694Y-98200499D01*
X151246682Y-98188964D01*
X151362658Y-98165896D01*
X151362661Y-98165894D01*
X151362666Y-98165894D01*
X151526547Y-98098013D01*
X151526553Y-98098009D01*
X151605085Y-98045536D01*
X151642003Y-98020867D01*
X151674035Y-97999464D01*
X151799464Y-97874035D01*
X151898013Y-97726547D01*
X151965894Y-97562666D01*
X151978360Y-97499999D01*
X152000499Y-97388695D01*
X152000500Y-97388693D01*
X152000500Y-97211306D01*
X152000499Y-97211304D01*
X151965896Y-97037341D01*
X151965893Y-97037332D01*
X151898016Y-96873459D01*
X151898009Y-96873446D01*
X151799464Y-96725965D01*
X151799461Y-96725961D01*
X151674038Y-96600538D01*
X151674034Y-96600535D01*
X151526553Y-96501990D01*
X151526540Y-96501983D01*
X151362667Y-96434106D01*
X151362658Y-96434103D01*
X151188694Y-96399500D01*
X151188691Y-96399500D01*
X151011309Y-96399500D01*
X151011306Y-96399500D01*
X150837341Y-96434103D01*
X150837332Y-96434106D01*
X150673459Y-96501983D01*
X150673446Y-96501990D01*
X150525965Y-96600535D01*
X150525961Y-96600538D01*
X150400538Y-96725961D01*
X150400535Y-96725965D01*
X150301990Y-96873446D01*
X150301983Y-96873459D01*
X150234106Y-97037332D01*
X150234103Y-97037341D01*
X150199500Y-97211304D01*
X143057752Y-97211304D01*
X142900001Y-97053553D01*
X142900000Y-97053553D01*
X142537706Y-97415845D01*
X136316844Y-97415845D01*
X136314507Y-97407124D01*
X136313236Y-97402381D01*
X136227954Y-97196497D01*
X136227949Y-97196485D01*
X136116533Y-97003507D01*
X136065956Y-96937595D01*
X136065955Y-96937595D01*
X135264612Y-97738939D01*
X135259111Y-97718409D01*
X135180119Y-97581592D01*
X135068408Y-97469881D01*
X134931591Y-97390889D01*
X134911058Y-97385387D01*
X135675244Y-96621202D01*
X142100000Y-96621202D01*
X142100000Y-96778797D01*
X142130741Y-96933343D01*
X142130743Y-96933351D01*
X142184153Y-97062293D01*
X142546446Y-96700001D01*
X142546446Y-96699999D01*
X142521583Y-96675136D01*
X142775000Y-96675136D01*
X142775000Y-96724864D01*
X142794030Y-96770807D01*
X142829193Y-96805970D01*
X142875136Y-96825000D01*
X142924864Y-96825000D01*
X142970807Y-96805970D01*
X143005970Y-96770807D01*
X143025000Y-96724864D01*
X143025000Y-96699999D01*
X143253553Y-96699999D01*
X143253553Y-96700001D01*
X143615845Y-97062293D01*
X143669257Y-96933347D01*
X143669258Y-96933343D01*
X143699999Y-96778797D01*
X143700000Y-96778794D01*
X143700000Y-96621206D01*
X143699999Y-96621202D01*
X143669258Y-96466656D01*
X143669257Y-96466652D01*
X143615845Y-96337706D01*
X143253553Y-96699999D01*
X143025000Y-96699999D01*
X143025000Y-96675136D01*
X143005970Y-96629193D01*
X142970807Y-96594030D01*
X142924864Y-96575000D01*
X142875136Y-96575000D01*
X142829193Y-96594030D01*
X142794030Y-96629193D01*
X142775000Y-96675136D01*
X142521583Y-96675136D01*
X142184153Y-96337705D01*
X142130743Y-96466648D01*
X142130741Y-96466656D01*
X142100000Y-96621202D01*
X135675244Y-96621202D01*
X135712404Y-96584042D01*
X135712404Y-96584041D01*
X135646504Y-96533473D01*
X135646491Y-96533464D01*
X135453520Y-96422054D01*
X135453502Y-96422045D01*
X135373873Y-96389061D01*
X135319469Y-96345220D01*
X135297405Y-96278925D01*
X135314685Y-96211226D01*
X135365822Y-96163616D01*
X135421326Y-96150500D01*
X135700003Y-96150500D01*
X135700008Y-96150500D01*
X135802797Y-96139999D01*
X135969334Y-96084814D01*
X136118655Y-95992711D01*
X136242711Y-95868655D01*
X136334814Y-95719334D01*
X136389999Y-95552797D01*
X136400500Y-95450008D01*
X136400500Y-94611304D01*
X139999500Y-94611304D01*
X139999500Y-94788695D01*
X140034103Y-94962658D01*
X140034106Y-94962667D01*
X140068229Y-95045048D01*
X140075698Y-95114518D01*
X140068229Y-95139952D01*
X140034106Y-95222332D01*
X140034103Y-95222341D01*
X139999500Y-95396304D01*
X139999500Y-95573695D01*
X140034103Y-95747658D01*
X140034106Y-95747667D01*
X140101983Y-95911540D01*
X140101990Y-95911553D01*
X140200535Y-96059034D01*
X140200538Y-96059038D01*
X140325961Y-96184461D01*
X140325965Y-96184464D01*
X140473446Y-96283009D01*
X140473459Y-96283016D01*
X140596363Y-96333923D01*
X140637334Y-96350894D01*
X140637336Y-96350894D01*
X140637341Y-96350896D01*
X140811304Y-96385499D01*
X140811307Y-96385500D01*
X140811309Y-96385500D01*
X140988693Y-96385500D01*
X140988694Y-96385499D01*
X141046682Y-96373964D01*
X141162658Y-96350896D01*
X141162661Y-96350894D01*
X141162666Y-96350894D01*
X141326547Y-96283013D01*
X141450785Y-96199999D01*
X142753553Y-96199999D01*
X142900000Y-96346446D01*
X143046446Y-96200001D01*
X143046446Y-96200000D01*
X142900000Y-96053553D01*
X142753553Y-96199999D01*
X141450785Y-96199999D01*
X141474035Y-96184464D01*
X141599464Y-96059035D01*
X141698013Y-95911547D01*
X141765894Y-95747666D01*
X141791049Y-95621206D01*
X141791050Y-95621202D01*
X142100000Y-95621202D01*
X142100000Y-95778797D01*
X142130741Y-95933343D01*
X142130743Y-95933351D01*
X142184153Y-96062293D01*
X142185490Y-96060957D01*
X142546446Y-95700001D01*
X142546446Y-95699999D01*
X142521583Y-95675136D01*
X142775000Y-95675136D01*
X142775000Y-95724864D01*
X142794030Y-95770807D01*
X142829193Y-95805970D01*
X142875136Y-95825000D01*
X142924864Y-95825000D01*
X142970807Y-95805970D01*
X143005970Y-95770807D01*
X143025000Y-95724864D01*
X143025000Y-95699999D01*
X143253553Y-95699999D01*
X143253553Y-95700001D01*
X143615845Y-96062293D01*
X143669257Y-95933347D01*
X143669258Y-95933343D01*
X143699999Y-95778797D01*
X143700000Y-95778794D01*
X143700000Y-95621206D01*
X143699999Y-95621202D01*
X143669258Y-95466656D01*
X143669257Y-95466652D01*
X143615845Y-95337706D01*
X143253553Y-95699999D01*
X143025000Y-95699999D01*
X143025000Y-95675136D01*
X143005970Y-95629193D01*
X142970807Y-95594030D01*
X142924864Y-95575000D01*
X142875136Y-95575000D01*
X142829193Y-95594030D01*
X142794030Y-95629193D01*
X142775000Y-95675136D01*
X142521583Y-95675136D01*
X142184153Y-95337705D01*
X142130743Y-95466648D01*
X142130741Y-95466656D01*
X142100000Y-95621202D01*
X141791050Y-95621202D01*
X141797068Y-95590946D01*
X141797072Y-95590925D01*
X141798034Y-95586087D01*
X141800500Y-95573691D01*
X141800500Y-95396309D01*
X141800500Y-95396306D01*
X141800499Y-95396304D01*
X141765894Y-95222334D01*
X141731769Y-95139950D01*
X141728488Y-95109436D01*
X141723042Y-95079244D01*
X141724590Y-95073176D01*
X141724301Y-95070484D01*
X141731770Y-95045048D01*
X141756994Y-94984153D01*
X142537705Y-94984153D01*
X142900000Y-95346446D01*
X142900001Y-95346446D01*
X143262293Y-94984153D01*
X143133351Y-94930743D01*
X143133343Y-94930741D01*
X142978797Y-94900000D01*
X142821202Y-94900000D01*
X142666656Y-94930741D01*
X142666648Y-94930743D01*
X142537705Y-94984153D01*
X141756994Y-94984153D01*
X141765894Y-94962666D01*
X141800500Y-94788691D01*
X141800500Y-94611309D01*
X141800500Y-94611306D01*
X141800499Y-94611304D01*
X141765896Y-94437341D01*
X141765894Y-94437338D01*
X141765894Y-94437334D01*
X141724976Y-94338549D01*
X153967000Y-94338549D01*
X153967000Y-94561450D01*
X153967001Y-94561466D01*
X153996094Y-94782452D01*
X153996095Y-94782457D01*
X153996096Y-94782463D01*
X154053790Y-94997780D01*
X154053793Y-94997790D01*
X154112679Y-95139952D01*
X154139095Y-95203726D01*
X154250552Y-95396774D01*
X154250557Y-95396780D01*
X154250558Y-95396782D01*
X154386251Y-95573622D01*
X154386257Y-95573629D01*
X154543870Y-95731242D01*
X154543877Y-95731248D01*
X154565274Y-95747666D01*
X154720726Y-95866948D01*
X154913774Y-95978405D01*
X154913779Y-95978407D01*
X154913783Y-95978409D01*
X154993524Y-96011439D01*
X155047928Y-96055280D01*
X155069993Y-96121574D01*
X155052714Y-96189273D01*
X155001577Y-96236884D01*
X154946072Y-96250000D01*
X154667514Y-96250000D01*
X154564810Y-96260493D01*
X154564803Y-96260494D01*
X154398381Y-96315641D01*
X154398376Y-96315643D01*
X154249155Y-96407684D01*
X154125184Y-96531655D01*
X154033143Y-96680876D01*
X154033141Y-96680881D01*
X153977994Y-96847303D01*
X153977993Y-96847310D01*
X153967500Y-96950014D01*
X153967500Y-97700000D01*
X155119018Y-97700000D01*
X155108389Y-97718409D01*
X155067500Y-97871009D01*
X155067500Y-98028991D01*
X155108389Y-98181591D01*
X155119018Y-98200000D01*
X153967500Y-98200000D01*
X153967500Y-98949985D01*
X153977993Y-99052689D01*
X153977994Y-99052696D01*
X154033141Y-99219118D01*
X154033143Y-99219123D01*
X154125184Y-99368344D01*
X154249155Y-99492315D01*
X154398376Y-99584356D01*
X154398381Y-99584358D01*
X154564803Y-99639505D01*
X154564810Y-99639506D01*
X154667514Y-99649999D01*
X154667527Y-99650000D01*
X155417500Y-99650000D01*
X155417500Y-98498482D01*
X155435909Y-98509111D01*
X155588509Y-98550000D01*
X155746491Y-98550000D01*
X155899091Y-98509111D01*
X155917500Y-98498482D01*
X155917500Y-99650000D01*
X156667473Y-99650000D01*
X156667485Y-99649999D01*
X156770189Y-99639506D01*
X156770196Y-99639505D01*
X156936618Y-99584358D01*
X156936623Y-99584356D01*
X157085844Y-99492315D01*
X157209815Y-99368344D01*
X157301856Y-99219123D01*
X157301858Y-99219118D01*
X157357005Y-99052696D01*
X157357006Y-99052689D01*
X157367499Y-98949985D01*
X157367500Y-98949972D01*
X157367500Y-98200000D01*
X156215982Y-98200000D01*
X156226611Y-98181591D01*
X156267500Y-98028991D01*
X156267500Y-97871009D01*
X156226611Y-97718409D01*
X156215982Y-97700000D01*
X157367500Y-97700000D01*
X157367500Y-96950027D01*
X157367499Y-96950014D01*
X157357006Y-96847310D01*
X157357005Y-96847303D01*
X157301858Y-96680881D01*
X157301856Y-96680876D01*
X157209815Y-96531655D01*
X157085844Y-96407684D01*
X156936623Y-96315643D01*
X156936618Y-96315641D01*
X156770196Y-96260494D01*
X156770189Y-96260493D01*
X156667485Y-96250000D01*
X156388928Y-96250000D01*
X156321889Y-96230315D01*
X156276134Y-96177511D01*
X156266190Y-96108353D01*
X156295215Y-96044797D01*
X156341476Y-96011439D01*
X156421216Y-95978409D01*
X156421214Y-95978409D01*
X156421226Y-95978405D01*
X156614274Y-95866948D01*
X156791124Y-95731247D01*
X156948747Y-95573624D01*
X157084448Y-95396774D01*
X157195905Y-95203726D01*
X157281210Y-94997781D01*
X157338904Y-94782463D01*
X157368000Y-94561457D01*
X157368000Y-94338543D01*
X157338904Y-94117537D01*
X157281210Y-93902219D01*
X157252995Y-93834103D01*
X157249697Y-93826140D01*
X157195905Y-93696274D01*
X157084448Y-93503226D01*
X156948747Y-93326376D01*
X156948742Y-93326370D01*
X156791129Y-93168757D01*
X156791122Y-93168751D01*
X156614282Y-93033058D01*
X156614280Y-93033057D01*
X156614274Y-93033052D01*
X156421226Y-92921595D01*
X156421222Y-92921593D01*
X156215290Y-92836293D01*
X156215283Y-92836291D01*
X156215281Y-92836290D01*
X155999963Y-92778596D01*
X155999957Y-92778595D01*
X155999952Y-92778594D01*
X155778966Y-92749501D01*
X155778963Y-92749500D01*
X155778957Y-92749500D01*
X155556043Y-92749500D01*
X155556037Y-92749500D01*
X155556033Y-92749501D01*
X155335047Y-92778594D01*
X155335040Y-92778595D01*
X155335037Y-92778596D01*
X155198481Y-92815186D01*
X155119719Y-92836290D01*
X155119709Y-92836293D01*
X154913777Y-92921593D01*
X154913773Y-92921595D01*
X154720726Y-93033052D01*
X154720717Y-93033058D01*
X154543877Y-93168751D01*
X154543870Y-93168757D01*
X154386257Y-93326370D01*
X154386251Y-93326377D01*
X154250558Y-93503217D01*
X154250552Y-93503226D01*
X154139095Y-93696273D01*
X154139093Y-93696277D01*
X154053793Y-93902209D01*
X154053790Y-93902219D01*
X154027447Y-94000535D01*
X153996097Y-94117534D01*
X153996094Y-94117547D01*
X153967001Y-94338533D01*
X153967000Y-94338549D01*
X141724976Y-94338549D01*
X141723239Y-94334355D01*
X141698016Y-94273459D01*
X141698009Y-94273446D01*
X141599464Y-94125965D01*
X141599461Y-94125961D01*
X141474038Y-94000538D01*
X141474034Y-94000535D01*
X141326553Y-93901990D01*
X141326540Y-93901983D01*
X141162667Y-93834106D01*
X141162658Y-93834103D01*
X140988694Y-93799500D01*
X140988691Y-93799500D01*
X140811309Y-93799500D01*
X140811306Y-93799500D01*
X140637341Y-93834103D01*
X140637332Y-93834106D01*
X140473459Y-93901983D01*
X140473446Y-93901990D01*
X140325965Y-94000535D01*
X140325961Y-94000538D01*
X140200538Y-94125961D01*
X140200535Y-94125965D01*
X140101990Y-94273446D01*
X140101983Y-94273459D01*
X140034106Y-94437332D01*
X140034103Y-94437341D01*
X139999500Y-94611304D01*
X136400500Y-94611304D01*
X136400500Y-93449992D01*
X136389999Y-93347203D01*
X136334814Y-93180666D01*
X136327468Y-93168757D01*
X136242713Y-93031348D01*
X136242710Y-93031344D01*
X136118655Y-92907289D01*
X136118651Y-92907286D01*
X135969337Y-92815187D01*
X135969335Y-92815186D01*
X135858907Y-92778594D01*
X135802797Y-92760001D01*
X135802795Y-92760000D01*
X135700015Y-92749500D01*
X135700008Y-92749500D01*
X133699992Y-92749500D01*
X133699984Y-92749500D01*
X133597204Y-92760000D01*
X133597203Y-92760001D01*
X133430664Y-92815186D01*
X133430662Y-92815187D01*
X133281348Y-92907286D01*
X133281344Y-92907289D01*
X133157289Y-93031344D01*
X133157286Y-93031348D01*
X133065187Y-93180662D01*
X133065186Y-93180664D01*
X133010001Y-93347203D01*
X133010000Y-93347204D01*
X132999500Y-93449984D01*
X130229379Y-93449984D01*
X130248446Y-90583597D01*
X130253281Y-90567021D01*
X130253115Y-90550705D01*
X130267447Y-90518456D01*
X130278791Y-90500403D01*
X130296097Y-90478702D01*
X130356703Y-90418096D01*
X130378401Y-90400792D01*
X130429318Y-90368798D01*
X130495182Y-90349793D01*
X159646840Y-90325296D01*
X159687882Y-90332252D01*
G37*
%TD.AperFunction*%
%TD*%
M02*
